<svg width="68" height="100" viewBox="0 0 68 100" fill="none" xmlns="http://www.w3.org/2000/svg">
<path d="M58.96 0H8.62C3.87 0 0 3.87 0 8.62V90.94C0 95.69 3.87 99.56 8.62 99.56H58.96C63.71 99.56 67.58 95.69 67.58 90.94V8.62C67.58 3.87 63.71 0 58.96 0ZM63.58 90.94C63.58 93.49 61.51 95.56 58.96 95.56H8.62C6.07 95.56 4 93.49 4 90.94V8.62C4 6.07 6.07 4 8.62 4H58.96C61.51 4 63.58 6.07 63.58 8.62V90.94Z" fill="#00C9FF"/>
<path d="M33.79 6.07998C34.3 6.07998 34.72 5.66998 34.72 5.14998C34.72 4.62998 34.31 4.22998 33.79 4.22998C33.27 4.22998 32.86 4.63998 32.86 5.14998C32.86 5.65998 33.27 6.07998 33.79 6.07998Z" fill="#00C9FF"/>
<path d="M30.32 9.81998H37.26C37.77 9.81998 38.18 9.40998 38.18 8.89998C38.18 8.38998 37.77 7.97998 37.26 7.97998H30.32C29.81 7.97998 29.4 8.38998 29.4 8.89998C29.4 9.40998 29.81 9.81998 30.32 9.81998Z" fill="#00C9FF"/>
<path d="M27.22 9.60992C27.62 9.60992 27.94 9.28992 27.94 8.88992C27.94 8.48992 27.62 8.16992 27.22 8.16992C26.82 8.16992 26.5 8.48992 26.5 8.88992C26.5 9.28992 26.82 9.60992 27.22 9.60992Z" fill="#00C9FF"/>
<path d="M33.79 83.9199C30.68 83.9199 28.15 86.4499 28.15 89.5599C28.15 92.6699 30.68 95.1899 33.79 95.1899C36.9 95.1899 39.43 92.6599 39.43 89.5599C39.43 86.4599 36.9 83.9199 33.79 83.9199ZM33.79 93.1899C31.78 93.1899 30.15 91.5599 30.15 89.5599C30.15 87.5599 31.78 85.9199 33.79 85.9199C35.8 85.9199 37.43 87.5499 37.43 89.5599C37.43 91.5699 35.8 93.1899 33.79 93.1899Z" fill="#00C9FF"/>
<path d="M57.41 11.8101H10.18C9.62999 11.8101 9.17999 12.2601 9.17999 12.8101V82.7701C9.17999 83.3201 9.62999 83.7701 10.18 83.7701H57.41C57.96 83.7701 58.41 83.3201 58.41 82.7701V12.8101C58.41 12.2601 57.96 11.8101 57.41 11.8101ZM56.41 81.7701H11.18V13.8101H56.41V81.7701Z" fill="#00C9FF"/>
</svg>
