<svg width="98" height="110" viewBox="0 0 98 110" fill="none" xmlns="http://www.w3.org/2000/svg">
<path d="M2 46.575C0.75 48.125 0 50.085 0 52.225V100.335C0 105.295 4.04 109.335 9 109.335H10.22L10.44 109.555L10.66 109.335H86.47L86.69 109.555L86.91 109.335H88.13C93.09 109.335 97.13 105.295 97.13 100.335V52.225C97.13 50.085 96.38 48.125 95.13 46.575C95.13 45.955 94.91 45.325 94.43 44.845L50.26 0.675C49.36 -0.225 47.77 -0.225 46.88 0.675L2.71001 44.845C2.23001 45.325 1.99999 45.945 2.00999 46.575H2ZM14.66 105.335L37.23 82.765L46.87 92.405C47.32 92.855 47.93 93.105 48.56 93.105C49.19 93.105 49.8 92.855 50.25 92.405L59.89 82.765L82.46 105.335H14.65H14.66ZM21.9 62.025V45.225H76.03V61.215L48.57 88.685L21.91 62.025H21.9ZM93.13 52.225V100.335C93.13 102.745 91.41 104.765 89.14 105.235L63.29 79.385L92.62 50.055C92.94 50.715 93.14 51.445 93.14 52.225H93.13ZM48.57 5.75499L89.36 46.545L78.91 56.995V43.785C78.91 42.995 78.27 42.355 77.47 42.355H20.47C19.68 42.355 19.03 42.995 19.03 43.785V57.795L7.78 46.545L48.57 5.75499ZM4 52.225C4 51.445 4.2 50.715 4.52 50.055L33.85 79.385L8 105.235C5.72 104.765 4.00999 102.755 4.00999 100.335V52.225H4Z" fill="#00C9FF"/>
</svg>
