<svg width="105" height="105" viewBox="0 0 105 105" fill="none" xmlns="http://www.w3.org/2000/svg">
<mask id="mask0_436_21" style="mask-type:luminance" maskUnits="userSpaceOnUse" x="0" y="13" width="105" height="71">
<path d="M104.766 13.9681H0V83.9432H104.766V13.9681Z" fill="white"/>
</mask>
<g mask="url(#mask0_436_21)">
<path d="M99.5277 83.8122H5.23865C5.06833 83.8122 4.89603 83.8043 4.72571 83.7884C4.55539 83.7706 4.38508 83.7468 4.21674 83.7132C4.0484 83.6795 3.88204 83.6379 3.71767 83.5884C3.55329 83.5369 3.39089 83.4795 3.23444 83.4141C3.076 83.3488 2.92153 83.2755 2.76903 83.1943C2.61654 83.1131 2.46999 83.0259 2.32937 82.9289C2.18678 82.8338 2.04815 82.7328 1.91546 82.6219C1.78277 82.513 1.65602 82.3981 1.53521 82.2773C1.41441 82.1565 1.29954 82.0278 1.19062 81.8971C1.08169 81.7644 0.98069 81.6277 0.883648 81.4832C0.788587 81.3406 0.701447 81.194 0.620249 81.0435C0.539051 80.891 0.465774 80.7365 0.400419 80.5781C0.335065 80.4197 0.277632 80.2593 0.22614 80.0949C0.176629 79.9305 0.13504 79.7641 0.101372 79.5958C0.0677046 79.4275 0.0419588 79.2571 0.0261152 79.0868C0.0102716 78.9165 0.00234985 78.7442 0.00234985 78.5739V19.2061C0.00234985 19.0338 0.0102716 18.8635 0.0261152 18.6931C0.0419588 18.5228 0.0677046 18.3525 0.101372 18.1842C0.13504 18.0158 0.176629 17.8495 0.22614 17.6851C0.277632 17.5207 0.335065 17.3603 0.400419 17.2019C0.465774 17.0434 0.539051 16.889 0.620249 16.7384C0.701447 16.5859 0.788587 16.4394 0.883648 16.2968C0.978709 16.1542 1.08169 16.0156 1.19062 15.8849C1.29954 15.7522 1.41441 15.6254 1.53521 15.5046C1.65602 15.3838 1.78475 15.267 1.91546 15.16C2.04815 15.0511 2.1848 14.9481 2.32937 14.8531C2.47197 14.758 2.61852 14.6689 2.76903 14.5897C2.92153 14.5085 3.076 14.4352 3.23444 14.3698C3.39287 14.3045 3.55329 14.247 3.71767 14.1956C3.88204 14.146 4.0484 14.1045 4.21674 14.0708C4.38508 14.0371 4.55539 14.0114 4.72571 13.9955C4.89603 13.9777 5.06833 13.9698 5.23865 13.9698H12.2237C12.3385 13.9698 12.4514 13.9817 12.5643 14.0034C12.6772 14.0252 12.7861 14.0589 12.8931 14.1025C13 14.146 13.099 14.1995 13.1961 14.2649C13.2911 14.3282 13.3803 14.3995 13.4595 14.4807C13.5407 14.5619 13.614 14.6491 13.6773 14.7461C13.7407 14.8412 13.7942 14.9422 13.8377 15.0471C13.8813 15.1541 13.915 15.263 13.9368 15.3759C13.9585 15.4888 13.9704 15.6017 13.9704 15.7165C13.9704 15.8314 13.9585 15.9443 13.9368 16.0572C13.915 16.1701 13.8813 16.279 13.8377 16.3859C13.7942 16.4929 13.7407 16.5919 13.6773 16.687C13.614 16.782 13.5407 16.8711 13.4595 16.9523C13.3783 17.0335 13.2911 17.1068 13.1961 17.1702C13.101 17.2336 13 17.287 12.8931 17.3306C12.7861 17.3742 12.6772 17.4078 12.5643 17.4296C12.4514 17.4514 12.3385 17.4633 12.2237 17.4633H5.23865C5.12378 17.4633 5.0109 17.4752 4.89801 17.497C4.78513 17.5187 4.6762 17.5524 4.56926 17.598C4.46231 17.6415 4.36329 17.695 4.26823 17.7584C4.17317 17.8217 4.08405 17.895 4.00285 17.9762C3.92165 18.0574 3.84838 18.1446 3.785 18.2396C3.72163 18.3347 3.66815 18.4357 3.62458 18.5426C3.58101 18.6496 3.54735 18.7565 3.52556 18.8694C3.50378 18.9823 3.49189 19.0952 3.49189 19.21V78.5779C3.49189 78.6927 3.50378 78.8056 3.52556 78.9185C3.54735 79.0314 3.58101 79.1403 3.62458 79.2472C3.66815 79.3522 3.72163 79.4532 3.785 79.5483C3.84838 79.6433 3.92165 79.7325 4.00285 79.8137C4.08405 79.8949 4.17119 79.9681 4.26823 80.0295C4.36329 80.0929 4.46231 80.1464 4.56926 80.1919C4.6762 80.2355 4.78513 80.2692 4.89801 80.2909C5.0109 80.3127 5.12378 80.3246 5.23865 80.3246H99.5277C99.6425 80.3246 99.7554 80.3127 99.8683 80.2909C99.9812 80.2692 100.09 80.2355 100.197 80.1919C100.304 80.1484 100.403 80.0949 100.5 80.0295C100.595 79.9661 100.684 79.8929 100.763 79.8137C100.845 79.7325 100.918 79.6453 100.981 79.5483C101.045 79.4532 101.098 79.3522 101.142 79.2472C101.185 79.1403 101.219 79.0314 101.241 78.9185C101.263 78.8056 101.274 78.6927 101.274 78.5779V19.2061C101.274 19.0912 101.263 18.9763 101.241 18.8654C101.219 18.7526 101.185 18.6456 101.142 18.5387C101.098 18.4317 101.045 18.3327 100.981 18.2357C100.918 18.1406 100.845 18.0515 100.763 17.9723C100.682 17.8911 100.595 17.8178 100.5 17.7544C100.405 17.691 100.304 17.6376 100.197 17.594C100.09 17.5504 99.9812 17.5168 99.8683 17.493C99.7554 17.4712 99.6425 17.4593 99.5277 17.4593H92.5426C92.4278 17.4593 92.3149 17.4474 92.202 17.4257C92.0891 17.4039 91.9802 17.3702 91.8732 17.3266C91.7663 17.2831 91.6673 17.2296 91.5722 17.1662C91.4771 17.1028 91.388 17.0296 91.3068 16.9484C91.2256 16.8672 91.1524 16.78 91.089 16.683C91.0256 16.5879 90.9721 16.4889 90.9286 16.382C90.885 16.275 90.8513 16.1661 90.8295 16.0532C90.8078 15.9403 90.7959 15.8274 90.7959 15.7126C90.7959 15.5977 90.8078 15.4848 90.8295 15.3719C90.8513 15.2591 90.885 15.1501 90.9286 15.0432C90.9721 14.9382 91.0256 14.8372 91.089 14.7422C91.1524 14.6471 91.2256 14.558 91.3068 14.4768C91.388 14.3956 91.4752 14.3223 91.5722 14.2609C91.6673 14.1975 91.7663 14.1441 91.8732 14.0985C91.9802 14.0549 92.0891 14.0213 92.202 13.9995C92.3149 13.9777 92.4278 13.9658 92.5426 13.9658H99.5277C99.7 13.9658 99.8703 13.9737 100.041 13.9916C100.211 14.0074 100.381 14.0332 100.55 14.0668C100.718 14.1005 100.884 14.1421 101.049 14.1916C101.213 14.2411 101.375 14.2985 101.534 14.3659C101.692 14.4312 101.847 14.5045 101.997 14.5857C102.15 14.6669 102.296 14.754 102.439 14.8491C102.582 14.9442 102.718 15.0452 102.851 15.1561C102.984 15.265 103.11 15.3799 103.231 15.5007C103.352 15.6215 103.467 15.7482 103.576 15.8809C103.685 16.0136 103.786 16.1503 103.883 16.2928C103.978 16.4354 104.067 16.582 104.146 16.7345C104.227 16.885 104.301 17.0415 104.366 17.1979C104.431 17.3563 104.489 17.5168 104.54 17.6811C104.59 17.8455 104.631 18.0119 104.665 18.1802C104.699 18.3485 104.724 18.5169 104.74 18.6892C104.756 18.8595 104.766 19.0298 104.766 19.2021V78.5699C104.766 78.7403 104.756 78.9126 104.74 79.0829C104.724 79.2532 104.699 79.4215 104.665 79.5919C104.631 79.7602 104.59 79.9265 104.54 80.0909C104.491 80.2553 104.433 80.4177 104.366 80.5742C104.301 80.7326 104.227 80.8871 104.146 81.0396C104.065 81.1901 103.978 81.3386 103.883 81.4792C103.788 81.6218 103.685 81.7604 103.576 81.8931C103.467 82.0258 103.352 82.1526 103.231 82.2734C103.11 82.3942 102.982 82.509 102.851 82.618C102.718 82.7269 102.582 82.8299 102.439 82.9249C102.296 83.02 102.15 83.1091 101.997 83.1903C101.845 83.2715 101.69 83.3448 101.534 83.4101C101.375 83.4755 101.215 83.5329 101.049 83.5844C100.884 83.6339 100.718 83.6755 100.55 83.7092C100.381 83.7429 100.211 83.7666 100.041 83.7844C99.8703 83.8003 99.7 83.8082 99.5277 83.8082V83.8122Z" fill="#00C9FF"/>
</g>
<mask id="mask1_436_21" style="mask-type:luminance" maskUnits="userSpaceOnUse" x="33" y="90" width="39" height="15">
<path d="M71.6209 90.5459H33.0676V104.765H71.6209V90.5459Z" fill="white"/>
</mask>
<g mask="url(#mask1_436_21)">
<path d="M69.8445 104.765H34.9233C34.8084 104.765 34.6935 104.754 34.5826 104.732C34.4697 104.71 34.3608 104.676 34.2559 104.633C34.1489 104.589 34.0499 104.536 33.9528 104.472C33.8578 104.409 33.7687 104.336 33.6894 104.255C33.6083 104.173 33.535 104.086 33.4716 103.989C33.4082 103.894 33.3548 103.793 33.3112 103.688C33.2676 103.581 33.2339 103.472 33.2102 103.359C33.1884 103.246 33.1765 103.134 33.1765 103.019V99.5252C33.1765 99.24 33.1904 98.9548 33.2181 98.6697C33.2478 98.3845 33.2894 98.1033 33.3448 97.822C33.4003 97.5408 33.4716 97.2655 33.5548 96.9922C33.638 96.7169 33.735 96.4496 33.8439 96.1862C33.9528 95.9228 34.0756 95.6633 34.2103 95.4118C34.345 95.1583 34.4915 94.9147 34.65 94.6771C34.8084 94.4394 34.9787 94.2117 35.1609 93.9899C35.3431 93.7681 35.5352 93.5562 35.7372 93.3541C35.9392 93.1521 36.1511 92.962 36.371 92.7798C36.5908 92.5976 36.8205 92.4273 37.0582 92.2689C37.2958 92.1104 37.5414 91.9639 37.7929 91.8292C38.0444 91.6945 38.3019 91.5717 38.5673 91.4628C38.8307 91.3539 39.1 91.2569 39.3733 91.1737C39.6466 91.0905 39.9239 91.0212 40.2031 90.9657C40.4844 90.9083 40.7656 90.8687 41.0508 90.839C41.3359 90.8113 41.6211 90.7974 41.9063 90.7954H62.8594C63.1446 90.7954 63.4318 90.8113 63.715 90.839C63.9982 90.8687 64.2814 90.9083 64.5626 90.9657C64.8438 91.0212 65.1191 91.0925 65.3924 91.1737C65.6657 91.2569 65.9351 91.3539 66.1985 91.4628C66.4619 91.5737 66.7213 91.6945 66.9728 91.8292C67.2263 91.9639 67.4699 92.1104 67.7076 92.2689C67.9452 92.4273 68.1749 92.5976 68.3948 92.7798C68.6146 92.962 68.8265 93.1521 69.0285 93.3541C69.2305 93.5562 69.4226 93.7681 69.6048 93.9899C69.787 94.2097 69.9573 94.4394 70.1158 94.6771C70.2742 94.9147 70.4208 95.1603 70.5554 95.4118C70.6901 95.6633 70.8129 95.9208 70.9218 96.1862C71.0327 96.4496 71.1278 96.7189 71.211 96.9922C71.2942 97.2655 71.3635 97.5428 71.4189 97.822C71.4744 98.1033 71.516 98.3845 71.5457 98.6697C71.5734 98.9548 71.5873 99.24 71.5873 99.5252V103.019C71.5873 103.134 71.5774 103.246 71.5536 103.359C71.5318 103.472 71.4981 103.581 71.4546 103.688C71.411 103.795 71.3575 103.894 71.2922 103.989C71.2288 104.084 71.1555 104.173 71.0763 104.255C70.9951 104.336 70.906 104.409 70.8109 104.472C70.7159 104.536 70.6149 104.589 70.5079 104.633C70.4029 104.676 70.294 104.71 70.1811 104.732C70.0683 104.754 69.9554 104.765 69.8405 104.765H69.8445ZM36.668 101.272H68.0977V99.5252C68.0977 99.3549 68.0898 99.1826 68.072 99.0123C68.0561 98.842 68.0304 98.6716 67.9967 98.5033C67.963 98.335 67.9214 98.1686 67.8719 98.0042C67.8224 97.8399 67.765 97.6794 67.6977 97.521C67.6323 97.3626 67.559 97.2081 67.4778 97.0556C67.3966 96.9051 67.3095 96.7566 67.2144 96.6159C67.1194 96.4734 67.0184 96.3347 66.9075 96.204C66.7985 96.0713 66.6837 95.9446 66.5629 95.8218C66.4421 95.699 66.3153 95.5861 66.1826 95.4772C66.0499 95.3683 65.9133 95.2653 65.7707 95.1702C65.6281 95.0752 65.4815 94.986 65.329 94.9068C65.1785 94.8256 65.0221 94.7523 64.8656 94.687C64.7072 94.6216 64.5468 94.5642 64.3824 94.5127C64.218 94.4612 64.0517 94.4216 63.8833 94.3879C63.715 94.3543 63.5466 94.3285 63.3743 94.3107C63.204 94.2949 63.0337 94.2869 62.8614 94.2869H41.9083C41.736 94.2869 41.5657 94.2949 41.3954 94.3107C41.225 94.3285 41.0547 94.3523 40.8864 94.3879C40.718 94.4216 40.5517 94.4632 40.3873 94.5127C40.2229 94.5622 40.0605 94.6196 39.9021 94.687C39.7437 94.7523 39.5892 94.8256 39.4387 94.9068C39.2862 94.988 39.1396 95.0752 38.997 95.1702C38.8545 95.2653 38.7178 95.3663 38.5851 95.4772C38.4524 95.5861 38.3257 95.701 38.2049 95.8218C38.0841 95.9426 37.9692 96.0713 37.8603 96.204C37.7513 96.3367 37.6503 96.4734 37.5533 96.6159C37.4582 96.7585 37.3691 96.9051 37.2899 97.0556C37.2087 97.2081 37.1354 97.3626 37.0701 97.521C37.0047 97.6794 36.9473 97.8399 36.8958 98.0042C36.8463 98.1686 36.8047 98.335 36.771 98.5033C36.7374 98.6716 36.7116 98.84 36.6958 99.0123C36.6799 99.1826 36.67 99.3529 36.67 99.5252V101.272H36.668Z" fill="#00C9FF"/>
</g>
<path d="M61.1125 94.289H43.6509C43.536 94.289 43.4212 94.2771 43.3103 94.2554C43.1974 94.2336 43.0885 94.1999 42.9835 94.1563C42.8765 94.1128 42.7775 94.0593 42.6805 93.9959C42.5854 93.9326 42.4963 93.8593 42.4171 93.7781C42.3359 93.6969 42.2626 93.6097 42.1992 93.5147C42.1359 93.4196 42.0824 93.3186 42.0388 93.2117C41.9952 93.1047 41.9616 92.9958 41.9378 92.8829C41.916 92.77 41.9041 92.6571 41.9041 92.5423V82.0657C41.9041 81.9509 41.916 81.838 41.9378 81.7251C41.9596 81.6122 41.9933 81.5033 42.0388 81.3983C42.0824 81.2914 42.1359 81.1904 42.1992 81.0953C42.2626 81.0002 42.3359 80.9111 42.4171 80.8299C42.4983 80.7487 42.5854 80.6774 42.6805 80.6141C42.7755 80.5507 42.8765 80.4972 42.9835 80.4517C43.0885 80.4081 43.1974 80.3744 43.3103 80.3526C43.4231 80.3309 43.536 80.319 43.6509 80.319H61.1125C61.2274 80.319 61.3402 80.3289 61.4531 80.3526C61.566 80.3764 61.6749 80.4081 61.7799 80.4517C61.8868 80.4952 61.9878 80.5487 62.0829 80.6141C62.178 80.6794 62.2671 80.7507 62.3483 80.8299C62.4295 80.9111 62.5008 81.0002 62.5642 81.0953C62.6275 81.1904 62.681 81.2914 62.7266 81.3983C62.7701 81.5033 62.8038 81.6122 62.8256 81.7251C62.8474 81.838 62.8592 81.9509 62.8592 82.0657V92.5423C62.8592 92.6571 62.8493 92.77 62.8256 92.8829C62.8038 92.9958 62.7701 93.1047 62.7266 93.2117C62.683 93.3186 62.6295 93.4176 62.5642 93.5147C62.5008 93.6097 62.4275 93.6989 62.3483 93.7781C62.2691 93.8573 62.178 93.9326 62.0829 93.9959C61.9878 94.0593 61.8868 94.1128 61.7799 94.1563C61.6749 94.1999 61.566 94.2336 61.4531 94.2554C61.3402 94.2771 61.2274 94.289 61.1125 94.289ZM45.3977 90.7955H59.3677V83.8105H45.3977V90.7955Z" fill="#00C9FF"/>
<mask id="mask2_436_21" style="mask-type:luminance" maskUnits="userSpaceOnUse" x="0" y="69" width="105" height="15">
<path d="M104.766 69.6838H0V83.943H104.766V69.6838Z" fill="white"/>
</mask>
<g mask="url(#mask2_436_21)">
<path d="M99.5273 83.8123H5.23828C5.06796 83.8123 4.89567 83.8044 4.72535 83.7886C4.55503 83.7708 4.38471 83.747 4.21637 83.7133C4.04803 83.6797 3.88168 83.6381 3.7173 83.5886C3.55292 83.5371 3.39053 83.4796 3.23407 83.4143C3.07564 83.3489 2.92116 83.2756 2.76867 83.1944C2.61617 83.1132 2.46962 83.0261 2.32901 82.9291C2.18642 82.834 2.04778 82.733 1.91509 82.6221C1.7824 82.5132 1.65566 82.3983 1.53485 82.2775C1.41404 82.1567 1.29918 82.028 1.19025 81.8973C1.08133 81.7646 0.980324 81.6279 0.883282 81.4833C0.788221 81.3408 0.701081 81.1942 0.619883 81.0437C0.538684 80.8912 0.465408 80.7367 0.400053 80.5783C0.334698 80.4198 0.277266 80.2594 0.225774 80.095C0.176263 79.9307 0.134674 79.7643 0.101006 79.596C0.0673383 79.4276 0.0415926 79.2573 0.025749 79.087C0.00990542 78.9167 0.00198364 78.7444 0.00198364 78.5741V71.589C0.00198364 71.4742 0.0118859 71.3593 0.0356512 71.2484C0.0594166 71.1375 0.0911037 71.0266 0.134674 70.9216C0.178243 70.8147 0.231715 70.7157 0.29707 70.6186C0.360444 70.5236 0.433721 70.4344 0.512939 70.3552C0.592156 70.276 0.683257 70.2007 0.778318 70.1374C0.87338 70.074 0.974382 70.0205 1.08133 69.977C1.18629 69.9334 1.29521 69.8997 1.4081 69.8759C1.52099 69.8542 1.63387 69.8423 1.74874 69.8423H103.023C103.138 69.8423 103.251 69.8542 103.363 69.8759C103.476 69.8977 103.585 69.9314 103.692 69.977C103.797 70.0205 103.898 70.074 103.993 70.1374C104.088 70.2007 104.177 70.274 104.259 70.3552C104.34 70.4364 104.413 70.5236 104.474 70.6186C104.538 70.7137 104.591 70.8147 104.637 70.9216C104.68 71.0266 104.714 71.1355 104.736 71.2484C104.758 71.3613 104.77 71.4742 104.77 71.589V78.5741C104.77 78.7444 104.76 78.9167 104.744 79.087C104.728 79.2573 104.702 79.4257 104.669 79.596C104.635 79.7643 104.593 79.9307 104.544 80.095C104.494 80.2594 104.437 80.4218 104.369 80.5783C104.304 80.7367 104.231 80.8912 104.15 81.0437C104.068 81.1942 103.981 81.3427 103.886 81.4833C103.791 81.6259 103.688 81.7646 103.579 81.8973C103.47 82.0299 103.356 82.1567 103.235 82.2775C103.114 82.3983 102.985 82.5132 102.854 82.6221C102.722 82.731 102.585 82.834 102.443 82.9291C102.3 83.0241 102.153 83.1132 102.001 83.1944C101.848 83.2756 101.694 83.3489 101.537 83.4143C101.379 83.4796 101.219 83.5371 101.052 83.5886C100.888 83.6381 100.722 83.6797 100.553 83.7133C100.385 83.747 100.215 83.7708 100.044 83.7886C99.8739 83.8044 99.7036 83.8123 99.5313 83.8123H99.5273ZM3.49153 73.3358V78.5741C3.49153 78.6889 3.50341 78.8018 3.5252 78.9147C3.54698 79.0276 3.58065 79.1365 3.62422 79.2435C3.66779 79.3484 3.72126 79.4494 3.78464 79.5445C3.84801 79.6395 3.92129 79.7287 4.00248 79.8099C4.08368 79.8911 4.17082 79.9643 4.26786 80.0257C4.36293 80.0891 4.46195 80.1426 4.56889 80.1881C4.67584 80.2317 4.78476 80.2654 4.89764 80.2872C5.01053 80.3089 5.12342 80.3208 5.23828 80.3208H99.5273C99.6422 80.3208 99.7551 80.3089 99.8679 80.2872C99.9808 80.2654 100.09 80.2317 100.197 80.1881C100.304 80.1446 100.403 80.0911 100.5 80.0257C100.595 79.9624 100.684 79.8891 100.763 79.8099C100.844 79.7287 100.918 79.6415 100.981 79.5445C101.044 79.4494 101.098 79.3484 101.141 79.2435C101.185 79.1365 101.219 79.0276 101.24 78.9147C101.262 78.8018 101.274 78.6889 101.274 78.5741V73.3358H3.49153Z" fill="#00C9FF"/>
</g>
<mask id="mask3_436_21" style="mask-type:luminance" maskUnits="userSpaceOnUse" x="10" y="0" width="85" height="74">
<path d="M94.3286 0H10.3577V73.3814H94.3286V0Z" fill="white"/>
</mask>
<g mask="url(#mask3_436_21)">
<path d="M92.5425 73.3359H12.2215C12.1067 73.3359 11.9938 73.326 11.8809 73.3022C11.768 73.2804 11.6591 73.2468 11.5522 73.2032C11.4472 73.1596 11.3462 73.1062 11.2511 73.0408C11.1561 72.9774 11.0669 72.9042 10.9857 72.8249C10.9045 72.7437 10.8313 72.6546 10.7699 72.5596C10.7065 72.4645 10.653 72.3635 10.6075 72.2566C10.5639 72.1516 10.5302 72.0427 10.5085 71.9298C10.4867 71.8169 10.4748 71.704 10.4748 71.5891V8.7298C10.4748 8.44462 10.4906 8.15745 10.5184 7.87425C10.5481 7.58907 10.5877 7.30784 10.6451 7.02662C10.7006 6.74738 10.7699 6.47012 10.8531 6.19681C10.9362 5.92351 11.0333 5.65417 11.1422 5.39077C11.2531 5.12737 11.3739 4.86793 11.5086 4.61642C11.6433 4.3649 11.7898 4.11933 11.9482 3.88167C12.1067 3.64402 12.277 3.41429 12.4592 3.19446C12.6414 2.97463 12.8315 2.76272 13.0335 2.56072C13.2355 2.35871 13.4474 2.16661 13.6693 1.98441C13.8891 1.80221 14.1188 1.63189 14.3565 1.47345C14.5941 1.31502 14.8397 1.16846 15.0912 1.03379C15.3447 0.899122 15.6022 0.776335 15.8656 0.66741C16.129 0.558486 16.3983 0.461444 16.6716 0.378265C16.9449 0.295086 17.2222 0.22379 17.5014 0.168338C17.7826 0.112885 18.0639 0.071296 18.349 0.0415894C18.6342 0.0138631 18.9194 0 19.2046 0H85.5574C85.8426 0 86.1278 0.0138631 86.413 0.0415894C86.6982 0.071296 86.9794 0.112885 87.2606 0.168338C87.5418 0.22379 87.8171 0.295086 88.0924 0.378265C88.3657 0.461444 88.6331 0.558486 88.8985 0.66741C89.1619 0.776335 89.4213 0.899122 89.6728 1.03379C89.9243 1.16846 90.1699 1.31502 90.4076 1.47345C90.6452 1.63189 90.873 1.80221 91.0948 1.98441C91.3146 2.16661 91.5265 2.35871 91.7285 2.56072C91.9305 2.76272 92.1226 2.97463 92.3028 3.19446C92.485 3.41429 92.6554 3.646 92.8138 3.88167C92.9722 4.11735 93.1208 4.3649 93.2535 4.61642C93.3881 4.86793 93.5109 5.12539 93.6199 5.39077C93.7288 5.65417 93.8258 5.92351 93.909 6.19681C93.9922 6.47012 94.0615 6.74738 94.1169 7.02662C94.1744 7.30784 94.216 7.58907 94.2437 7.87425C94.2734 8.15745 94.2853 8.44462 94.2873 8.7298V71.5891C94.2873 71.704 94.2754 71.8169 94.2536 71.9298C94.2318 72.0427 94.1981 72.1516 94.1546 72.2566C94.111 72.3635 94.0575 72.4645 93.9922 72.5596C93.9288 72.6546 93.8575 72.7437 93.7763 72.8249C93.6951 72.9061 93.608 72.9774 93.5109 73.0408C93.4159 73.1042 93.3149 73.1577 93.2099 73.2032C93.103 73.2468 92.994 73.2804 92.8811 73.3022C92.7682 73.324 92.6554 73.3359 92.5405 73.3359H92.5425ZM13.9683 69.8444H90.7957V8.7298C90.7957 8.5575 90.7878 8.38719 90.772 8.21687C90.7541 8.04655 90.7304 7.87623 90.6967 7.70789C90.663 7.53956 90.6214 7.3732 90.57 7.20882C90.5204 7.04444 90.463 6.88205 90.3977 6.72361C90.3323 6.56518 90.259 6.4107 90.1778 6.26019C90.0966 6.10769 90.0095 5.96114 89.9124 5.81855C89.8174 5.67596 89.7164 5.53931 89.6055 5.40662C89.4966 5.27393 89.3817 5.14718 89.2609 5.02637C89.1401 4.90556 89.0114 4.7907 88.8787 4.68177C88.746 4.57285 88.6093 4.47185 88.4667 4.3748C88.3241 4.27974 88.1776 4.19062 88.0271 4.1114C87.8746 4.03021 87.7201 3.95693 87.5617 3.89158C87.4032 3.82622 87.2428 3.76879 87.0784 3.7173C86.9141 3.66778 86.7477 3.6262 86.5794 3.59253C86.411 3.55886 86.2407 3.53311 86.0704 3.51727C85.9001 3.50143 85.7278 3.49152 85.5574 3.49152H19.2066C19.0363 3.49152 18.864 3.50143 18.6936 3.51727C18.5233 3.53311 18.353 3.55886 18.1847 3.59253C18.0163 3.6262 17.85 3.66778 17.6856 3.7173C17.5212 3.76681 17.3608 3.82424 17.2024 3.89158C17.0439 3.95693 16.8895 4.03021 16.737 4.1114C16.5864 4.1926 16.4379 4.27974 16.2973 4.3748C16.1547 4.46987 16.0161 4.57285 15.8854 4.68177C15.7527 4.7907 15.6259 4.90556 15.5031 5.02637C15.3823 5.14718 15.2675 5.27591 15.1585 5.40662C15.0496 5.53931 14.9466 5.67596 14.8516 5.81855C14.7565 5.96114 14.6674 6.10769 14.5882 6.26019C14.507 6.41268 14.4337 6.56716 14.3683 6.72361C14.303 6.88205 14.2456 7.04246 14.1941 7.20882C14.1426 7.3732 14.103 7.53956 14.0693 7.70789C14.0356 7.87623 14.0099 8.04655 13.9921 8.21687C13.9762 8.38719 13.9683 8.5575 13.9683 8.7298V69.8424V69.8444Z" fill="#00C9FF"/>
</g>
<path d="M27.936 10.4767C27.936 10.7064 27.9143 10.9322 27.8687 11.1579C27.8251 11.3837 27.7578 11.6016 27.6707 11.8135C27.5835 12.0254 27.4746 12.2274 27.3479 12.4175C27.2191 12.6076 27.0746 12.7839 26.9141 12.9463C26.7517 13.1087 26.5755 13.2532 26.3854 13.38C26.1952 13.5067 25.9932 13.6137 25.7813 13.7028C25.5694 13.7899 25.3516 13.8573 25.1258 13.9009C24.9 13.9464 24.6743 13.9682 24.4445 13.9682C24.2148 13.9682 23.987 13.9464 23.7633 13.9009C23.5375 13.8573 23.3216 13.7899 23.1077 13.7028C22.8958 13.6137 22.6958 13.5067 22.5037 13.38C22.3136 13.2513 22.1373 13.1067 21.9749 12.9463C21.8125 12.7839 21.6679 12.6076 21.5412 12.4175C21.4125 12.2274 21.3055 12.0254 21.2184 11.8135C21.1312 11.6016 21.0639 11.3837 21.0184 11.1579C20.9748 10.9322 20.951 10.7064 20.951 10.4767C20.951 10.2469 20.9728 10.0192 21.0184 9.79539C21.0639 9.56962 21.1293 9.35177 21.2184 9.13986C21.3075 8.92795 21.4125 8.72793 21.5412 8.53582C21.6679 8.3457 21.8145 8.16944 21.9749 8.00704C22.1373 7.84465 22.3136 7.70008 22.5037 7.57333C22.6938 7.4446 22.8958 7.33765 23.1077 7.25051C23.3196 7.16338 23.5375 7.09604 23.7633 7.05049C23.989 7.00494 24.2148 6.98315 24.4445 6.98315C24.6743 6.98315 24.9 7.00494 25.1258 7.05049C25.3516 7.09604 25.5694 7.16139 25.7813 7.25051C25.9932 7.33765 26.1952 7.4446 26.3854 7.57333C26.5755 7.70008 26.7517 7.84465 26.9141 8.00704C27.0765 8.16944 27.2211 8.3457 27.3479 8.53582C27.4746 8.72595 27.5835 8.92795 27.6707 9.13986C27.7578 9.35177 27.8251 9.56962 27.8687 9.79539C27.9143 10.0212 27.936 10.2469 27.936 10.4767Z" fill="#00C9FF"/>
<path d="M36.668 10.4767C36.668 10.7064 36.6462 10.9322 36.6006 11.1579C36.5571 11.3837 36.4897 11.6016 36.4026 11.8135C36.3155 12.0254 36.2065 12.2274 36.0798 12.4175C35.9511 12.6076 35.8065 12.7839 35.6461 12.9463C35.4837 13.1087 35.3074 13.2532 35.1173 13.38C34.9272 13.5067 34.7252 13.6137 34.5133 13.7028C34.3014 13.7899 34.0835 13.8573 33.8577 13.9009C33.632 13.9464 33.4062 13.9682 33.1765 13.9682C32.9467 13.9682 32.719 13.9464 32.4952 13.9009C32.2694 13.8573 32.0535 13.7899 31.8397 13.7028C31.6278 13.6137 31.4277 13.5067 31.2356 13.38C31.0455 13.2513 30.8692 13.1067 30.7068 12.9463C30.5444 12.7839 30.3999 12.6076 30.2731 12.4175C30.1444 12.2274 30.0375 12.0254 29.9503 11.8135C29.8632 11.6016 29.7958 11.3837 29.7503 11.1579C29.7067 10.9322 29.683 10.7064 29.683 10.4767C29.683 10.2469 29.7047 10.0192 29.7503 9.79539C29.7958 9.56962 29.8612 9.35177 29.9503 9.13986C30.0394 8.92795 30.1444 8.72793 30.2731 8.53582C30.3999 8.3457 30.5464 8.16944 30.7068 8.00704C30.8692 7.84465 31.0455 7.70008 31.2356 7.57333C31.4257 7.4446 31.6278 7.33765 31.8397 7.25051C32.0516 7.16338 32.2694 7.09604 32.4952 7.05049C32.721 7.00692 32.9467 6.98315 33.1765 6.98315C33.4062 6.98315 33.632 7.00494 33.8577 7.05049C34.0835 7.09406 34.3014 7.16139 34.5133 7.25051C34.7252 7.33765 34.9272 7.4446 35.1173 7.57333C35.3074 7.70008 35.4837 7.84465 35.6461 8.00704C35.8085 8.16944 35.953 8.3457 36.0798 8.53582C36.2065 8.72595 36.3155 8.92795 36.4026 9.13986C36.4897 9.35177 36.5571 9.56962 36.6006 9.79539C36.6462 10.0212 36.668 10.2469 36.668 10.4767Z" fill="#00C9FF"/>
<path d="M45.3978 10.4767C45.3978 10.7064 45.3761 10.9322 45.3305 11.1579C45.2869 11.3837 45.2196 11.6016 45.1325 11.8135C45.0453 12.0254 44.9364 12.2274 44.8096 12.4175C44.6809 12.6076 44.5363 12.7839 44.3759 12.9463C44.2135 13.1087 44.0373 13.2532 43.8472 13.38C43.657 13.5067 43.455 13.6137 43.2431 13.7028C43.0312 13.7899 42.8134 13.8573 42.5876 13.9009C42.3618 13.9464 42.136 13.9682 41.9063 13.9682C41.6766 13.9682 41.4488 13.9464 41.225 13.9009C40.9993 13.8573 40.7834 13.7899 40.5695 13.7028C40.3576 13.6137 40.1576 13.5067 39.9655 13.38C39.7754 13.2513 39.5991 13.1067 39.4367 12.9463C39.2743 12.7839 39.1297 12.6076 39.003 12.4175C38.8743 12.2274 38.7673 12.0254 38.6802 11.8135C38.593 11.6016 38.5257 11.3837 38.4801 11.1579C38.4366 10.9322 38.4128 10.7064 38.4128 10.4767C38.4128 10.2469 38.4346 10.0192 38.4801 9.79539C38.5257 9.56962 38.591 9.35177 38.6802 9.13986C38.7693 8.92795 38.8743 8.72793 39.003 8.53582C39.1297 8.3457 39.2763 8.16944 39.4367 8.00704C39.5991 7.84465 39.7754 7.70008 39.9655 7.57333C40.1556 7.4446 40.3576 7.33765 40.5695 7.25051C40.7814 7.16338 40.9993 7.09604 41.225 7.05049C41.4508 7.00494 41.6766 6.98315 41.9063 6.98315C42.136 6.98315 42.3618 7.00494 42.5876 7.05049C42.8134 7.09604 43.0312 7.16139 43.2431 7.25051C43.455 7.33765 43.657 7.4446 43.8472 7.57333C44.0373 7.70008 44.2135 7.84465 44.3759 8.00704C44.5383 8.16944 44.6829 8.3457 44.8096 8.53582C44.9364 8.72595 45.0453 8.92795 45.1325 9.13986C45.2196 9.35177 45.2869 9.56962 45.3305 9.79539C45.3761 10.0212 45.3978 10.2469 45.3978 10.4767Z" fill="#00C9FF"/>
<mask id="mask4_436_21" style="mask-type:luminance" maskUnits="userSpaceOnUse" x="10" y="0" width="85" height="22">
<path d="M94.3286 0H10.3577V21.0977H94.3286V0Z" fill="white"/>
</mask>
<g mask="url(#mask4_436_21)">
<path d="M92.5425 20.9531H12.2215C12.1067 20.9531 11.9938 20.9432 11.8809 20.9194C11.768 20.8977 11.6591 20.864 11.5522 20.8204C11.4472 20.7769 11.3462 20.7234 11.2511 20.658C11.1561 20.5947 11.0669 20.5214 10.9857 20.4422C10.9045 20.361 10.8313 20.2738 10.7699 20.1768C10.7065 20.0817 10.653 19.9807 10.6075 19.8738C10.5639 19.7688 10.5302 19.6599 10.5085 19.547C10.4867 19.4341 10.4748 19.3212 10.4748 19.2064V8.7298C10.4748 8.44462 10.4906 8.15746 10.5184 7.87425C10.5481 7.58907 10.5877 7.30784 10.6451 7.02662C10.7006 6.74738 10.7699 6.47012 10.8531 6.19681C10.9362 5.92351 11.0333 5.65417 11.1422 5.39077C11.2531 5.12737 11.3739 4.86794 11.5086 4.61642C11.6433 4.3649 11.7898 4.11933 11.9482 3.88167C12.1067 3.64402 12.277 3.41429 12.4592 3.19446C12.6414 2.97463 12.8315 2.76272 13.0335 2.56072C13.2355 2.35871 13.4474 2.16661 13.6693 1.98441C13.8891 1.80221 14.1188 1.63189 14.3565 1.47345C14.5941 1.31502 14.8397 1.16846 15.0912 1.03379C15.3447 0.899122 15.6022 0.776335 15.8656 0.66741C16.129 0.558486 16.3983 0.461444 16.6716 0.378265C16.9449 0.295086 17.2222 0.22379 17.5014 0.168338C17.7826 0.112885 18.0639 0.071296 18.349 0.0415894C18.6342 0.0138631 18.9194 0 19.2046 0H85.5574C85.8426 0 86.1278 0.0138631 86.413 0.0415894C86.6982 0.071296 86.9794 0.112885 87.2606 0.168338C87.5418 0.22379 87.8171 0.295086 88.0924 0.378265C88.3657 0.461444 88.6331 0.558486 88.8985 0.66741C89.1619 0.776335 89.4213 0.899122 89.6728 1.03379C89.9243 1.16846 90.1699 1.31502 90.4076 1.47345C90.6452 1.63189 90.873 1.80221 91.0948 1.98441C91.3146 2.16661 91.5265 2.35871 91.7285 2.56072C91.9305 2.76272 92.1226 2.97463 92.3028 3.19446C92.485 3.41429 92.6554 3.646 92.8138 3.88167C92.9722 4.11735 93.1208 4.3649 93.2535 4.61642C93.3881 4.86794 93.5109 5.12539 93.6199 5.39077C93.7288 5.65417 93.8258 5.92351 93.909 6.19681C93.9922 6.47012 94.0615 6.74738 94.1169 7.02662C94.1744 7.30784 94.216 7.58907 94.2437 7.87425C94.2734 8.15746 94.2853 8.44462 94.2873 8.7298V19.2064C94.2873 19.3212 94.2754 19.4341 94.2536 19.547C94.2318 19.6599 94.1981 19.7688 94.1546 19.8738C94.111 19.9807 94.0575 20.0817 93.9922 20.1768C93.9288 20.2718 93.8575 20.361 93.7763 20.4422C93.6951 20.5234 93.608 20.5947 93.5109 20.658C93.4159 20.7214 93.3149 20.7749 93.2099 20.8204C93.103 20.864 92.994 20.8977 92.8811 20.9194C92.7682 20.9412 92.6554 20.9531 92.5405 20.9531H92.5425ZM13.9683 17.4616H90.7957V8.73178C90.7957 8.55949 90.7878 8.38917 90.772 8.21885C90.7541 8.04853 90.7304 7.87821 90.6967 7.70988C90.663 7.54154 90.6214 7.37518 90.57 7.2108C90.5204 7.04643 90.463 6.88403 90.3977 6.72559C90.3323 6.56716 90.259 6.41268 90.1778 6.26217C90.0966 6.10967 90.0095 5.96312 89.9124 5.82053C89.8174 5.67794 89.7164 5.54129 89.6055 5.4086C89.4966 5.27591 89.3817 5.14916 89.2609 5.02835C89.1401 4.90754 89.0114 4.79268 88.8787 4.68375C88.746 4.57483 88.6093 4.47383 88.4667 4.37678C88.3241 4.28172 88.1776 4.1926 88.0271 4.11339C87.8746 4.03219 87.7201 3.95891 87.5617 3.89356C87.4032 3.8282 87.2428 3.77077 87.0784 3.71928C86.9141 3.66977 86.7477 3.62818 86.5794 3.59451C86.411 3.56084 86.2407 3.5351 86.0704 3.51925C85.9001 3.50341 85.7278 3.49351 85.5574 3.49351H19.2066C19.0363 3.49351 18.864 3.50341 18.6936 3.51925C18.5233 3.5351 18.353 3.56084 18.1847 3.59451C18.0163 3.62818 17.85 3.66977 17.6856 3.71928C17.5212 3.76879 17.3608 3.82622 17.2024 3.89356C17.0439 3.95891 16.8895 4.03219 16.737 4.11339C16.5864 4.19458 16.4379 4.28172 16.2973 4.37678C16.1547 4.47185 16.0161 4.57483 15.8854 4.68375C15.7527 4.79268 15.6259 4.90754 15.5031 5.02835C15.3823 5.14916 15.2675 5.27789 15.1585 5.4086C15.0496 5.54129 14.9466 5.67794 14.8516 5.82053C14.7565 5.96312 14.6674 6.10967 14.5882 6.26217C14.507 6.41466 14.4337 6.56914 14.3683 6.72559C14.303 6.88403 14.2456 7.04445 14.1941 7.2108C14.1426 7.37518 14.103 7.54154 14.0693 7.70988C14.0356 7.87821 14.0099 8.04853 13.9921 8.21885C13.9762 8.38917 13.9683 8.55949 13.9683 8.73178V17.4616Z" fill="#00C9FF"/>
</g>
<path d="M83.8125 12.2215H73.3359C73.2211 12.2215 73.1082 12.2116 72.9953 12.1879C72.8824 12.1641 72.7735 12.1324 72.6665 12.0888C72.5616 12.0453 72.4606 11.9918 72.3655 11.9264C72.2704 11.8631 72.1813 11.7898 72.1001 11.7106C72.0189 11.6294 71.9457 11.5422 71.8843 11.4452C71.8209 11.3501 71.7674 11.2491 71.7219 11.1422C71.6783 11.0372 71.6446 10.9283 71.6228 10.8154C71.6011 10.7025 71.5892 10.5896 71.5892 10.4748C71.5892 10.3599 71.6011 10.245 71.6228 10.1341C71.6446 10.0232 71.6783 9.91431 71.7219 9.80737C71.7654 9.70043 71.8189 9.6014 71.8843 9.50436C71.9476 9.4093 72.0209 9.32018 72.1001 9.24096C72.1793 9.16174 72.2685 9.08649 72.3655 9.02311C72.4606 8.95974 72.5616 8.90627 72.6665 8.8627C72.7735 8.81913 72.8824 8.78546 72.9953 8.7617C73.1082 8.73991 73.2211 8.72803 73.3359 8.72803H83.8125C83.9273 8.72803 84.0402 8.73991 84.1531 8.7617C84.266 8.78348 84.3749 8.81715 84.4819 8.8627C84.5868 8.90627 84.6878 8.95974 84.7829 9.02311C84.878 9.08649 84.9671 9.15976 85.0483 9.24096C85.1295 9.32216 85.2028 9.4093 85.2641 9.50436C85.3275 9.59942 85.381 9.70043 85.4265 9.80737C85.4701 9.91431 85.5038 10.0213 85.5256 10.1341C85.5474 10.247 85.5592 10.3599 85.5592 10.4748C85.5592 10.5896 85.5474 10.7025 85.5256 10.8154C85.5038 10.9283 85.4701 11.0372 85.4265 11.1422C85.383 11.2491 85.3295 11.3501 85.2641 11.4452C85.2008 11.5403 85.1295 11.6294 85.0483 11.7106C84.9671 11.7918 84.8799 11.8631 84.7829 11.9264C84.6878 11.9898 84.5868 12.0433 84.4819 12.0888C84.3749 12.1324 84.266 12.1661 84.1531 12.1879C84.0402 12.2097 83.9273 12.2215 83.8125 12.2215Z" fill="#00C9FF"/>
<path d="M68.0977 12.2215H64.6042C64.4894 12.2215 64.3765 12.2116 64.2636 12.1879C64.1507 12.1641 64.0418 12.1324 63.9348 12.0888C63.8299 12.0453 63.7289 11.9918 63.6338 11.9264C63.5388 11.8631 63.4496 11.7898 63.3684 11.7106C63.2872 11.6294 63.214 11.5422 63.1526 11.4452C63.0892 11.3501 63.0357 11.2491 62.9902 11.1422C62.9466 11.0372 62.9129 10.9283 62.8911 10.8154C62.8694 10.7025 62.8575 10.5896 62.8575 10.4748C62.8575 10.3599 62.8694 10.245 62.8911 10.1341C62.9129 10.0213 62.9466 9.91431 62.9902 9.80737C63.0337 9.70043 63.0872 9.6014 63.1526 9.50436C63.2159 9.4093 63.2892 9.32018 63.3684 9.24096C63.4477 9.16174 63.5368 9.08649 63.6338 9.02311C63.7289 8.95974 63.8299 8.90627 63.9348 8.8627C64.0418 8.81913 64.1507 8.78546 64.2636 8.7617C64.3765 8.73991 64.4894 8.72803 64.6042 8.72803H68.0977C68.2126 8.72803 68.3255 8.73991 68.4384 8.7617C68.5513 8.78348 68.6602 8.81715 68.7671 8.8627C68.8721 8.90627 68.9731 8.95974 69.0682 9.02311C69.1632 9.08649 69.2523 9.15976 69.3335 9.24096C69.4147 9.32216 69.488 9.4093 69.5494 9.50436C69.6128 9.59942 69.6663 9.70043 69.7118 9.80737C69.7554 9.91431 69.789 10.0213 69.8108 10.1341C69.8326 10.247 69.8445 10.3599 69.8445 10.4748C69.8445 10.5896 69.8326 10.7025 69.8108 10.8154C69.789 10.9283 69.7554 11.0372 69.7118 11.1422C69.6682 11.2491 69.6148 11.3501 69.5494 11.4452C69.486 11.5403 69.4128 11.6294 69.3335 11.7106C69.2523 11.7918 69.1652 11.8631 69.0682 11.9264C68.9731 11.9898 68.8721 12.0433 68.7671 12.0888C68.6602 12.1324 68.5513 12.1661 68.4384 12.1879C68.3255 12.2097 68.2126 12.2215 68.0977 12.2215Z" fill="#00C9FF"/>
<path d="M78.5743 62.8592H26.1915C26.0192 62.8592 25.8489 62.8493 25.6786 62.8334C25.5082 62.8176 25.3379 62.7918 25.1696 62.7582C25.0013 62.7245 24.8349 62.6829 24.6705 62.6334C24.5061 62.5839 24.3457 62.5264 24.1873 62.4591C24.0289 62.3937 23.8744 62.3205 23.7239 62.2393C23.5714 62.1581 23.4248 62.0709 23.2822 61.9759C23.1396 61.8808 23.001 61.7778 22.8703 61.6689C22.7376 61.56 22.6109 61.4451 22.49 61.3243C22.3692 61.2035 22.2524 61.0748 22.1454 60.9441C22.0365 60.8114 21.9335 60.6747 21.8385 60.5321C21.7434 60.3895 21.6543 60.243 21.5751 60.0905C21.4939 59.938 21.4206 59.7835 21.3553 59.6271C21.2899 59.4686 21.2325 59.3082 21.181 59.1419C21.1315 58.9775 21.0899 58.8111 21.0562 58.6428C21.0225 58.4744 20.9968 58.3061 20.9809 58.1338C20.9631 57.9635 20.9552 57.7932 20.9552 57.6209V33.1762C20.9552 33.0059 20.9631 32.8336 20.9809 32.6633C20.9968 32.493 21.0225 32.3227 21.0562 32.1543C21.0899 31.986 21.1315 31.8196 21.181 31.6553C21.2305 31.4909 21.2879 31.3285 21.3553 31.172C21.4206 31.0136 21.4939 30.8591 21.5751 30.7066C21.6563 30.5541 21.7434 30.4076 21.8385 30.267C21.9335 30.1244 22.0345 29.9857 22.1454 29.8531C22.2544 29.7204 22.3692 29.5936 22.49 29.4728C22.6109 29.352 22.7376 29.2371 22.8703 29.1282C23.003 29.0193 23.1396 28.9183 23.2822 28.8212C23.4248 28.7262 23.5714 28.639 23.7239 28.5578C23.8744 28.4766 24.0308 28.4034 24.1873 28.338C24.3457 28.2727 24.5061 28.2152 24.6705 28.1637C24.8349 28.1142 25.0013 28.0726 25.1696 28.039C25.3379 28.0053 25.5063 27.9795 25.6786 27.9637C25.8489 27.9479 26.0192 27.9399 26.1915 27.9399H78.5743C78.7446 27.9399 78.9169 27.9479 79.0872 27.9637C79.2575 27.9795 79.4279 28.0053 79.5962 28.039C79.7645 28.0726 79.9309 28.1142 80.0953 28.1637C80.2596 28.2152 80.4201 28.2727 80.5785 28.338C80.7369 28.4034 80.8914 28.4766 81.0439 28.5578C81.1944 28.639 81.3429 28.7262 81.4836 28.8212C81.6261 28.9163 81.7648 29.0193 81.8955 29.1282C82.0282 29.2371 82.1549 29.352 82.2777 29.4728C82.3985 29.5936 82.5134 29.7223 82.6223 29.8531C82.7312 29.9857 82.8342 30.1224 82.9293 30.267C83.0243 30.4096 83.1135 30.5561 83.1927 30.7066C83.2739 30.8591 83.3472 31.0136 83.4125 31.172C83.4779 31.3305 83.5353 31.4909 83.5868 31.6553C83.6383 31.8196 83.6779 31.986 83.7116 32.1543C83.7452 32.3227 83.771 32.493 83.7888 32.6633C83.8046 32.8336 83.8126 33.0059 83.8126 33.1762V57.6209C83.8126 57.7932 83.8046 57.9635 83.7888 58.1338C83.771 58.3041 83.7472 58.4744 83.7116 58.6428C83.6779 58.8111 83.6363 58.9775 83.5868 59.1419C83.5373 59.3062 83.4798 59.4686 83.4125 59.6271C83.3472 59.7855 83.2739 59.94 83.1927 60.0905C83.1115 60.243 83.0243 60.3895 82.9293 60.5321C82.8342 60.6747 82.7332 60.8114 82.6223 60.9441C82.5134 61.0768 82.3985 61.2035 82.2777 61.3243C82.1569 61.4451 82.0282 61.56 81.8955 61.6689C81.7628 61.7778 81.6261 61.8788 81.4836 61.9759C81.341 62.0709 81.1944 62.1601 81.0439 62.2393C80.8914 62.3205 80.7369 62.3937 80.5785 62.4591C80.4201 62.5245 80.2596 62.5819 80.0953 62.6334C79.9309 62.6829 79.7645 62.7245 79.5962 62.7582C79.4279 62.7918 79.2595 62.8176 79.0872 62.8334C78.9169 62.8493 78.7466 62.8592 78.5743 62.8592ZM26.1915 31.4295C26.0766 31.4295 25.9618 31.4414 25.8509 31.4632C25.738 31.4849 25.6291 31.5186 25.5241 31.5622C25.4171 31.6057 25.3181 31.6592 25.2211 31.7246C25.126 31.7879 25.0369 31.8592 24.9577 31.9404C24.8765 32.0216 24.8032 32.1088 24.7398 32.2058C24.6765 32.3009 24.623 32.4019 24.5794 32.5068C24.5358 32.6138 24.5022 32.7227 24.4784 32.8356C24.4566 32.9485 24.4447 33.0614 24.4447 33.1762V57.6209C24.4447 57.7357 24.4566 57.8486 24.4784 57.9615C24.5002 58.0744 24.5339 58.1833 24.5794 58.2903C24.623 58.3972 24.6765 58.4962 24.7398 58.5933C24.8032 58.6883 24.8765 58.7775 24.9577 58.8567C25.0389 58.9379 25.126 59.0112 25.2211 59.0745C25.3161 59.1379 25.4171 59.1914 25.5241 59.2349C25.6291 59.2785 25.738 59.3122 25.8509 59.334C25.9637 59.3557 26.0766 59.3676 26.1915 59.3676H78.5743C78.6891 59.3676 78.802 59.3557 78.9149 59.334C79.0278 59.3122 79.1367 59.2785 79.2417 59.2349C79.3486 59.1914 79.4496 59.1379 79.5447 59.0745C79.6398 59.0112 79.7289 58.9379 79.8101 58.8567C79.8913 58.7755 79.9626 58.6883 80.0259 58.5933C80.0893 58.4982 80.1428 58.3972 80.1883 58.2903C80.2319 58.1833 80.2656 58.0744 80.2874 57.9615C80.3092 57.8486 80.321 57.7357 80.321 57.6209V33.1762C80.321 33.0614 80.3111 32.9485 80.2874 32.8356C80.2636 32.7227 80.2319 32.6138 80.1883 32.5068C80.1448 32.4019 80.0913 32.3009 80.0259 32.2058C79.9626 32.1108 79.8893 32.0216 79.8101 31.9404C79.7289 31.8592 79.6398 31.786 79.5447 31.7246C79.4496 31.6612 79.3486 31.6077 79.2417 31.5622C79.1367 31.5186 79.0278 31.4849 78.9149 31.4632C78.802 31.4414 78.6891 31.4295 78.5743 31.4295H26.1915Z" fill="#00C9FF"/>
<path d="M41.9061 54.1295C41.4981 54.1295 41.1337 54.0007 40.8149 53.7472L32.0851 46.7622C31.9821 46.679 31.891 46.5879 31.8078 46.485C31.7266 46.382 31.6573 46.2711 31.5999 46.1542C31.5424 46.0374 31.5009 45.9146 31.4712 45.7859C31.4414 45.6571 31.4276 45.5284 31.4276 45.3977C31.4276 45.267 31.4414 45.1363 31.4712 45.0095C31.5009 44.8828 31.5424 44.76 31.5999 44.6412C31.6573 44.5243 31.7266 44.4134 31.8078 44.3104C31.891 44.2074 31.9821 44.1163 32.0851 44.0351L40.8149 37.0501C40.904 36.9788 40.9991 36.9154 41.1021 36.8639C41.205 36.8105 41.31 36.7689 41.4189 36.7372C41.5298 36.7055 41.6407 36.6837 41.7556 36.6738C41.8685 36.6639 41.9834 36.6659 42.0982 36.6778C42.2111 36.6897 42.324 36.7134 42.4329 36.7491C42.5418 36.7827 42.6468 36.8283 42.7478 36.8838C42.8488 36.9392 42.9419 37.0026 43.029 37.0759C43.1182 37.1511 43.1974 37.2323 43.2687 37.3214C43.34 37.4105 43.4033 37.5076 43.4548 37.6086C43.5083 37.7116 43.5499 37.8165 43.5836 37.9274C43.6152 38.0364 43.637 38.1493 43.645 38.2641C43.6549 38.379 43.6529 38.4939 43.641 38.6067C43.6291 38.7216 43.6053 38.8325 43.5697 38.9414C43.536 39.0504 43.4905 39.1553 43.435 39.2563C43.3796 39.3573 43.3162 39.4504 43.2429 39.5395C43.1677 39.6267 43.0865 39.7059 42.9973 39.7772L35.9687 45.3997L42.9954 51.0202C43.136 51.1331 43.2568 51.2638 43.3578 51.4143C43.4588 51.5648 43.534 51.7272 43.5836 51.9015C43.6331 52.0758 43.6549 52.252 43.6509 52.4322C43.645 52.6144 43.6133 52.7887 43.5538 52.961C43.4944 53.1313 43.4113 53.2898 43.3004 53.4343C43.1914 53.5789 43.0647 53.7037 42.9161 53.8086C42.7696 53.9136 42.6072 53.9928 42.4349 54.0483C42.2626 54.1037 42.0863 54.1314 41.9061 54.1314V54.1295Z" fill="#00C9FF"/>
<path d="M62.8593 54.1296C62.6791 54.1296 62.5028 54.1019 62.3285 54.0464C62.1562 53.991 61.9958 53.9118 61.8493 53.8068C61.7027 53.7018 61.572 53.5771 61.465 53.4325C61.3561 53.2879 61.271 53.1295 61.2116 52.9592C61.1521 52.7889 61.1205 52.6126 61.1145 52.4324C61.1086 52.2522 61.1304 52.0739 61.1799 51.8996C61.2314 51.7254 61.3066 51.563 61.4056 51.4124C61.5047 51.2619 61.6255 51.1292 61.7681 51.0183L68.7967 45.3978L61.77 39.7753C61.6809 39.7041 61.5997 39.6248 61.5264 39.5377C61.4512 39.4506 61.3878 39.3555 61.3324 39.2545C61.2769 39.1535 61.2314 39.0485 61.1977 38.9396C61.164 38.8307 61.1403 38.7198 61.1284 38.6049C61.1145 38.492 61.1145 38.3772 61.1224 38.2623C61.1323 38.1494 61.1541 38.0365 61.1858 37.9256C61.2175 37.8147 61.2611 37.7097 61.3126 37.6087C61.366 37.5058 61.4274 37.4127 61.4987 37.3216C61.57 37.2325 61.6512 37.1513 61.7383 37.076C61.8255 37.0027 61.9206 36.9374 62.0216 36.8819C62.1226 36.8265 62.2275 36.7809 62.3364 36.7472C62.4454 36.7116 62.5563 36.6878 62.6711 36.676C62.784 36.6641 62.8989 36.6621 63.0118 36.672C63.1266 36.6819 63.2395 36.7017 63.3485 36.7334C63.4574 36.7651 63.5643 36.8086 63.6653 36.8601C63.7683 36.9136 63.8614 36.975 63.9525 37.0463L72.6823 44.0313C72.7853 44.1125 72.8764 44.2056 72.9576 44.3066C73.0388 44.4096 73.1101 44.5205 73.1655 44.6373C73.223 44.7562 73.2645 44.879 73.2943 45.0057C73.324 45.1344 73.3378 45.2632 73.3378 45.3939C73.3378 45.5246 73.324 45.6533 73.2943 45.782C73.2645 45.9108 73.223 46.0336 73.1655 46.1504C73.1081 46.2692 73.0388 46.3782 72.9576 46.4811C72.8764 46.5841 72.7833 46.6752 72.6823 46.7584L63.9525 53.7434C63.6336 53.9989 63.2692 54.1257 62.8593 54.1257V54.1296Z" fill="#00C9FF"/>
<path d="M48.8894 54.1295C48.8141 54.1295 48.7428 54.1235 48.6675 54.1156C48.5943 54.1057 48.523 54.0919 48.4497 54.074C48.3784 54.0562 48.3091 54.0324 48.2398 54.0047C48.1705 53.977 48.1051 53.9453 48.0397 53.9097C47.9744 53.874 47.913 53.8324 47.8536 53.7908C47.7942 53.7473 47.7387 53.6997 47.6852 53.6482C47.6318 53.5968 47.5803 53.5433 47.5347 53.4858C47.4892 53.4284 47.4456 53.369 47.406 53.3056C47.3664 53.2422 47.3307 53.1769 47.301 53.1096C47.2693 53.0422 47.2436 52.9729 47.2218 52.9016C47.2 52.8303 47.1822 52.759 47.1703 52.6857C47.1584 52.6125 47.1505 52.5392 47.1466 52.4659C47.1426 52.3907 47.1446 52.3194 47.1505 52.2441C47.1565 52.1688 47.1664 52.0976 47.1822 52.0243C47.1981 51.953 47.2179 51.8817 47.2416 51.8104C47.2654 51.7411 47.2951 51.6718 47.3288 51.6064L54.3138 37.6383C54.3653 37.5353 54.4247 37.4383 54.496 37.3492C54.5653 37.2581 54.6445 37.1749 54.7317 37.0996C54.8188 37.0244 54.9119 36.959 55.0109 36.9016C55.1099 36.8442 55.2149 36.7966 55.3238 36.761C55.4327 36.7253 55.5437 36.6996 55.6565 36.6837C55.7714 36.6699 55.8843 36.6659 55.9992 36.6738C56.114 36.6818 56.2269 36.7016 56.3358 36.7313C56.4467 36.761 56.5537 36.8026 56.6567 36.8521C56.7596 36.9036 56.8567 36.965 56.9458 37.0343C57.0349 37.1036 57.1201 37.1828 57.1953 37.27C57.2706 37.3571 57.336 37.4502 57.3934 37.5492C57.4508 37.6502 57.4964 37.7532 57.532 37.8621C57.5677 37.971 57.5934 38.0819 57.6093 38.1968C57.6231 38.3097 57.6271 38.4246 57.6192 38.5394C57.6112 38.6543 57.5914 38.7672 57.5617 38.8761C57.532 38.987 57.4924 39.0939 57.4409 39.1949L50.4559 53.163C50.3826 53.3076 50.2915 53.4423 50.1826 53.5611C50.0737 53.6799 49.9489 53.7829 49.8103 53.8681C49.6716 53.9532 49.5251 54.0186 49.3686 54.0622C49.2122 54.1057 49.0537 54.1275 48.8913 54.1275L48.8894 54.1295Z" fill="#00C9FF"/>
</svg>
