<svg width="248" height="32" viewBox="0 0 248 32" fill="none" xmlns="http://www.w3.org/2000/svg">
<g clip-path="url(#clip0_122_382)">
<path d="M44.28 0.549988H38.32V31.55H44.28V0.549988Z" fill="white"/>
<path d="M55.38 20.33V31.55H49.4V0.549988H59.74C62.84 0.549988 65.29 1.45999 67.11 3.28999C68.92 5.10999 69.83 7.49999 69.83 10.45C69.83 13.4 68.92 15.81 67.11 17.62C65.3 19.43 62.84 20.34 59.74 20.34H55.39L55.38 20.33ZM55.38 15.63H59.73C61.07 15.63 62.1 15.15 62.8 14.18C63.5 13.22 63.85 11.99 63.85 10.5C63.85 9.00999 63.5 7.72999 62.8 6.73999C62.1 5.74999 61.08 5.25999 59.73 5.25999H55.38V15.63Z" fill="white"/>
<path d="M72.96 26.17H67.06V31.56H72.96V26.17Z" fill="white"/>
<path d="M93.7 17.16H83.22V28.27H95.57V31.55H78.91V0.549988H95.47V3.86999H83.22V13.86H93.7V17.16Z" fill="white"/>
<path d="M104.2 28.27H116.7V31.55H99.89V0.549988H104.2V28.27Z" fill="white"/>
<path d="M135.64 17.16H125.15V28.27H137.5V31.55H120.84V0.549988H137.4V3.86999H125.15V13.86H135.64V17.16Z" fill="white"/>
<path d="M161.17 22.23L161.21 22.36C161.27 25.41 160.42 27.78 158.66 29.47C156.9 31.16 154.49 32 151.42 32C148.35 32 145.72 30.98 143.84 28.95C141.96 26.91 141.02 24.06 141.02 20.38V11.78C141.02 8.11999 141.95 5.25999 143.8 3.19999C145.65 1.13999 148.14 0.109985 151.27 0.109985C154.4 0.109985 156.89 0.929985 158.66 2.56999C160.43 4.20999 161.28 6.60999 161.23 9.75999L161.19 9.88999H157.05C157.05 7.67999 156.57 6.04998 155.61 4.99999C154.65 3.95999 153.21 3.43999 151.28 3.43999C149.35 3.43999 147.92 4.14999 146.89 5.57999C145.86 7.00998 145.34 9.05999 145.34 11.72V20.39C145.34 23.09 145.87 25.15 146.93 26.59C147.99 28.02 149.49 28.74 151.43 28.74C153.37 28.74 154.7 28.23 155.63 27.2C156.56 26.17 157.03 24.52 157.03 22.25H161.17V22.23Z" fill="white"/>
<path d="M183.76 3.86999H175.57V31.55H171.24V3.86999H163.11V0.549988H183.76V3.86999Z" fill="white"/>
<path d="M191.74 18.2V31.55H187.43V0.570007H196.54C199.51 0.570007 201.81 1.33001 203.43 2.85001C205.05 4.37001 205.86 6.55001 205.86 9.39001C205.86 11.01 205.48 12.42 204.72 13.64C203.96 14.85 202.88 15.79 201.46 16.46C203.05 17 204.19 17.89 204.89 19.14C205.59 20.39 205.94 21.94 205.94 23.78V26.48C205.94 27.43 206.03 28.32 206.22 29.14C206.4 29.96 206.73 30.6 207.19 31.06V31.55H202.76C202.28 31.08 201.97 30.37 201.82 29.41C201.67 28.45 201.6 27.46 201.6 26.44V23.82C201.6 22.09 201.2 20.72 200.4 19.71C199.6 18.7 198.49 18.2 197.08 18.2H191.75H191.74ZM191.74 14.9H196.32C198.1 14.9 199.42 14.43 200.27 13.48C201.12 12.54 201.54 11.2 201.54 9.47001C201.54 7.74001 201.13 6.32001 200.3 5.34001C199.47 4.36001 198.22 3.87001 196.53 3.87001H191.73V14.9H191.74Z" fill="white"/>
<path d="M216.29 0.549988H211.98V31.55H216.29V0.549988Z" fill="white"/>
<path d="M2.62999 6.35C5.48999 2.22 10.07 0 14.73 0C17.62 0 20.55 0.85 23.11 2.64C29.79 7.29 31.45 16.49 26.81 23.19C22.18 29.89 13 31.55 6.32999 26.9C6.25999 26.85 6.17999 26.79 6.10999 26.74L0.939994 30.62L0.299994 17.71C-6.31809e-06 16.25 -0.0800063 14.74 0.0799937 13.24C0.329994 10.84 1.15999 8.47 2.62999 6.34V6.35ZM15.81 21.54C18.17 17.9 19.42 13.98 19.96 10.24C19.52 10.1 19.16 9.74 19.05 9.26C18.98 8.93 19.03 8.6 19.17 8.33C17.02 6.87 14.72 5.72 12.3 4.85C12.17 5.1 11.96 5.32 11.69 5.45C11.29 5.64 10.85 5.61 10.49 5.42C8.39999 7.8 6.37999 10.55 4.75999 13.61C4.99999 13.78 5.17999 14.04 5.24999 14.35C5.34999 14.8 5.19999 15.24 4.88999 15.54C7.53999 18.67 10.5 20.72 13.81 22.03C13.99 21.7 14.31 21.44 14.71 21.35C15.1 21.26 15.5 21.35 15.81 21.56M21.58 9.49C21.69 9.23 21.73 8.94 21.66 8.65C21.55 8.16 21.18 7.79 20.73 7.66C20.77 6.97 20.8 6.28 20.8 5.58C20.8 3.99 20.71 2.51 20.56 1.21C20.38 1.13 20.2 1.06 20.02 0.99C20.27 3 20.37 5.25 20.22 7.61C20.16 7.61 20.1 7.62 20.05 7.64C19.84 7.69 19.64 7.79 19.49 7.92C18.9 7.52 18.3 7.14 17.68 6.78C16.04 5.82 14.29 5.02 12.43 4.34C12.45 4.11 12.41 3.88 12.31 3.66C12.29 3.61 12.26 3.56 12.23 3.52C13.51 2.21 14.78 1.05 15.97 0.05C15.72 0.03 15.47 0.01 15.23 0.01C14.14 0.94 13.01 1.99 11.88 3.15C11.5 2.88 10.99 2.82 10.55 3.03C10.3 3.15 10.11 3.33 9.97999 3.55C8.77999 3.21 7.51999 2.93 6.22999 2.7C6.03999 2.84 5.84999 2.98 5.65999 3.12C7.06999 3.36 8.44999 3.66 9.79999 4.04C9.75999 4.29 9.79999 4.56 9.90999 4.81C9.95999 4.91 10.02 5 10.09 5.08C8.71999 6.64 7.37999 8.36 6.17999 10.19C5.48999 11.25 4.84999 12.31 4.28999 13.38C4.11999 13.34 3.92999 13.34 3.73999 13.38C3.59999 13.41 3.47999 13.47 3.35999 13.54C2.51999 12.35 1.70999 11.02 0.939994 9.56C0.859994 9.78 0.779994 10 0.709994 10.22C1.42999 11.55 2.18999 12.78 2.98999 13.9C2.79999 14.18 2.71999 14.53 2.79999 14.89C2.85999 15.17 3.01999 15.4 3.21999 15.57C2.46999 17.25 1.87999 18.94 1.45999 20.62C1.03999 22.28 0.789994 23.95 0.689994 25.6L0.939994 30.61L1.36999 30.29C0.679994 25.09 1.72999 20.19 3.67999 15.81C3.87999 15.87 4.09999 15.88 4.30999 15.83C4.35999 15.82 4.40999 15.8 4.45999 15.79C6.25999 17.93 8.23999 19.63 10.46 20.93C11.49 21.54 12.56 22.05 13.66 22.49C13.64 22.65 13.64 22.82 13.68 22.99C13.75 23.32 13.94 23.59 14.18 23.78C12.83 25.44 11.21 27.02 9.26999 28.47C9.45999 28.54 9.64999 28.62 9.82999 28.68C11.19 27.64 12.43 26.51 13.54 25.3C13.92 24.88 14.29 24.45 14.64 24.01C14.86 24.07 15.1 24.08 15.33 24.03C15.73 23.94 16.04 23.68 16.23 23.35C19.26 24.2 22.45 24.54 25.62 24.67C25.77 24.51 25.91 24.34 26.05 24.17C22.56 24.05 19.35 23.68 16.39 22.86C16.41 22.7 16.41 22.53 16.37 22.36C16.33 22.19 16.26 22.04 16.17 21.9C17.46 19.93 18.49 17.78 19.25 15.48C19.8 13.82 20.2 12.08 20.46 10.28C20.52 10.28 20.59 10.27 20.65 10.25C20.9 10.19 21.12 10.06 21.29 9.89C24.12 12.21 26.66 15.16 28.85 18.87C28.92 18.64 28.98 18.41 29.03 18.18C28 16.49 26.89 14.93 25.7 13.52C24.44 12.03 23.06 10.67 21.58 9.46" fill="white"/>
<path d="M221.85 31.41H226.44V20.6L231.25 16.06L241.79 31.41H247.53L234.38 13.01L247.13 0.569999H241.4L226.44 15.53V0.529999H221.85V31.41Z" fill="white"/>
</g>
<defs>
<clipPath id="clip0_122_382">
<rect width="247.53" height="32" fill="white"/>
</clipPath>
</defs>
</svg>
