<svg width="90" height="90" viewBox="0 0 90 90" fill="none" xmlns="http://www.w3.org/2000/svg">
<g clip-path="url(#clip0_529_322)">
<path d="M47.364 39.3419L49.2153 37.4907C42.5716 32.4567 33.0408 32.9695 26.9864 39.0238C20.3724 45.6379 20.3724 56.3994 26.9864 63.0152C33.6005 69.6293 44.3621 69.6293 50.9761 63.0152C57.0305 56.9609 57.5433 47.4283 52.511 40.7864L50.6598 42.6376C54.6942 48.2487 54.1902 56.1404 49.1457 61.1831C43.5416 66.7873 34.4227 66.7873 28.8186 61.1831C23.2144 55.579 23.2127 46.4583 28.8186 40.8542C33.8612 35.8115 41.7529 35.3057 47.3658 39.3419H47.364Z" fill="white"/>
<path d="M57.0461 29.6599C46.0673 20.3602 29.5521 20.8886 19.2025 31.2399C8.29668 42.1458 8.29668 59.8916 19.2025 70.7992C30.1083 81.705 47.8542 81.705 58.76 70.7992C69.1113 60.4479 69.6398 43.9344 60.3401 32.9556L58.5028 34.7929C66.796 44.7549 66.2693 59.6274 56.9279 68.9688C47.032 78.8647 30.9288 78.8647 21.0311 68.9688C11.1352 59.0729 11.1335 42.968 21.0311 33.0721C30.3725 23.7307 45.2451 23.2057 55.207 31.4989L57.0444 29.6616L57.0461 29.6599Z" fill="white"/>
<path d="M66.3093 26.9864C78.8821 41.2627 78.3502 63.1178 64.7136 76.7527C50.5242 90.942 27.4366 90.942 13.2473 76.7527C-0.942135 62.5633 -0.942135 39.474 13.2473 25.2863C26.8839 11.6497 48.739 11.1196 63.0136 23.6906L64.8474 21.8568C57.7101 15.5087 48.6121 12.0374 38.9804 12.0374C28.5683 12.0374 18.7801 16.091 11.4169 23.4542C4.05362 30.8175 0 40.6056 0 51.0195C0 61.4334 4.05362 71.2198 11.4169 78.583C18.7784 85.9446 28.5683 89.9999 38.9804 89.9999C49.3926 89.9999 59.1807 85.9463 66.544 78.583C73.9072 71.2198 77.9608 61.4299 77.9608 51.0195C77.9608 41.3878 74.4895 32.288 68.1414 25.1525L66.3076 26.9864H66.3093Z" fill="white"/>
<path d="M82.1292 7.87083V0L75.0145 7.11469L73.0294 15.1402L57.8249 30.3448L55.991 32.1786L41.2315 46.9382C39.4602 45.9613 37.1883 46.222 35.6864 47.7238C33.8665 49.5438 33.8665 52.4954 35.6864 54.3136C37.5064 56.1318 40.458 56.1335 42.2762 54.3136C43.778 52.8117 44.0405 50.5381 43.0619 48.7685L74.8581 16.9723L82.8853 14.9873L90 7.87257H82.1292V7.87083Z" fill="white"/>
</g>
<defs>
<clipPath id="clip0_529_322">
<rect width="90" height="90" fill="white"/>
</clipPath>
</defs>
</svg>
