<svg width="88" height="121" viewBox="0 0 88 121" fill="none" xmlns="http://www.w3.org/2000/svg">
<path d="M35.8216 30.7364C35.2861 30.7364 34.7474 30.7627 34.2152 30.8151C33.6798 30.8675 33.151 30.9462 32.6221 31.0478C32.0966 31.1527 31.5744 31.2806 31.062 31.4379C30.5464 31.5919 30.044 31.7722 29.5449 31.9754C29.0491 32.1787 28.5666 32.4081 28.0906 32.6572C27.6147 32.9096 27.1552 33.1817 26.709 33.48C26.2628 33.7782 25.8298 34.0962 25.4167 34.4338C25.0002 34.7714 24.6036 35.1287 24.2235 35.5089C23.8434 35.8859 23.4864 36.2792 23.1427 36.6922C22.8022 37.1052 22.4816 37.5346 22.1841 37.9771C21.8867 38.4196 21.609 38.8785 21.3545 39.3473C21.1 39.8193 20.872 40.3011 20.667 40.7928C20.4621 41.2845 20.2803 41.786 20.125 42.2973C19.9696 42.8086 19.8374 43.3265 19.735 43.8477C19.6292 44.3689 19.5499 44.8966 19.497 45.4276C19.4441 45.9586 19.421 46.4896 19.421 47.0239C19.421 47.5582 19.4474 48.0892 19.497 48.6202C19.5499 49.1512 19.6292 49.6789 19.735 50.2001C19.8374 50.7246 19.9696 51.2392 20.125 51.7505C20.2803 52.2619 20.4621 52.7634 20.667 53.255C20.872 53.7467 21.1 54.2286 21.3545 54.7006C21.609 55.1693 21.8834 55.6282 22.1841 56.0707C22.4849 56.5132 22.8022 56.9426 23.1427 57.3556C23.4831 57.7686 23.8434 58.1619 24.2235 58.5389C24.6036 58.9158 25.0002 59.2731 25.4167 59.614C25.8331 59.9516 26.2628 60.2696 26.709 60.5679C27.1552 60.8629 27.6147 61.1382 28.0906 61.3906C28.5633 61.643 29.0491 61.8692 29.5449 62.0724C30.044 62.2756 30.5464 62.4559 31.062 62.6132C31.5744 62.7673 32.0933 62.8951 32.6221 63C33.1477 63.1049 33.6798 63.1836 34.2152 63.236C34.7474 63.2884 35.2861 63.3114 35.8216 63.3114C36.357 63.3114 36.8925 63.2852 37.4279 63.236C37.9634 63.1836 38.4922 63.1049 39.0211 63C39.5466 62.8951 40.0688 62.7673 40.5812 62.6132C41.0968 62.4592 41.5992 62.2789 42.0983 62.0724C42.594 61.8692 43.0766 61.6397 43.5526 61.3906C44.0252 61.1382 44.4846 60.8661 44.9309 60.5679C45.3771 60.2696 45.8101 59.9516 46.2232 59.614C46.6397 59.2764 47.0363 58.9191 47.4164 58.5389C47.7965 58.1619 48.1535 57.7686 48.4972 57.3556C48.8377 56.9426 49.1583 56.5165 49.4557 56.0707C49.7565 55.6282 50.0309 55.1693 50.2854 54.7006C50.5399 54.2286 50.7679 53.7467 50.9728 53.255C51.1778 52.7601 51.3596 52.2586 51.5149 51.7505C51.6703 51.2392 51.8025 50.7246 51.9049 50.2001C52.0107 49.6789 52.09 49.1512 52.1429 48.6202C52.1958 48.0892 52.2189 47.5582 52.2189 47.0239C52.2189 46.4896 52.1925 45.9586 52.1396 45.4276C52.0867 44.8999 52.0074 44.3722 51.9016 43.8477C51.7959 43.3233 51.667 42.8086 51.5116 42.2973C51.3563 41.786 51.1745 41.2845 50.9662 40.7928C50.7613 40.2978 50.5332 39.8193 50.2787 39.3473C50.0242 38.8753 49.7499 38.4196 49.4524 37.9771C49.1517 37.5346 48.8344 37.1052 48.4939 36.6955C48.1535 36.2825 47.7932 35.8892 47.4131 35.5122C47.033 35.1353 46.6364 34.778 46.2232 34.4404C45.8067 34.0995 45.3771 33.7815 44.9309 33.4865C44.4846 33.1882 44.0252 32.9162 43.5526 32.6638C43.0799 32.4114 42.594 32.1852 42.0983 31.9787C41.6025 31.7722 41.0968 31.5952 40.5845 31.4379C40.0688 31.2838 39.5499 31.156 39.0244 31.0478C38.4988 30.9429 37.9667 30.8643 37.4346 30.8118C36.9024 30.7594 36.3637 30.7332 35.8282 30.7332L35.8216 30.7364ZM46.3257 38.3803C44.5838 38.8523 42.8155 39.1965 41.0241 39.4194C40.3134 37.338 39.302 35.4139 37.9799 33.6504C38.7897 33.7815 39.583 33.9815 40.3564 34.2503C41.1298 34.519 41.8735 34.8566 42.5841 35.2631C43.2948 35.6663 43.9657 36.1317 44.5937 36.6529C45.2217 37.1773 45.7968 37.751 46.3224 38.3803H46.3257ZM35.6167 59.4403C34.4235 57.8964 33.5046 56.2051 32.8634 54.3662C34.6978 54.2515 36.5355 54.2515 38.3699 54.3662C37.7353 56.2084 36.8165 57.8997 35.6167 59.4403ZM32.1032 51.6424C31.8884 50.6131 31.7495 49.5741 31.69 48.5252H39.5929C39.54 49.5806 39.4012 50.623 39.1797 51.6555C36.8198 51.4719 34.4631 51.4654 32.1032 51.6424ZM38.2179 39.6521C36.5025 39.7472 34.7837 39.7472 33.0683 39.6521C33.6963 37.987 34.5557 36.4431 35.6431 35.0304C36.7372 36.4398 37.5965 37.9837 38.2179 39.6521ZM35.5869 42.5104C36.7008 42.5104 37.8576 42.5104 39.0707 42.3727C39.3318 43.5003 39.5069 44.6377 39.5929 45.7915H31.7033C31.7694 44.6409 31.9346 43.5068 32.199 42.3858C33.26 42.4809 34.3739 42.5366 35.5605 42.5366L35.5869 42.5104ZM28.9797 45.7652H22.2469C22.3957 44.0772 22.8551 42.4776 23.6252 40.9665C25.5423 41.4844 27.4891 41.8613 29.4623 42.1006C29.2012 43.3167 29.0293 44.5492 28.9533 45.7915L28.9797 45.7652ZM28.9797 48.4989C29.0392 49.6429 29.178 50.777 29.3929 51.9046C27.456 52.1439 25.5456 52.5175 23.6649 53.0256C22.9344 51.5997 22.475 50.0919 22.2866 48.4989H28.9764H28.9797ZM42.3329 48.4989H49.4227C49.2112 50.2067 48.6889 51.8161 47.8527 53.3239C45.8795 52.7175 43.8666 52.2619 41.8239 51.957C42.0784 50.8229 42.2503 49.6789 42.3462 48.5252L42.3329 48.4989ZM42.3329 45.7652C42.2635 44.5229 42.0917 43.2905 41.8239 42.0744C43.9095 41.7696 45.9621 41.314 47.9783 40.7076C48.8079 42.2809 49.3037 43.9559 49.4657 45.7259L42.3329 45.7652ZM33.26 33.7029C31.9644 35.4499 30.9662 37.3511 30.2589 39.4063C28.5699 39.2129 26.9007 38.9211 25.2481 38.5311C25.7439 37.9149 26.2893 37.3478 26.8842 36.8266C27.4825 36.3054 28.1171 35.84 28.7979 35.4303C29.4788 35.0205 30.1861 34.6731 30.9265 34.3879C31.6636 34.1028 32.4271 33.8831 33.2038 33.7291L33.26 33.7029ZM25.1952 55.4872C26.7983 55.1365 28.4211 54.871 30.0539 54.694C30.6952 56.6968 31.6107 58.5651 32.8072 60.2991C31.3 59.9516 29.8953 59.3616 28.5864 58.5356C27.2808 57.7096 26.1471 56.6935 25.1919 55.484L25.1952 55.4872ZM38.3402 60.3253C39.5731 58.5913 40.5184 56.7131 41.1761 54.6907C42.9147 54.9235 44.6301 55.2709 46.3257 55.7298C45.3043 56.9328 44.1079 57.9292 42.7362 58.7192C41.3645 59.5091 39.9003 60.0434 38.3402 60.3253Z" fill="#00C9FF"/>
<path d="M42.3462 88.7964H29.7499C29.5284 88.7964 29.3103 88.8193 29.0921 88.8619C28.874 88.9045 28.6657 88.9668 28.4608 89.0521C28.2559 89.1373 28.0609 89.2389 27.8758 89.3602C27.6907 89.4815 27.5221 89.6224 27.3635 89.7765C27.2048 89.9305 27.066 90.101 26.9437 90.2845C26.8181 90.4681 26.7156 90.6615 26.6297 90.8647C26.5438 91.0679 26.481 91.2777 26.438 91.494C26.395 91.7104 26.3719 91.9267 26.3719 92.1463C26.3719 92.3659 26.395 92.5823 26.438 92.7986C26.481 93.0149 26.5438 93.2247 26.6297 93.4279C26.7156 93.6312 26.8181 93.8246 26.9437 94.0081C27.066 94.1917 27.2048 94.3588 27.3635 94.5162C27.5221 94.6735 27.6907 94.8112 27.8758 94.9325C28.0609 95.057 28.2559 95.1586 28.4608 95.2406C28.6657 95.3258 28.8773 95.3881 29.0921 95.4307C29.3103 95.4733 29.5284 95.4962 29.7499 95.4962H42.3462C42.5676 95.4962 42.7857 95.4733 43.0039 95.4307C43.222 95.3881 43.4303 95.3258 43.6352 95.2406C43.8401 95.1554 44.0351 95.0537 44.2202 94.9325C44.4053 94.8112 44.5739 94.6702 44.7325 94.5162C44.8912 94.3621 45.03 94.1917 45.1523 94.0081C45.2779 93.8246 45.3804 93.6312 45.4663 93.4279C45.5522 93.2247 45.615 93.0149 45.658 92.7986C45.701 92.5823 45.7241 92.3659 45.7241 92.1463C45.7241 91.9267 45.701 91.7071 45.658 91.494C45.615 91.2777 45.5522 91.0679 45.4663 90.8647C45.3804 90.6615 45.2779 90.4681 45.1523 90.2845C45.03 90.101 44.8912 89.9338 44.7325 89.7765C44.5739 89.6191 44.4053 89.4815 44.2202 89.3602C44.0351 89.2356 43.8401 89.134 43.6352 89.0521C43.4303 88.9668 43.2187 88.9045 43.0039 88.8619C42.7857 88.8193 42.5676 88.7964 42.3462 88.7964ZM42.3462 92.7625H29.7499C29.6672 92.7625 29.5879 92.7462 29.5119 92.7134C29.4359 92.6839 29.3697 92.638 29.3103 92.579C29.2508 92.5233 29.2078 92.4544 29.1747 92.379C29.145 92.3036 29.1285 92.225 29.1285 92.1463C29.1285 92.0644 29.1483 91.9857 29.178 91.9136C29.2111 91.8382 29.2541 91.7726 29.3136 91.7169C29.3731 91.6612 29.4392 91.6153 29.5119 91.5825C29.5879 91.5498 29.6639 91.5334 29.7465 91.5301H42.3428C42.4255 91.5301 42.5048 91.5465 42.5808 91.5793C42.6568 91.6088 42.7229 91.6546 42.7824 91.7136C42.8419 91.7694 42.8849 91.8382 42.918 91.9136C42.9477 91.989 42.9642 92.0677 42.9642 92.1496C42.9642 92.2315 42.9477 92.3069 42.918 92.3823C42.8882 92.4577 42.8419 92.5265 42.7824 92.5823C42.7229 92.6413 42.6568 92.6839 42.5808 92.7167C42.5048 92.7494 42.4255 92.7658 42.3428 92.7658L42.3462 92.7625Z" fill="#00C9FF"/>
<path d="M83.9526 96.6993C83.8303 96.3551 83.513 95.5357 83.1428 94.5917C82.6338 93.2248 81.6687 90.7927 81.5464 90.1765C81.5464 87.741 81.672 85.2696 81.7811 82.8604C82.0785 78.4878 82.105 74.1119 81.8637 69.7327C81.3811 65.2782 80.3598 60.9482 78.8063 56.7427L76.5224 49.7675C76.1952 48.735 76.0299 47.6763 76.0266 46.5946V28.147C76.0266 27.7668 75.8878 27.4423 75.6135 27.1768C75.3391 26.908 75.0086 26.7769 74.6219 26.7802C73.8485 26.79 73.0816 26.8752 72.3247 27.0391C71.5678 27.1997 70.8341 27.4357 70.1267 27.7439C69.4161 28.052 68.7451 28.4256 68.1138 28.8682C67.4792 29.3107 66.8942 29.8089 66.3621 30.3661V3.18645C66.3654 2.97339 66.3488 2.76689 66.3092 2.55711C66.2728 2.35061 66.21 2.15066 66.1307 1.95399C66.0514 1.7606 65.9522 1.57376 65.8332 1.39676C65.7175 1.22304 65.582 1.05914 65.4333 0.911643C65.2846 0.764141 65.1193 0.633029 64.9408 0.515027C64.7623 0.400304 64.5772 0.301969 64.3789 0.223301C64.1839 0.144634 63.979 0.085633 63.7708 0.049577C63.5625 0.013521 63.351 -0.00286809 63.1395 0.000409727H9.02925C8.82102 0.000409727 8.6194 0.0200766 8.41447 0.0626883C8.21285 0.102022 8.01454 0.161023 7.82283 0.23969C7.63113 0.318358 7.45265 0.416693 7.27747 0.531416C7.10559 0.64614 6.94694 0.773975 6.80151 0.921477C6.65608 1.0657 6.52718 1.22631 6.41149 1.39676C6.29581 1.56721 6.19996 1.74749 6.12063 1.9376C6.0413 2.12771 5.98181 2.32438 5.94215 2.52433C5.90248 2.72428 5.88265 2.9275 5.88265 3.134V28.6059H4.43495C4.15731 28.6059 3.87967 28.6322 3.60534 28.6879C3.331 28.7403 3.06658 28.8223 2.80877 28.9272C2.55096 29.032 2.30637 29.1632 2.07501 29.3172C1.84364 29.4713 1.6288 29.645 1.43048 29.8384C1.23217 30.0351 1.05699 30.2448 0.901645 30.4776C0.746298 30.707 0.617393 30.9496 0.50832 31.2052C0.399247 31.4609 0.319921 31.7231 0.263732 31.9952C0.207543 32.264 0.181101 32.5393 0.177795 32.8179V38.7803C0.181101 39.1605 0.233985 39.5309 0.336447 39.8915C0.43891 40.2553 0.590951 40.5995 0.785961 40.924C0.980971 41.2452 1.21895 41.5402 1.49328 41.7991C1.76762 42.0581 2.07501 42.281 2.40884 42.4613C2.07501 42.6416 1.77092 42.8612 1.49659 43.1234C1.22225 43.3856 0.987581 43.6773 0.795877 44.0018C0.600867 44.3231 0.452131 44.6672 0.349668 45.0311C0.247206 45.3949 0.194322 45.7653 0.194322 46.1423V52.1046C0.197627 52.4816 0.250511 52.852 0.352974 53.2158C0.455436 53.5764 0.604172 53.9205 0.799182 54.245C0.994192 54.5663 1.22886 54.8613 1.49989 55.1202C1.77092 55.3792 2.07501 55.602 2.41214 55.7823C2.07831 55.9626 1.77423 56.1822 1.49989 56.4444C1.22556 56.7067 0.990886 56.9984 0.799182 57.3229C0.604172 57.6441 0.455436 57.9883 0.352974 58.3521C0.250511 58.7127 0.197627 59.0831 0.194322 59.4633V65.4257C0.197627 65.8026 0.250511 66.1763 0.349668 66.5401C0.452131 66.904 0.600867 67.2481 0.795877 67.5726C0.990886 67.8971 1.22556 68.1921 1.49659 68.4511C1.77092 68.7133 2.07501 68.9362 2.40884 69.1165C2.0717 69.2968 1.76762 69.5164 1.48998 69.7753C1.21564 70.0376 0.977665 70.3293 0.782656 70.6505C0.587646 70.975 0.435605 71.3192 0.336447 71.683C0.233985 72.0469 0.181101 72.4173 0.177795 72.7975V78.7467C0.177795 79.0221 0.207543 79.2974 0.263732 79.5695C0.319921 79.8415 0.399247 80.1037 0.50832 80.3594C0.614088 80.6151 0.746298 80.8576 0.901645 81.0871C1.05699 81.3165 1.23547 81.5296 1.43048 81.7262C1.6288 81.9229 1.84033 82.0966 2.07501 82.2507C2.30637 82.4048 2.55096 82.5326 2.80877 82.6375C3.06658 82.7424 3.331 82.8243 3.60534 82.8768C3.87967 82.9292 4.15401 82.9554 4.43495 82.9554H5.88265V96.0274C5.88265 96.2306 5.90248 96.4338 5.94215 96.637C5.98181 96.837 6.0413 97.0337 6.12063 97.2238C6.19996 97.4139 6.29581 97.5942 6.41149 97.7646C6.52718 97.9351 6.65608 98.0924 6.80151 98.2366C6.94694 98.3808 7.10559 98.512 7.27747 98.6267C7.44934 98.7414 7.63113 98.8397 7.81953 98.9184C8.01123 98.9971 8.20624 99.0593 8.40786 99.0987C8.60948 99.138 8.81441 99.161 9.02264 99.161H33.3228C35.9637 102.265 38.7203 104.809 43.5393 105.317L47.0065 118.975C47.0429 119.126 47.1057 119.27 47.1949 119.398C47.2809 119.529 47.3866 119.641 47.5122 119.736C47.6378 119.831 47.7767 119.903 47.9254 119.949C48.0741 119.998 48.2295 120.018 48.3848 120.014H48.6757L86.7026 112.138C87.0926 112.059 87.3901 111.846 87.5983 111.509C87.8131 111.174 87.8627 110.82 87.7503 110.44L83.9493 96.7124L83.9526 96.6993ZM8.64584 3.18645C8.63592 3.13073 8.63923 3.075 8.65906 3.01928C8.67559 2.96356 8.69872 2.91439 8.73508 2.87178C8.77144 2.82917 8.81441 2.79639 8.86729 2.77017C8.92018 2.74722 8.97306 2.73411 9.02925 2.73083H63.1328C63.2419 2.73411 63.3345 2.77672 63.4105 2.85211C63.4865 2.9275 63.5262 3.01928 63.5295 3.12745V35.1648C63.2551 36.1842 63.1229 37.2266 63.1295 38.2821L62.8816 59.5322L61.8107 60.3778V8.5424C61.8107 8.34246 61.7909 8.14251 61.7546 7.94256C61.7149 7.74589 61.6554 7.5525 61.5794 7.36567C61.5034 7.17883 61.4075 7.00183 61.2951 6.83466C61.1827 6.66421 61.0538 6.51016 60.9117 6.36921C60.7696 6.22499 60.6109 6.09715 60.4424 5.98571C60.2738 5.87426 60.0953 5.7792 59.9102 5.70381C59.7218 5.62515 59.5268 5.56614 59.3285 5.52681C59.1302 5.48748 58.9286 5.46781 58.7236 5.46781H13.6566C13.455 5.46781 13.2534 5.48748 13.055 5.52681C12.8567 5.56614 12.665 5.62515 12.4766 5.70054C12.2882 5.77593 12.113 5.87098 11.9445 5.98243C11.7759 6.09387 11.6206 6.21843 11.4784 6.36265C11.3363 6.5036 11.2074 6.66094 11.095 6.8281C10.9826 6.99527 10.8901 7.17228 10.8108 7.35583C10.7315 7.53939 10.6753 7.73278 10.6356 7.92945C10.5959 8.12612 10.5761 8.32607 10.5761 8.52602V28.8321L10.0407 28.7075H9.71013C9.36969 28.6879 9.03255 28.6879 8.69211 28.7075L8.65245 3.17989L8.64584 3.18645ZM53.1807 85.3908H13.6566C13.564 85.3908 13.4847 85.3581 13.4219 85.2958C13.3591 85.2335 13.3261 85.1548 13.3261 85.0631V81.287L13.8086 80.8511C14.4862 80.1758 15.0117 79.3957 15.3819 78.5173C15.7521 77.6388 15.9405 76.721 15.9438 75.7639V74.6429C15.9438 74.5478 15.9438 74.2758 15.848 74.0824C15.7521 73.8923 15.6695 73.8365 15.643 73.8365C15.6166 73.8365 15.5472 73.5219 15.491 73.358C15.4513 73.2465 15.4051 73.1384 15.3522 73.0302C15.3522 72.8925 15.2266 72.7418 15.1605 72.6074L14.982 72.2796L14.8167 71.8272C14.7341 71.7191 14.6647 71.6076 14.5986 71.4995L14.2416 71.1028L13.9937 70.8013L13.65 70.4702L13.4451 70.2801V67.9693C13.6103 67.8185 13.7756 67.6808 13.9276 67.5169C14.6151 66.8482 15.144 66.0714 15.5141 65.1897C15.8843 64.3079 16.0661 63.3869 16.0595 62.4297V61.3087C16.0595 61.2268 16.0595 60.9416 15.9637 60.7613C15.8678 60.5843 15.8942 60.5417 15.8678 60.4303C15.8414 60.3221 15.772 60.1156 15.7158 59.9517C15.6761 59.8403 15.6298 59.7321 15.5769 59.6239C15.5769 59.4863 15.4513 59.3355 15.3852 59.2011L15.2068 58.87L14.82 58.4865L14.6019 58.1719L14.311 57.8178C14.2284 57.7228 14.1458 57.6113 14.0631 57.5294C13.9805 57.4475 13.8285 57.2967 13.7194 57.1885L13.4451 56.9427V54.6843L13.9276 54.2483C14.6118 53.5764 15.1373 52.7995 15.5075 51.9178C15.8777 51.036 16.0628 50.1183 16.0628 49.1611V48.0401C16.0628 47.9582 16.0628 47.673 15.967 47.4927C15.8711 47.3157 15.8976 47.2731 15.8711 47.1649C15.8447 47.0568 15.7753 46.8503 15.7191 46.6864C15.6794 46.5749 15.6331 46.4635 15.5802 46.3586C15.5241 46.2144 15.4613 46.0701 15.3885 45.9325L15.2101 45.6047L14.8233 45.113C14.744 45.0147 14.6713 44.9098 14.6052 44.7984L14.3143 44.4542L14.0664 44.1526L13.7227 43.8248L13.4484 43.579V41.3075C13.6202 41.1731 13.7789 41.0289 13.9309 40.8715C14.6184 40.1996 15.1473 39.426 15.5174 38.5443C15.8876 37.6625 16.0694 36.7415 16.0661 35.7844V34.6633C16.0661 34.5781 16.0661 34.2929 15.9703 34.1028C15.8744 33.9127 15.9009 33.8996 15.8744 33.7882C15.848 33.68 15.7786 33.4735 15.7224 33.3096C15.6827 33.1982 15.6364 33.0867 15.5836 32.9785C15.5274 32.8343 15.4646 32.6934 15.3919 32.5557L15.2134 32.2279L14.8267 31.8313C14.7473 31.7297 14.6746 31.6281 14.6085 31.5166L14.3176 31.1757L14.0698 30.8742L13.726 30.5464L13.4517 30.2973V8.5424C13.4451 8.45062 13.4781 8.37196 13.5442 8.3064C13.6103 8.24084 13.6896 8.21134 13.7822 8.21462H58.7468C58.8393 8.21462 58.9153 8.2474 58.9814 8.30968C59.0442 8.37524 59.0773 8.45062 59.0773 8.5424V63.0066C57.5536 64.7635 56.2844 66.6843 55.2664 68.769C54.2483 70.8537 53.5179 73.0368 53.075 75.3116C52.4734 78.6779 52.5131 82.0376 53.2006 85.3876L53.1807 85.3908ZM11.1777 45.408C11.485 45.6113 11.766 45.8473 12.0139 46.1193C12.2651 46.3914 12.4766 46.6864 12.6518 47.0109C12.827 47.3321 12.9592 47.673 13.0517 48.027C13.1443 48.3843 13.1873 48.7448 13.1906 49.112C13.1839 49.7052 13.0617 50.2756 12.8237 50.823C12.5857 51.3704 12.2486 51.8457 11.8123 52.2587C11.4024 52.6946 10.9199 53.0322 10.3646 53.2715C9.80929 53.5075 9.23417 53.6288 8.63262 53.6255H4.44487C4.24655 53.6255 4.05485 53.5927 3.87306 53.5173C3.69127 53.4452 3.52601 53.3371 3.38719 53.1994C3.24837 53.0617 3.1393 52.9011 3.06328 52.7208C2.98726 52.5373 2.9509 52.3472 2.9509 52.1538V46.1357C2.9509 45.939 2.98726 45.7489 3.06328 45.5686C3.1393 45.3851 3.24837 45.2245 3.38719 45.0868C3.52932 44.9491 3.69127 44.841 3.87306 44.7689C4.05816 44.6967 4.24986 44.6574 4.44487 44.6607H8.6855C9.59445 44.6541 10.4241 44.9065 11.1777 45.4146V45.408ZM11.1777 58.7258C11.485 58.929 11.766 59.165 12.0139 59.4371C12.2651 59.7059 12.4766 60.0042 12.6518 60.3287C12.827 60.6499 12.9592 60.9908 13.0517 61.3481C13.1443 61.7021 13.1873 62.0659 13.1906 62.433C13.1839 63.0296 13.0617 63.6032 12.8237 64.1506C12.5857 64.698 12.2486 65.1798 11.8123 65.5928C11.5974 65.7993 11.3694 65.9862 11.1248 66.1533C10.3679 66.6516 9.53826 66.8974 8.63262 66.8941H4.44487C4.24655 66.8941 4.05485 66.8613 3.87306 66.786C3.69127 66.7138 3.52601 66.6057 3.38719 66.468C3.24837 66.3303 3.1393 66.1697 3.06328 65.9894C2.98726 65.8059 2.9509 65.6158 2.9509 65.4224V59.46C2.9509 59.2634 2.98726 59.0732 3.06328 58.893C3.1393 58.7094 3.24837 58.5488 3.38719 58.4111C3.52932 58.2735 3.69127 58.1686 3.87306 58.0932C4.05816 58.0211 4.24986 57.985 4.44487 57.985H8.6855C9.60106 58.0014 10.434 58.2735 11.1777 58.8045V58.7356V58.7258ZM2.91785 32.7458C2.91785 32.5491 2.9542 32.359 3.03022 32.1788C3.10624 31.9985 3.21532 31.8379 3.35744 31.7002C3.49626 31.5592 3.66153 31.4544 3.84331 31.3822C4.02841 31.3069 4.22011 31.2708 4.41512 31.2741H8.65576C9.56139 31.2675 10.3943 31.5134 11.1479 32.0149C11.4553 32.2148 11.7362 32.4541 11.9841 32.7261C12.232 32.9982 12.4469 33.2932 12.6221 33.6177C12.7972 33.9422 12.9294 34.2798 13.022 34.6371C13.1145 34.9911 13.1575 35.355 13.1608 35.7221C13.1575 36.3186 13.0352 36.889 12.7972 37.4331C12.5593 37.9805 12.2221 38.4558 11.7858 38.8655C11.376 39.3047 10.8934 39.6391 10.3381 39.8783C9.78284 40.1143 9.20773 40.2323 8.60618 40.2323H4.44817C4.25317 40.2323 4.06146 40.1963 3.87967 40.1209C3.69458 40.0455 3.53262 39.9406 3.3938 39.803C3.25168 39.6653 3.1426 39.5047 3.06658 39.3244C2.99056 39.1441 2.9509 38.954 2.9509 38.7573L2.92446 32.7556L2.91785 32.7458ZM4.41843 80.1398C4.22011 80.1398 4.02841 80.107 3.84662 80.0316C3.66483 79.9562 3.49957 79.8513 3.36075 79.7137C3.21862 79.5727 3.10955 79.4154 3.03353 79.2318C2.95751 79.0516 2.92115 78.8614 2.92115 78.6648V72.7844C2.92115 72.5877 2.95751 72.3976 3.03353 72.2173C3.10955 72.037 3.21862 71.8764 3.36075 71.7387C3.49957 71.5978 3.66483 71.4929 3.84662 71.4208C4.03171 71.3454 4.22342 71.3093 4.41843 71.3126H8.65906C9.568 71.3061 10.3976 71.5585 11.1512 72.0665C11.4586 72.2665 11.7396 72.5058 11.9874 72.7778C12.2353 73.0499 12.4502 73.3449 12.6254 73.6694C12.8005 73.9906 12.9327 74.3315 13.0253 74.6888C13.1178 75.0428 13.1608 75.4066 13.1641 75.7737C13.1575 76.3703 13.0352 76.9406 12.7972 77.4848C12.5593 78.0289 12.2221 78.5074 11.7858 78.9172C11.571 79.1237 11.3429 79.3105 11.0983 79.4777C10.3447 79.9792 9.51512 80.225 8.60618 80.2152H4.44817L4.42173 80.1463L4.41843 80.1398ZM8.61609 95.9487V82.8768C8.95653 82.8964 9.29367 82.8964 9.63411 82.8768H9.97785L10.5001 82.7817V85.1352C10.5001 85.3351 10.5199 85.5351 10.5596 85.7317C10.5992 85.9284 10.6587 86.1185 10.7348 86.3054C10.8108 86.4922 10.9066 86.6659 11.019 86.8331C11.1314 87.0003 11.2603 87.1543 11.4024 87.2985C11.5445 87.4428 11.7032 87.5673 11.8685 87.6788C12.037 87.7902 12.2155 87.8853 12.4006 87.9607C12.589 88.036 12.7807 88.0951 12.979 88.1344C13.1773 88.1737 13.379 88.1934 13.5806 88.1934H53.8781C54.1293 89.0456 54.4268 89.8782 54.7739 90.6976C54.8301 90.8419 54.8829 90.9795 54.9391 91.1074L55.187 91.681L55.7093 92.7627C55.8349 93.0511 55.9836 93.3232 56.1092 93.5559C56.4959 94.2672 56.9487 95.0342 57.4842 95.7979C57.5503 95.8766 57.58 95.9684 57.5668 96.07C57.5866 96.1355 57.5866 96.1978 57.5668 96.2601C57.5338 96.3322 57.4809 96.3879 57.4148 96.4273C57.3487 96.4666 57.2726 96.483 57.1966 96.4797H9.02925C8.96975 96.4797 8.91687 96.4633 8.86068 96.4404C8.8078 96.4174 8.76483 96.3814 8.72517 96.3355C8.68881 96.2896 8.66237 96.2404 8.64915 96.1847C8.63262 96.129 8.63262 96.0733 8.64253 96.0143L8.61609 95.9454V95.9487ZM49.3698 116.966L46.3157 105.015C46.5802 104.75 46.7124 104.432 46.7124 104.058C46.7124 103.878 46.6793 103.701 46.6099 103.534C46.5405 103.366 46.438 103.219 46.3091 103.091C46.1802 102.963 46.0315 102.865 45.8629 102.796C45.6944 102.727 45.5192 102.691 45.3374 102.691C44.5607 102.717 43.7872 102.658 43.0237 102.514C42.2602 102.37 41.5198 102.147 40.8059 101.839C40.092 101.534 39.421 101.154 38.7897 100.698C38.1617 100.243 37.5899 99.728 37.0743 99.1479H57.1206C57.4082 99.1479 57.6924 99.1118 57.97 99.0364C58.2477 98.961 58.5121 98.8496 58.76 98.6988C59.0079 98.5513 59.2293 98.3743 59.431 98.1678C59.6293 97.958 59.7978 97.7286 59.9334 97.4762C60.0689 97.2238 60.168 96.9583 60.2308 96.6764C60.2936 96.3978 60.3168 96.1126 60.3035 95.8274C60.287 95.5423 60.2341 95.2636 60.1449 94.9916C60.0523 94.7195 59.9268 94.4639 59.7648 94.2279L59.6128 93.982C59.4475 93.7231 59.269 93.4477 59.117 93.1888C58.9649 92.9298 58.717 92.507 58.5385 92.1661C58.4096 91.9563 58.2973 91.7433 58.1948 91.5237C57.8246 90.7993 57.5073 90.0453 57.2065 89.2947L56.9586 88.6359C56.8198 88.2393 56.7107 87.8558 56.5885 87.4592C56.4629 87.0625 56.3538 86.7774 56.2711 86.4201V86.1579C55.3787 82.7555 55.2399 79.3236 55.8448 75.8622C56.2513 73.7415 56.9355 71.7092 57.9006 69.7753C58.8658 67.8381 60.0755 66.0681 61.5298 64.4587C62.604 63.2754 63.8038 62.2331 65.1226 61.3284L65.701 60.9187L65.8927 38.2886C65.8993 37.5347 66.0051 36.7972 66.21 36.0728L66.3191 35.827V35.745C66.4348 35.3615 66.5802 34.9878 66.7488 34.624C66.9207 34.2602 67.1124 33.9094 67.3305 33.5718C67.5487 33.2342 67.7899 32.913 68.051 32.6081C68.3155 32.3033 68.5964 32.0181 68.8972 31.7526C69.2013 31.4871 69.5186 31.2413 69.8557 31.0217C70.1928 30.7988 70.5399 30.6021 70.9035 30.4251C71.2671 30.2514 71.6405 30.1039 72.0273 29.9793C72.4107 29.8548 72.8007 29.7597 73.2006 29.6876V46.6307C73.2271 47.9877 73.4617 49.3119 73.9013 50.5968L76.1753 57.5818C77.666 61.5644 78.6444 65.6649 79.1071 69.8901C79.3649 74.1479 79.3649 78.4025 79.1071 82.6604C78.9815 85.0827 78.8724 87.5968 78.8592 90.0847C78.8592 90.6452 79.0939 91.4515 80.6507 95.5554C80.9944 96.4437 81.2985 97.1975 81.3811 97.4696L84.7822 109.666L49.3731 116.969L49.3698 116.966Z" fill="#00C9FF"/>
</svg>
