<svg width="104" height="80" viewBox="0 0 104 80" fill="none" xmlns="http://www.w3.org/2000/svg">
<g clip-path="url(#clip0_529_330)">
<path d="M51.5564 42.0103C45.3487 42.0103 40.2988 47.0798 40.2988 53.3115C40.2988 59.5433 45.3487 64.6128 51.5564 64.6128C57.7641 64.6128 62.8141 59.5433 62.8141 53.3115C62.8141 47.0798 57.7641 42.0103 51.5564 42.0103ZM51.5564 61.7476C46.922 61.7476 43.1529 57.9639 43.1529 53.3115C43.1529 48.6592 46.922 44.8755 51.5564 44.8755C56.1908 44.8755 59.9599 48.6592 59.9599 53.3115C59.9599 57.9639 56.1908 61.7476 51.5564 61.7476Z" fill="white"/>
<path d="M102.277 52.3641C102.046 52.1014 96.5033 45.849 87.4824 39.5108C82.1742 35.7804 76.7669 32.807 71.4091 30.6714C64.9141 28.0825 58.4738 26.728 52.2524 26.6336C52.0216 26.6267 51.789 26.625 51.5547 26.625C51.3204 26.625 51.0896 26.6284 50.857 26.6336C44.6356 26.728 38.1953 28.0825 31.7003 30.6714C26.3425 32.807 20.9335 35.7821 15.627 39.5108C6.60787 45.849 1.0654 52.0997 0.834534 52.3641L0 53.3117L0.834534 54.2593C1.0654 54.522 6.60787 60.7744 15.6287 67.1126C20.9369 70.843 26.3443 73.8164 31.702 75.952C38.197 78.5409 44.6373 79.8954 50.8587 79.9898C51.0896 79.9967 51.3221 79.9984 51.5564 79.9984C51.7907 79.9984 52.0216 79.995 52.2541 79.9898C58.4755 79.8954 64.9158 78.5409 71.4108 75.952C76.7686 73.8164 82.1777 70.8413 87.4841 67.1126C96.505 60.7744 102.046 54.522 102.278 54.2593L103.113 53.3117L102.278 52.3641H102.277ZM17.3234 64.807C10.5805 60.0756 5.74768 55.2911 3.85459 53.31C5.73913 51.3374 10.5394 46.5804 17.2653 41.8559C21.8672 38.6216 27.9278 35.0336 34.8589 32.558C28.8308 37.4542 24.9693 44.9374 24.9693 53.31C24.9693 61.6825 28.8308 69.1658 34.8589 74.0619C27.9518 71.595 21.9099 68.0241 17.3217 64.8053L17.3234 64.807ZM52.2302 77.1263C52.0062 77.1297 51.7822 77.1366 51.5564 77.1366C51.3307 77.1366 51.1084 77.1297 50.8826 77.1263C38.1064 76.7675 27.8235 66.2233 27.8235 53.3117C27.8235 40.4001 38.1064 29.8559 50.8826 29.4971C51.1067 29.4937 51.3307 29.4868 51.5564 29.4868C51.7822 29.4868 52.0045 29.4937 52.2302 29.4971C65.0064 29.8559 75.2893 40.4001 75.2893 53.3117C75.2893 66.2233 65.0064 76.7675 52.2302 77.1263ZM85.8475 64.7675C81.2456 68.0018 75.185 71.5881 68.2539 74.0653C74.2821 69.1692 78.1435 61.6859 78.1435 53.3134C78.1435 44.9409 74.2821 37.4576 68.2539 32.5615C75.1611 35.0284 81.2029 38.5992 85.7894 41.8181C92.5324 46.5495 97.3651 51.334 99.2582 53.3134C97.3737 55.2859 92.5734 60.043 85.8475 64.7675Z" fill="white"/>
<path d="M51.5564 19.5914C52.3447 19.5914 52.9826 18.9511 52.9826 18.1597V1.43176C52.9826 0.640343 52.343 0 51.5564 0C50.7697 0 50.1301 0.640343 50.1301 1.43176V18.1579C50.1301 18.9494 50.7697 19.5897 51.5564 19.5897V19.5914Z" fill="white"/>
<path d="M24.1143 26.0514C24.393 26.3312 24.7573 26.4703 25.1233 26.4703C25.4892 26.4703 25.8535 26.3312 26.1322 26.0514C26.6897 25.4917 26.6897 24.5853 26.1322 24.0256L14.3513 12.199C13.7938 11.6394 12.8908 11.6394 12.3333 12.199C11.7758 12.7587 11.7758 13.6651 12.3333 14.2248L24.1143 26.0514Z" fill="white"/>
<path d="M77.9896 26.4703C78.3556 26.4703 78.7198 26.3312 78.9986 26.0514L90.7795 14.2248C91.337 13.6651 91.337 12.7587 90.7795 12.199C90.222 11.6394 89.3191 11.6394 88.7616 12.199L76.9806 24.0256C76.4231 24.5853 76.4231 25.4917 76.9806 26.0514C77.2594 26.3312 77.6236 26.4703 77.9896 26.4703Z" fill="white"/>
</g>
<defs>
<clipPath id="clip0_529_330">
<rect width="103.111" height="80" fill="white"/>
</clipPath>
</defs>
</svg>
