<svg width="85" height="86" viewBox="0 0 85 86" fill="none" xmlns="http://www.w3.org/2000/svg">
<path fill-rule="evenodd" clip-rule="evenodd" d="M62.79 51.17C61.75 50.6 56.61 47.83 55.65 47.44C54.69 47.05 53.98 46.85 53.23 47.88C52.48 48.92 50.35 51.24 49.71 51.92C49.06 52.61 48.44 52.67 47.39 52.1C46.35 51.53 42.96 50.27 39.03 46.5C35.97 43.56 33.97 40 33.39 38.91C32.81 37.82 33.39 37.27 33.94 36.76C34.44 36.3 35.05 35.55 35.61 34.95C36.16 34.35 36.36 33.91 36.74 33.22C37.12 32.52 36.97 31.9 36.72 31.35C36.47 30.81 34.54 25.49 33.74 23.33C32.93 21.17 32.03 21.49 31.41 21.46C30.79 21.44 30.08 21.32 29.37 21.3C28.66 21.27 27.49 21.5 26.48 22.52C25.46 23.55 22.62 26.02 22.42 31.26C22.22 36.5 25.85 41.7 26.35 42.43C26.86 43.16 33.27 54.51 43.93 59.18C54.59 63.85 54.65 62.43 56.6 62.32C58.56 62.22 62.99 59.98 63.98 57.53C64.96 55.08 65.04 52.95 64.79 52.49C64.54 52.04 63.84 51.74 62.8 51.17H62.79ZM43.24 0C20.21 0 1.54 18.67 1.54 41.7C1.54 49.58 3.73 56.95 7.52 63.23L0 85.6L23.09 78.21C29.06 81.51 35.93 83.4 43.24 83.4C66.27 83.4 84.94 64.73 84.94 41.7C84.94 18.67 66.27 0 43.24 0Z" fill="#00C9FF"/>
</svg>
