<svg width="106" height="105" viewBox="0 0 106 105" fill="none" xmlns="http://www.w3.org/2000/svg">
<path d="M58.3254 102.352C58.225 102.352 58.1321 102.343 58.0318 102.336C52.0024 101.516 46.3557 98.9949 41.6956 95.0447L41.3946 94.7864C34.3525 88.7069 30.3112 79.8608 30.3112 70.5576C30.3112 52.8765 44.702 38.4878 62.3834 38.4878C65.4641 38.4878 68.5225 38.93 71.4712 39.7903C71.5549 39.8163 71.6385 39.8479 71.7221 39.8813C83.4224 43.4302 92.1925 53.5193 94.071 65.5873C94.2549 66.756 93.4541 67.843 92.2928 68.0343C91.1241 68.209 90.0297 67.4156 89.8457 66.2469C88.2255 55.7992 80.6334 47.0626 70.5199 43.9802C70.5106 43.9802 70.3768 43.9467 70.1687 43.865C67.638 43.1292 65.0237 42.7613 62.3853 42.7613C47.0599 42.7613 34.5904 55.2306 34.5904 70.5557C34.5904 78.6233 38.0891 86.2822 44.204 91.5608L44.4214 91.7429C48.498 95.2007 53.3922 97.3895 58.6115 98.0993C59.7803 98.2572 60.5997 99.3349 60.4399 100.505C60.2968 101.574 59.3789 102.35 58.3272 102.35" fill="#00C9FF"/>
<path d="M53.4721 94.0171C52.9296 94.0171 52.3777 93.809 51.9596 93.391L45.7537 87.1851C41.311 82.7425 38.8639 76.8303 38.8639 70.5575C38.8639 57.5865 49.4122 47.0385 62.3834 47.0385C68.6637 47.0385 74.5687 49.4855 79.0113 53.9281L85.2173 60.1246L82.1942 63.1477L75.9882 56.9511C72.3557 53.3186 67.5191 51.3138 62.3834 51.3138C51.7757 51.3138 43.1412 59.95 43.1412 70.5557C43.1412 75.6931 45.1461 80.5185 48.7786 84.1602L54.9846 90.3661C55.8188 91.2003 55.8188 92.5549 54.9846 93.391C54.5684 93.8072 54.024 94.0171 53.4721 94.0171Z" fill="#00C9FF"/>
<path d="M54.8025 95.2453C54.3175 95.2453 53.8251 95.078 53.4238 94.7436C52.9221 94.3088 52.4297 93.8573 51.9615 93.3909C47.5188 88.9558 45.0718 83.0435 45.0718 76.7633C45.0718 63.7924 55.62 53.2443 68.5912 53.2443C74.8715 53.2443 80.7765 55.6913 85.2191 60.1264C86.2132 61.1205 87.1236 62.213 87.9245 63.3669C88.6027 64.3368 88.3593 65.6727 87.3894 66.3416C86.412 67.0179 85.0835 66.7671 84.4071 65.8083C83.755 64.8644 83.0117 63.9707 82.1942 63.1606C78.5616 59.5282 73.7251 57.5233 68.5894 57.5233C57.9835 57.5233 49.3472 66.1595 49.3472 76.767C49.3472 81.9027 51.352 86.7392 54.9846 90.3716C55.3692 90.7637 55.7705 91.1241 56.1867 91.4827C57.0879 92.2427 57.1975 93.5879 56.4376 94.4983C56.0121 94.9907 55.4101 95.2508 54.8006 95.2508" fill="#00C9FF"/>
<path d="M71.1201 44.0564C70.9027 44.0564 70.6853 44.0304 70.4772 43.956C69.0483 43.512 35.4228 32.6146 19.8726 3.14048C19.3226 2.08883 19.7221 0.793772 20.7663 0.251224C21.8105 -0.308046 23.1038 0.100723 23.6556 1.13751C38.3715 29.0415 71.4285 39.7736 71.763 39.8814C72.8908 40.24 73.5095 41.444 73.1584 42.5625C72.8667 43.4822 72.0231 44.0582 71.1201 44.0582" fill="#00C9FF"/>
<path d="M43.0762 95.5631C42.5076 95.5631 41.9409 95.3383 41.5228 94.896C40.2036 93.5007 9.2091 60.7118 0.61551 43.7331C0.0803849 42.6795 0.498451 41.3845 1.55941 40.8605C2.60365 40.318 3.89872 40.7435 4.43199 41.7951C12.7413 58.2239 44.3044 91.6129 44.6221 91.9492C45.4415 92.8076 45.3988 94.1621 44.5459 94.9722C44.1297 95.3643 43.602 95.5649 43.0762 95.5649" fill="#00C9FF"/>
<mask id="mask0_436_66" style="mask-type:luminance" maskUnits="userSpaceOnUse" x="68" y="96" width="10" height="9">
<path d="M77.4728 96.178H68.5541V104.766H77.4728V96.178Z" fill="white"/>
</mask>
<g mask="url(#mask0_436_66)">
<path d="M77.3521 100.491C77.3521 102.854 75.4401 104.768 73.0766 104.768C70.7132 104.768 68.7993 102.856 68.7993 100.491C68.7993 98.1253 70.7113 96.2152 73.0766 96.2152C75.442 96.2152 77.3521 98.1271 77.3521 100.491Z" fill="#00C9FF"/>
</g>
<path d="M79.4907 87.6609C79.4907 90.0243 77.5769 91.9381 75.2134 91.9381C72.8499 91.9381 70.9361 90.0262 70.9361 87.6609C70.9361 85.2956 72.8499 83.3837 75.2134 83.3837C77.5769 83.3837 79.4907 85.2975 79.4907 87.6609Z" fill="#00C9FF"/>
<path d="M92.3188 85.524C92.3188 87.8875 90.4069 89.8012 88.0415 89.8012C85.6762 89.8012 83.7661 87.8875 83.7661 85.524C83.7661 83.1606 85.6781 81.2468 88.0415 81.2468C90.405 81.2468 92.3188 83.1588 92.3188 85.524Z" fill="#00C9FF"/>
<path d="M92.3188 98.3518C92.3188 100.715 90.4069 102.629 88.0415 102.629C85.6762 102.629 83.7661 100.715 83.7661 98.3518C83.7661 95.9884 85.6781 94.0746 88.0415 94.0746C90.405 94.0746 92.3188 95.9884 92.3188 98.3518Z" fill="#00C9FF"/>
<path d="M103.008 89.7994C103.008 92.1628 101.096 94.0748 98.731 94.0748C96.3657 94.0748 94.4538 92.1628 94.4538 89.7994C94.4538 87.436 96.3676 85.5222 98.731 85.5222C101.095 85.5222 103.008 87.4341 103.008 89.7994Z" fill="#00C9FF"/>
<mask id="mask1_436_66" style="mask-type:luminance" maskUnits="userSpaceOnUse" x="96" y="74" width="10" height="10">
<path d="M105.147 74.6248H96.5497V83.5433H105.147V74.6248Z" fill="white"/>
</mask>
<g mask="url(#mask1_436_66)">
<path d="M105.147 79.1101C105.147 81.4735 103.235 83.3854 100.872 83.3854C98.5081 83.3854 96.5943 81.4735 96.5943 79.1101C96.5943 76.7467 98.5062 74.8329 100.872 74.8329C103.237 74.8329 105.147 76.7448 105.147 79.1101Z" fill="#00C9FF"/>
</g>
<path d="M73.0748 102.629C72.6976 102.629 72.3222 102.538 71.9804 102.328C71.3133 101.927 55.4602 92.3895 51.7775 78.9596C51.4598 77.8244 52.1287 76.6464 53.2733 76.3379C54.3937 76.0202 55.5866 76.6891 55.895 77.8336C59.1355 89.6192 74.0187 98.5638 74.1692 98.6548C75.18 99.255 75.5144 100.567 74.9124 101.587C74.5111 102.254 73.8031 102.631 73.0748 102.631" fill="#00C9FF"/>
<path d="M75.2134 89.7994C74.8121 89.7994 74.4126 89.6897 74.0521 89.4575C73.6433 89.1973 63.9554 82.8429 57.0898 69.203C56.5639 68.142 56.982 66.8656 58.0411 66.3305C59.0853 65.7972 60.3804 66.2227 60.9137 67.2818C67.22 79.8273 76.2818 85.8064 76.3729 85.8659C77.3669 86.5088 77.6512 87.8354 77.0083 88.822C76.5995 89.4575 75.9139 89.7994 75.2116 89.7994" fill="#00C9FF"/>
<path d="M88.0415 87.6609C87.7833 87.6609 87.5157 87.6107 87.2574 87.5104C86.5978 87.2502 70.9287 80.9626 66.5771 68.969C66.1758 67.8597 66.7536 66.6316 67.8629 66.2302C68.974 65.8289 70.2022 66.3975 70.6017 67.516C74.2937 77.7129 88.6844 83.4766 88.8257 83.5342C89.9201 83.9689 90.4626 85.2045 90.0278 86.3063C89.7027 87.1499 88.8925 87.659 88.0397 87.659" fill="#00C9FF"/>
<path d="M100.872 81.2468C100.31 81.2468 86.9063 81.0628 73.5932 65.5371C72.8239 64.6359 72.9243 63.2907 73.8273 62.514C74.721 61.7541 76.0737 61.8544 76.8336 62.7481C88.7848 76.6965 100.762 76.9714 100.879 76.9714C102.057 76.9882 103.008 77.9488 103.001 79.1175C103.001 80.2955 102.05 81.2468 100.872 81.2468Z" fill="#00C9FF"/>
<path d="M88.0415 100.491C87.8 100.491 87.5584 100.45 87.3243 100.366C87.1906 100.316 83.9501 99.1305 80.2841 95.3977C79.4572 94.5541 79.4647 93.2015 80.3101 92.3746C81.1537 91.5478 82.5063 91.5552 83.3332 92.4007C86.2652 95.3902 88.7532 96.3341 88.7792 96.3508C89.881 96.7522 90.4496 97.9804 90.0483 99.0822C89.7305 99.9499 88.913 100.492 88.0434 100.492" fill="#00C9FF"/>
</svg>
