<svg width="105" height="100" viewBox="0 0 105 100" fill="none" xmlns="http://www.w3.org/2000/svg">
<path d="M52.2289 35.6969C64.2763 35.6969 76.3244 35.6955 88.3719 35.6969C91.0315 35.6969 91.3861 36.1176 91.475 38.7219C91.71 45.6278 90.7308 52.2717 87.8231 58.6259C81.1051 73.3057 65.1284 82.6242 49.013 81.1383C30.6043 79.4403 15.9048 65.409 13.537 47.1334C13.1495 44.1439 13.2083 41.0902 13.1673 38.0652C13.1434 36.2936 13.9162 35.701 15.943 35.7003C28.0383 35.6949 40.1336 35.6976 52.2289 35.6969ZM72.3562 70.6762C83.3 63.4021 88.4532 49.6245 87.1719 39.8928H17.3719C16.4672 53.0362 23.658 65.1778 32.3325 70.5985C32.3325 69.8402 32.312 69.1957 32.3359 68.554C32.4596 65.2972 32.189 61.9626 32.7985 58.7971C34.9695 47.5228 46.2024 40.4226 57.0499 43.2022C66.148 45.5337 72.2578 53.3015 72.3521 62.6827C72.3781 65.2699 72.3562 67.8571 72.3562 70.6769V70.6762ZM36.1169 66.8315C36.2248 66.8445 36.3328 66.8574 36.4408 66.8704C36.4408 68.6686 36.3717 70.4716 36.4838 72.263C36.5159 72.7792 36.9553 73.496 37.407 73.7183C38.8448 74.4261 40.3434 75.0535 41.8775 75.5185C50.5362 78.1426 59.0029 77.6127 67.2072 73.7564C67.6712 73.5382 68.1789 72.8249 68.1905 72.3306C68.2725 68.9721 68.3115 65.6081 68.2056 62.251C67.9595 54.4689 62.2181 48.0138 54.708 46.9575C46.8721 45.8555 39.5193 50.303 37.282 57.8949C36.4428 60.7419 36.479 63.8454 36.1155 66.8322L36.1169 66.8315Z" fill="#00C9FF"/>
<path d="M52.3724 0.00149696C65.5583 0.00149696 78.7442 -0.00123074 91.9301 0.00286081C97.1515 0.00422466 100.048 2.86081 100.07 8.05707C100.091 12.8851 100.093 17.7131 100.07 22.5405C100.046 27.6951 97.0729 30.6431 91.9259 30.6438C65.5542 30.6465 39.1824 30.6465 12.8106 30.6438C7.59456 30.6438 4.58304 27.6515 4.57621 22.4661C4.56938 17.6381 4.56664 12.8101 4.57689 7.98206C4.58714 3.00196 7.56654 0.00763428 12.5297 0.00422466C25.8106 -0.00327651 39.0915 0.00149696 52.3724 0.00149696ZM52.386 26.4636C65.5719 26.4636 78.7578 26.4649 91.9437 26.4622C94.8596 26.4622 95.9434 25.3629 95.9454 22.415C95.9482 17.6347 95.9495 12.8537 95.9454 8.07343C95.9427 5.27345 94.8678 4.13396 92.1187 4.13259C65.6047 4.12305 39.0908 4.12305 12.5762 4.13191C9.81613 4.13259 8.7173 5.268 8.71389 8.03934C8.70705 12.8196 8.70774 17.6006 8.71389 22.3809C8.71799 25.3902 9.80246 26.4629 12.829 26.4629C26.0149 26.4642 39.2008 26.4636 52.3867 26.4629L52.386 26.4636Z" fill="#00C9FF"/>
<path d="M76.3175 100.004C75.1025 99.9354 74.3064 99.3646 74.1916 98.1345C74.0686 96.8163 74.8613 96.1671 76.0537 95.8534C78.3819 95.2411 80.803 94.8449 83.0095 93.9345C92.7513 89.9159 98.4211 82.53 100.489 72.2936C100.563 71.9233 100.587 71.5428 100.666 71.1732C100.952 69.821 101.873 69.109 103.056 69.3088C104.191 69.5011 104.984 70.5581 104.711 71.8633C104.228 74.171 103.821 76.5345 102.979 78.7194C98.4149 90.559 89.72 97.4941 77.2912 99.8645C76.966 99.9265 76.6352 99.9586 76.3175 100.003V100.004Z" fill="#00C9FF"/>
<path d="M28.0136 99.9526C21.5191 98.9413 15.5384 96.2982 10.4775 91.7225C4.62807 86.4349 1.32955 79.7765 0.0496355 72.0674C-0.20047 70.561 0.513629 69.4502 1.76279 69.292C3.07892 69.1249 3.89347 69.9357 4.18868 71.6405C5.93327 81.7139 11.2805 89.1414 20.6389 93.4348C23.0156 94.5252 25.6629 95.0482 28.2118 95.7349C29.3797 96.0493 30.4382 96.3521 30.5782 97.7643C30.7094 99.0873 29.6749 100.043 28.013 99.9526H28.0136Z" fill="#00C9FF"/>
<path d="M77.2674 91.2552C75.8693 91.2982 74.9687 90.606 74.8689 89.4127C74.7671 88.1968 75.4873 87.3123 76.8841 87.1623C84.8588 86.3051 91.1059 80.1726 92.0039 71.909C92.1446 70.6107 93.0487 69.8667 94.1776 69.9519C95.3058 70.0372 96.203 70.9857 96.0875 72.1839C95.094 82.5259 87.1808 90.2808 77.2674 91.2559V91.2552Z" fill="#00C9FF"/>
<path d="M26.6954 91.213C19.152 90.0285 13.2471 85.7958 10.1222 78.0567C9.42449 76.328 9.10537 74.4302 8.76233 72.5822C8.49582 71.1467 9.26117 70.132 10.4789 69.9677C11.6973 69.8027 12.5898 70.6182 12.7927 72.0803C13.9442 80.3861 19.3939 85.8688 27.7669 87.1447C29.2614 87.3724 30.0083 88.1812 29.8935 89.4462C29.7808 90.6866 28.8569 91.3371 26.6961 91.2123L26.6954 91.213Z" fill="#00C9FF"/>
<path d="M61.2654 59.8622C61.2114 64.7857 57.0977 68.8111 52.2138 68.7197C47.2875 68.6276 43.3364 64.5395 43.4088 59.6092C43.482 54.6455 47.5089 50.7217 52.4666 50.7831C57.4052 50.8444 61.3201 54.8842 61.2654 59.8615V59.8622ZM52.3778 64.5709C55.0169 64.5511 57.1435 62.4187 57.1612 59.7742C57.179 57.1086 54.9363 54.8419 52.306 54.8664C49.6519 54.891 47.4966 57.144 47.5424 59.8465C47.5875 62.5081 49.7196 64.5913 52.3778 64.5709Z" fill="#00C9FF"/>
<path d="M13.2943 12.755C13.308 9.13194 16.2224 6.21671 19.7902 6.25763C23.3491 6.29786 26.241 9.2806 26.2048 12.8743C26.1693 16.3842 23.25 19.2865 19.7424 19.2987C16.1603 19.3117 13.2806 16.3897 13.2936 12.755H13.2943ZM22.0746 12.7264C22.0425 11.4341 20.997 10.4249 19.7041 10.4371C18.4119 10.4494 17.3794 11.4832 17.3705 12.7734C17.3609 14.1079 18.483 15.1929 19.8196 15.1411C21.1029 15.0913 22.1068 14.0166 22.0746 12.7264Z" fill="#00C9FF"/>
</svg>
