<svg width="66" height="105" viewBox="0 0 66 105" fill="none" xmlns="http://www.w3.org/2000/svg">
<path d="M27.1914 105C26.8388 105 26.489 104.945 26.1516 104.837C24.6132 104.342 23.6216 102.81 23.7952 101.195L27.493 66.7013H1.8189C1.17023 66.7013 0.589044 66.3662 0.261266 65.8038C-0.0665117 65.2415 -0.0720206 64.567 0.244739 63.9978L34.9851 1.75482C35.5897 0.673121 36.7314 0 37.9654 0C38.3179 0 38.6677 0.0554009 39.0052 0.163433C40.5435 0.657886 41.5351 2.18972 41.3616 3.80466L37.6637 38.2987H63.0156C63.7303 38.2987 64.3735 38.6698 64.7357 39.2903C65.0965 39.9108 65.1034 40.656 64.7536 41.2848L30.1703 103.245C29.5657 104.327 28.424 105 27.19 105H27.1914ZM32.0929 62.5449L28.2766 98.1511L59.3632 42.4537H33.0625L36.8787 6.84756L5.79217 62.5449H32.0929Z" fill="#00C9FF"/>
</svg>
