<svg width="121" height="101" viewBox="0 0 121 101" fill="none" xmlns="http://www.w3.org/2000/svg">
<path d="M117.549 84.1887C117.549 87.2995 115.035 89.8295 111.947 89.8295H8.05713C4.96883 89.8295 2.45755 87.2995 2.45755 84.1887V70.8991C2.45755 67.7907 4.97117 65.2607 8.05713 65.2607H111.947C115.035 65.2607 117.549 67.7907 117.549 70.8991V84.1887ZM106.815 98.4823H85.0215V92.3007H106.815V98.4823ZM34.9804 98.4823H13.1895V92.3007H34.9827V98.4823H34.9804ZM14.9439 49.1589V6.452C14.9439 4.2982 16.6609 2.53942 18.7891 2.48299C18.8288 2.48299 18.8568 2.47358 18.8942 2.47358C18.9316 2.47358 18.9619 2.48299 18.9993 2.48299C21.1298 2.53942 22.8562 4.28879 22.8562 6.452V62.7871H14.9415V49.1589H14.9439ZM97.1457 6.452C97.1457 4.26058 98.9188 2.47358 101.108 2.47358C103.297 2.47358 105.07 4.26058 105.07 6.452V62.7871H97.1457V6.452ZM111.947 62.7871H107.525V6.452C107.525 2.89917 104.647 0 101.108 0C97.5685 0 94.6905 2.89682 94.6905 6.452V62.7871H25.3137V6.452C25.3137 2.89917 22.4357 0 18.8965 0C15.3574 0 12.4887 2.89682 12.4887 6.452V62.7871H8.05713C3.61625 62.7871 0 66.4269 0 70.8991V84.1887C0 88.6609 3.61625 92.3031 8.05713 92.3031H10.7343V99.7191C10.7343 100.406 11.2809 100.956 11.963 100.956H36.2115C36.8936 100.956 37.4403 100.406 37.4403 99.7191V92.3031H82.5709V99.7191C82.5709 100.406 83.1176 100.956 83.7997 100.956H108.048C108.73 100.956 109.277 100.406 109.277 99.7191V92.3031H111.954C116.395 92.3031 120.011 88.6633 120.011 84.1887V70.8991C120.011 66.4269 116.395 62.7871 111.954 62.7871" fill="#00C9FF"/>
<path d="M76.9082 38.324C77.1489 38.6038 77.4946 38.7496 77.838 38.7496C78.1253 38.7496 78.4057 38.6437 78.6439 38.4392C79.1532 37.9948 79.2093 37.2141 78.7584 36.7016C74.0209 31.2348 67.1808 28.1052 59.9974 28.1052C52.814 28.1052 45.9739 31.2348 41.2364 36.7016C40.7855 37.2141 40.8439 37.9854 41.3508 38.4392C41.8601 38.893 42.6357 38.8342 43.0772 38.324C47.3546 33.398 53.5218 30.5787 59.9974 30.5787C66.473 30.5787 72.6402 33.398 76.9082 38.324Z" fill="#00C9FF"/>
<path d="M59.9974 40.5436C56.3718 40.5436 52.9285 42.1284 50.541 44.8701C50.0901 45.392 50.1485 46.175 50.6555 46.6194C51.1647 47.0638 51.9403 47.0145 52.3912 46.5042C54.3091 44.2916 57.082 43.0172 59.9974 43.0172C62.9129 43.0172 65.6858 44.2916 67.6037 46.5042C67.8537 46.784 68.1901 46.9298 68.5335 46.9298C68.8208 46.9298 69.1081 46.824 69.3394 46.6218C69.8487 46.1774 69.9047 45.3944 69.4539 44.8724C67.0664 42.1308 63.623 40.546 59.9974 40.546" fill="#00C9FF"/>
<path d="M86.2129 30.1438C86.6638 30.6658 87.4417 30.7035 87.9486 30.2591C88.4556 29.8053 88.514 29.034 88.0631 28.512C80.9638 20.3412 70.7411 15.6574 59.9975 15.6574C49.2539 15.6574 39.0405 20.3506 31.9412 28.5214C31.4903 29.0434 31.5487 29.817 32.0557 30.2685C32.2846 30.4707 32.5743 30.5788 32.8616 30.5788C33.2074 30.5788 33.5438 30.4331 33.7914 30.1532C40.4188 22.5138 49.9734 18.1286 59.9951 18.1286C70.0169 18.1286 79.5808 22.5044 86.2106 30.1438" fill="#00C9FF"/>
<path d="M18.8965 81.3318C16.8244 81.3318 15.1355 79.6318 15.1355 77.5462C15.1355 75.4606 16.8244 73.7606 18.8965 73.7606C20.9686 73.7606 22.6553 75.4606 22.6553 77.5462C22.6553 79.6318 20.9686 81.3318 18.8965 81.3318ZM18.8965 71.287C15.4718 71.287 12.6802 74.0968 12.6802 77.5438C12.6802 80.9909 15.4718 83.803 18.8965 83.803C22.3212 83.803 25.1105 80.9932 25.1105 77.5438C25.1105 74.0945 22.3189 71.287 18.8965 71.287Z" fill="#00C9FF"/>
<path d="M44.7849 81.3318C42.7128 81.3318 41.0261 79.6318 41.0261 77.5462C41.0261 75.4606 42.7128 73.7606 44.7849 73.7606C46.857 73.7606 48.5436 75.4606 48.5436 77.5462C48.5436 79.6318 46.857 81.3318 44.7849 81.3318ZM44.7849 71.287C41.3602 71.287 38.5709 74.0968 38.5709 77.5438C38.5709 80.9909 41.3625 83.803 44.7849 83.803C48.2072 83.803 51.0012 80.9932 51.0012 77.5438C51.0012 74.0945 48.2096 71.287 44.7849 71.287Z" fill="#00C9FF"/>
<path d="M106.298 76.3094H62.3008C61.621 76.3094 61.072 76.8597 61.072 77.5462C61.072 78.2328 61.6187 78.783 62.3008 78.783H106.298C106.978 78.783 107.527 78.2328 107.527 77.5462C107.527 76.8597 106.981 76.3094 106.298 76.3094Z" fill="#00C9FF"/>
</svg>
