<svg width="644" height="671" viewBox="0 0 644 671" fill="none" xmlns="http://www.w3.org/2000/svg">
<path d="M643.49 322.35C643.46 318.31 643.44 315.94 643.41 314.18C643.37 312.22 643.31 310.02 643.22 307.67V307.65C643.14 305.76 643.03 303.34 642.91 301.3C642.89 300.99 642.87 300.66 642.85 300.31C642.83 300.03 642.82 299.75 642.81 299.49C642.68 297.44 642.49 294.97 642.35 293.06C642.16 290.9 641.92 288.4 641.66 285.91C641.43 283.66 641.2 281.43 640.98 279.45V279.38C640.71 277.17 640.4 274.79 640.06 272.34C640.02 272.03 639.97 271.7 639.91 271.35C639.87 271.03 639.82 270.73 639.78 270.44C639.49 268.43 639.11 266.01 638.8 264.14C638.74 263.76 638.68 263.41 638.63 263.09C638.34 261.36 638.03 259.62 637.7 257.83C637.65 257.56 637.59 257.28 637.54 256.98C637.01 254.01 636.78 252.92 636.14 249.84V249.79C635.71 247.78 635.12 245.19 634.67 243.13C634.5 242.4 634.29 241.55 634.04 240.51C633.64 238.8 633.25 237.14 632.87 235.67C632.76 235.25 632.66 234.86 632.58 234.5C632.14 232.79 631.67 231.05 631.22 229.38C631.16 229.15 631.09 228.9 631.01 228.64C630.92 228.3 630.83 227.98 630.75 227.68C630.02 225.05 629.41 223.02 629.01 221.63C628.84 221.06 628.65 220.47 628.46 219.85C627.56 216.94 626.99 215.11 626.55 213.71C625.96 211.92 625.39 210.2 624.85 208.6C624.75 208.33 624.65 208.04 624.55 207.73C623.52 204.74 623.15 203.68 622.09 200.86C622.04 200.72 621.99 200.59 621.95 200.47C621.09 198.2 620.45 196.51 619.94 195.19L619.9 195.09C619.87 195.02 619.85 194.96 619.82 194.89C619.79 194.8 619.75 194.71 619.72 194.62C619.69 194.54 619.66 194.47 619.63 194.4L619.56 194.21C619.5 194.04 619.43 193.87 619.37 193.71C619.28 193.49 619.21 193.27 619.13 193.08C618.75 192.11 618.45 191.34 618.15 190.6C617.88 189.94 617.6 189.26 617.25 188.42C617.09 188.05 616.92 187.64 616.73 187.19C616.59 186.85 616.46 186.53 616.34 186.23C615.64 184.56 614.98 183.01 614.37 181.62C614.21 181.26 614.04 180.87 613.84 180.43L613.81 180.37C612.8 178.08 611.96 176.24 611.45 175.14C611.29 174.79 611.11 174.41 610.91 174C610.75 173.64 610.6 173.31 610.45 173.01C609.87 171.78 609.18 170.32 608.37 168.65C608.21 168.31 608.03 167.95 607.83 167.55C607.11 166.09 606.64 165.12 606.15 164.15C605.86 163.59 605.55 162.98 605.18 162.26C605.01 161.93 604.82 161.58 604.62 161.19C604.4 160.77 604.21 160.39 604.03 160.04C603.68 159.36 603.38 158.79 603.1 158.25C602.7 157.5 602.3 156.76 601.77 155.78C601.67 155.6 601.57 155.41 601.46 155.21C601.41 155.12 601.36 155.03 601.32 154.93C601.16 154.64 601.02 154.38 600.88 154.13C600.09 152.68 599.22 151.1 598.25 149.4C598.13 149.2 598.01 148.98 597.88 148.76C596.43 146.18 595.88 145.24 594.3 142.59L594.2 142.43C593.02 140.45 591.88 138.59 590.81 136.87C590.73 136.74 590.64 136.61 590.56 136.47C590.32 136.08 590.09 135.72 589.88 135.38C588.95 133.9 588.08 132.53 587.34 131.39C587.16 131.11 586.97 130.83 586.77 130.52C586.72 130.44 586.66 130.36 586.61 130.29L586.59 130.26C585.55 128.71 584.36 126.93 583.16 125.16C581.94 123.36 580.72 121.57 579.64 120.02V120L579.51 119.82L578.74 118.74C578.69 118.66 578.63 118.59 578.58 118.51C577.55 117.06 576.37 115.44 575.09 113.71C574.92 113.48 574.74 113.24 574.54 112.98C574.41 112.8 574.28 112.63 574.16 112.46C572.84 110.7 571.52 108.96 570.16 107.21C569.62 106.54 569.13 105.92 568.69 105.36C567.96 104.43 567.08 103.32 565.98 101.95C565.86 101.8 565.73 101.64 565.59 101.48C564.05 99.58 562.49 97.69 561.13 96.09C560.71 95.59 560.34 95.16 560.01 94.76C559.08 93.67 558.09 92.52 557.04 91.34C556.83 91.11 556.62 90.86 556.38 90.6C556.3 90.51 556.22 90.42 556.14 90.33C555 89.05 553.62 87.51 551.56 85.24C550.18 83.74 548.56 82.02 546.92 80.3C546.55 79.91 546.22 79.56 545.92 79.24C544.6 77.87 543.11 76.34 541.49 74.72L541.46 74.69C539.89 73.12 538.95 72.18 537.81 71.08C537.36 70.65 536.86 70.17 536.26 69.6L536.15 69.49C534.94 68.34 533.36 66.85 530.91 64.55C530.6 64.27 530.32 64.01 530.05 63.76C529.11 62.9 527.52 61.46 525.49 59.65L525.41 59.58C525.19 59.39 524.99 59.21 524.8 59.04C523.24 57.67 521.31 56.03 519.84 54.75C519.73 54.66 519.62 54.57 519.51 54.48C518.05 53.24 516.51 51.95 514.91 50.64C514.67 50.45 514.41 50.24 514.13 50.02C513.73 49.68 513.36 49.39 513.03 49.11C512.17 48.41 510.79 47.31 509.03 45.94C508.8 45.76 508.56 45.58 508.3 45.38L504.94 42.79C504.18 42.21 503.33 41.59 502.45 40.94C501.86 40.5 501.27 40.06 500.67 39.62C500.36 39.39 500.05 39.16 499.74 38.94C499.98 39.11 500.22 39.28 500.46 39.45C500.22 39.28 499.98 39.11 499.74 38.93H499.73C498.6 38.09 497.5 37.29 496.51 36.57C496.14 36.31 495.73 36.02 495.27 35.7C495.03 35.53 494.79 35.37 494.57 35.21C493.48 34.45 492.16 33.53 490.46 32.35C490.34 32.27 490.21 32.18 490.08 32.1C487.56 30.36 486.56 29.71 483.78 27.91C483.07 27.46 482.43 27.05 481.82 26.67C480.99 26.15 480.12 25.6 479.23 25.05C479.14 25 479.05 24.94 478.96 24.88C478.83 24.8 478.71 24.72 478.58 24.65C477.02 23.68 475.44 22.7 473.93 21.78C473.65 21.61 473.35 21.43 473.05 21.25C472.24 20.76 471.44 20.28 470.7 19.84C468.75 18.71 466.97 17.69 465.4 16.81C464.31 16.18 462.93 15.41 462.01 14.9C461.88 14.83 461.74 14.75 461.61 14.68C462.48 15.17 463.41 15.69 464.37 16.23C460.82 14.25 458.62 13.08 458.6 13.07C459.43 13.52 460.26 13.97 461.09 14.43C451.45 9.21998 434.35 1.44998 434.23 1.39998C433.89 1.27998 433.43 1.18998 433.08 1.10998C434.56 1.88998 436.14 2.47999 437.64 3.20999C437.64 3.20999 435.97 2.60998 434.12 1.94998H434.11H434.1C434.1 1.94998 434.1 1.94998 434.34 2.10998C435.54 2.70998 436.77 3.23998 437.95 3.88998C429.5 0.519983 429.42 0.529985 428.17 0.829985C428.7 1.09999 429.37 1.54998 429.82 1.92998C429.53 1.84998 429.13 1.73998 428.83 1.64998C430.81 3.05998 430.99 3.07998 432.2 3.17998C432.54 3.86998 432.91 4.65998 445.42 9.88998C445.53 9.92998 458.04 15.61 465.23 20.09C462.29 18.69 459.35 17.28 456.41 15.88C453.723 14.72 449.243 12.9133 442.97 10.46C443.37 10.85 443.84 11.46 444.13 11.95C442.29 10.13 438.9 9.52998 432.15 8.30998C432.4 8.42998 432.74 8.58998 433 8.71999C432.92 8.98999 432.83 9.34998 432.76 9.61998C412.78 3.58998 409.94 3.25998 409 3.14998C409.21 3.36998 409.5 3.66998 409.71 3.89998C409.45 4.01998 409.11 4.16998 408.85 4.28998C409.82 5.08998 410.63 6.05999 411.6 6.84999C411.33 6.89999 410.97 6.96998 410.7 7.00998C412.33 8.69998 413.27 8.54998 414.09 8.41998C414.3 8.59998 414.57 8.84998 414.78 9.03998C414.253 10.0266 413.94 10.8966 413.84 11.65C409.36 14.5 407.06 8.38998 403.39 7.44998C403.32 7.72998 403.23 8.08998 403.16 8.36998C399.54 9.19998 395.97 4.21999 392.46 7.84999C392.19 7.84999 391.83 7.84999 391.56 7.84999H391.54H391.53H391.51H391.5C391.5 7.84999 391.5 7.84998 390.82 7.86998C390.33 7.57998 389.83 6.89998 389.68 6.35998C389.13 6.31998 388.39 6.17999 387.85 6.01999C388.17 6.42999 388.49 6.85999 388.82 7.26999C388.66 7.22999 388.5 7.19998 388.34 7.19998C387.94 6.72998 387.54 6.26999 387.12 5.79999C386.49 5.69999 385.58 5.77998 385 6.05998C383.95 5.09998 382.97 4.05999 381.86 3.15999C382.49 3.21999 383.32 3.35998 383.94 3.50998C382.19 2.08998 379.92 2.41999 377.96 1.68999C377.89 1.38999 377.79 0.989986 377.72 0.689986C377.43 0.599986 377.04 0.469989 376.74 0.379989C375 0.179989 373.27 0.609984 371.53 0.359984C365.743 0.153318 362.417 0.139991 361.55 0.319991L361.14 0.669982C358.16 -0.170018 357.9 -0.14002 353.62 0.33998C353.45 0.91998 353.5 1.78998 353.75 2.33998C354.33 2.21998 355.17 2.33999 355.69 2.62999C354.263 2.48332 353.23 2.62665 352.59 3.05998C348.09 2.06998 347.35 3.77999 346.96 4.68999C346.93 4.68999 340.51 4.07998 338.29 3.42998L337.24 3.29999L336.49 3.12999C333.637 3.00999 332.063 2.95332 331.77 2.95999C331.39 2.93999 331.01 2.91999 330.63 2.90999C330.45 2.90999 330.27 2.88998 330.09 2.88998C329.27 2.78998 326.817 3.41665 322.73 4.76999C322.7 5.07999 322.67 5.50999 322.64 5.81999C323.09 6.26999 323.68 6.87999 324.11 7.34999C322.56 7.92999 320.68 7.51998 319.4 8.92998C319.45 9.22998 319.52 9.63999 319.56 9.93999C319.27 10.05 318.88 10.2 318.59 10.32C319.03 8.50999 318.67 7.67998 315.38 7.52998H315.22L314.32 7.61998L312.87 7.38998L311.86 7.47998L310.97 7.56999C310.25 7.41999 309.21 7.36998 308.53 7.63998L307.05 7.78998C306.52 7.78998 305.98 7.76999 305.45 7.76999L304.18 7.78998C302.69 7.70998 301.2 7.91998 299.72 7.69998C299.073 7.66665 298.027 7.31664 296.58 6.64998C296.053 7.34331 295.477 8.22665 294.85 9.29999C291.88 9.09999 289.01 12.28 285.97 9.56999C287.3 8.10999 287.4 8.01998 288.42 7.10998C288.32 6.80998 288.18 6.39999 288.07 6.09999C283.78 4.69999 279.64 7.02998 275.39 6.64998H275.25H275.1H274.92H274.72H274.53H274.35C274.3 6.64998 274.25 6.64998 273.58 6.60998C269 6.86998 256 11.0433 234.58 19.13C234.42 19.75 234.11 20.56 233.83 21.14C233.51 21.57 233.09 22.16 232.78 22.6C232.14 22.55 231.29 22.55 230.65 22.6C231 22.07 231.4 21.3 231.61 20.7C231.82 20.42 232.09 20.05 232.29 19.78C227.143 19.9866 221.04 21.9267 213.98 25.6C214.58 25.74 215.42 25.8 216.03 25.74C216.29 26.34 216.78 27.08 217.2 27.58C219.03 27.7 220.86 27.47 222.69 27.66C222.23 28.13 221.75 28.93 221.59 29.56C221.82 29.73 222.12 29.95 222.34 30.12C222.11 30.35 221.79 30.65 221.56 30.88C221.84 31.01 222.22 31.18 222.51 31.31C222.25 31.5 221.89 31.74 221.63 31.93C222.25 32.03 223.12 31.96 223.72 31.77C223.78 31.84 223.85 31.93 223.93 32.01C223.74 32.29 223.57 32.58 223.55 32.69C223.59 32.72 223.65 32.77 223.93 32.65C224.1 32.58 224.12 32.58 224.16 32.62C224.19 32.66 224.16 32.83 224.12 32.98C224.07 33.16 224.06 33.21 224.06 33.25C224.05 33.38 224.34 33.74 224.53 33.68C224.61 33.66 225.3 33.27 225.86 32.75C225.87 32.74 226.74 31.86 226.75 31.75L226.72 31.77C226.88 31.39 226.92 31.2 226.93 31.09C228.49 30.76 231.43 29.96 234.54 29.07C234.35 29.21 234.06 29.4 233.62 29.7C233.58 30.05 233.44 30.59 233 30.32C232.3 29.89 231.4 31.17 231.4 31.19C231.87 31.3 232.32 31.49 232.81 31.57C232.85 31.7 232.81 31.83 232.81 31.96C233.157 31.9867 233.463 32.11 233.73 32.33C234.16 32.16 234.48 31.75 234.98 31.71C234.09 32.39 232.98 33.23 231.2 32.33C231.293 31.97 231.323 31.7667 231.29 31.72C230.48 30.74 228.75 35.04 228.73 35.08C229.74 35.51 231.22 34.93 231.5 34.81L231.61 34.88C231.03 36.09 229.32 35.34 229.31 35.33C227.85 35.95 228.24 37.51 228.37 38.02C228.47 38.02 229.51 37.65 230.29 37.26C229.95 37.75 229.91 37.79 229.5 38.21C229.52 38.21 232.37 37.39 232.76 36.92C232.92 37.03 233.2 37.5 233.24 37.58C233.15 37.77 232.95 37.91 232.92 38.14C233.29 38.25 233.62 38.01 233.98 38.01V38.13C233.78 38.32 233.47 38.61 232.28 38.5C232.27 38.43 232.23 38.34 232.19 38.28C232.19 38.28 231.82 38.81 231.72 39.04C231.813 39.0866 231.94 39.1067 232.1 39.1C233.42 39.0333 234.107 39.04 234.16 39.12C233.76 39.43 232.83 39.66 232.83 39.66C232.8 39.66 229.72 39.49 229.49 39.34C229.183 39.5666 228.98 39.6966 228.88 39.73L228.75 39.52C228.403 39.4667 228.193 39.3733 228.12 39.24C227.21 41.27 227.9 41.79 227.93 41.81C228.003 41.79 228.167 41.7233 228.42 41.61L228.53 41.68C228.36 42.15 227.85 42.43 227.83 42.97C227.93 43.0033 228.443 42.97 229.37 42.87C229.57 43.19 229.69 43.3666 229.73 43.4C229.59 43.72 228.44 43.82 228.18 43.78C228.1 43.67 228.06 43.54 227.98 43.42C226.42 44.02 227.62 45.23 228.27 45.88C228.23 46.1 228.13 46.31 228.15 46.54C228.59 46.81 229.34 46.52 229.56 46.42C230.18 46.15 230.23 46.31 230.49 47.1H230.61C230.97 46.58 231 45.92 231.43 45.45C231.52 45.35 232.11 45 232.28 45.33C232.54 45.84 232.12 46.26 232.1 46.73C232.82 46.72 232.82 45.98 233.21 45.63C233.36 46.1 233.31 46.61 233.54 47.06C235.27 47.24 234.92 44.06 236.57 44.77C236.55 44.83 236.41 45.03 236.15 45.37L236.22 45.48C236.82 45.11 237.04 44.68 237.12 44.52C237.34 44.08 237.27 43.56 237.48 43.12C237.76 42.52 237.87 42.27 238.7 41.61C238.88 41.71 239.09 41.68 239.28 41.73C238.79 42.49 237.84 42.89 237.58 43.84C237.64 43.9 237.71 43.98 237.75 44.05C238.6 43.73 239.3 43.16 240.08 42.72C241.28 42.04 242.67 41.85 243.91 41.27C244.29 41.09 244.63 40.83 245.01 40.65C244.93 40.65 244.82 40.67 244.73 40.67C244.84 40.61 245.18 40.41 245.35 40.25C245.37 40.23 246.34 38.07 245.83 37.84V37.72L245.74 37.65C245.44 37.89 245.25 38.25 244.89 38.43C244.74 38.16 244.92 37.87 244.86 37.59C244.36 37.35 243.88 37.69 243.39 37.67C243.68 37.1 244.48 36.86 244.42 36.06H244.2C244.18 35.47 244.95 35.3 244.92 34.7C244.89 34.06 244.87 34.04 244.69 33.87C244.33 34.03 244.27 34.03 244.07 34.02C244.07 34.02 244.07 34.02 244 34.01C245.48 33.43 245.52 33.38 245.6 33.26C245.78 33 246.31 32.09 245.44 31.5C245.24 31.36 243.95 32.22 243.96 32.91C243.96 33.47 243.48 33.92 243.27 33.96C242.917 33.3667 243.19 32.5333 244.09 31.46C244.21 31.3133 244.277 31.1767 244.29 31.05C244 30.96 243.98 30.6 243.73 30.48C243.42 30.33 243.07 30.47 242.76 30.32L242.6 30.23C242.93 29.82 243.44 28.8 243.48 28.55C243.37 28.51 243.37 28.5 243.89 26.26C245.07 25.9 245.82 25.67 245.85 25.66C246.26 25.49 246.36 25.44 246.58 24.04L246.74 24.22C248.133 23.6867 248.97 23.4133 249.25 23.4C249.23 23.51 249.21 23.64 249.19 23.75C247.683 24.29 246.867 24.72 246.74 25.04C246.81 25.12 246.91 25.21 246.98 25.28C247.95 25.25 248.77 24.63 249.75 24.6C248.68 26.05 245.18 25.27 245.59 27.68C245.68 27.74 245.79 27.82 245.88 27.88C246.08 27.83 246.35 27.81 246.54 27.82C245.07 31.36 247.87 30.79 247.9 30.78C249.29 30.45 250.22 29.27 251.52 28.76L251.71 28.85C250.78 29.72 249.57 30.19 248.65 31.07C248.69 31.17 248.74 31.3 248.78 31.4C250.267 31.9666 252.217 31.64 254.63 30.42C254.59 30.97 254.1 31.34 254.01 31.88C254.01 31.88 254.88 32.04 255.75 32.07C255.48 32.42 255.31 32.86 255.27 33.4C253.29 34.12 253.25 34.3 253.13 34.79C253.18 34.85 253.23 34.92 253.26 34.99C252.9 35.15 252.64 35.3 252.43 35.47C252.22 34.52 251.55 32.8 249.38 33.42C247.87 31.76 246.18 34.07 246.09 34.95C245.937 36.4166 246.04 37.25 246.4 37.45C246.62 37.58 247.07 38.12 247.09 38.28C247.25 39.67 246.75 41.14 247.53 42.46C247.96 43.2 248.27 43.14 250.64 42.68C250.64 42.78 250.62 42.92 250.62 43.02C250.07 43.49 249.17 43.76 247.96 43.82C249.04 44.83 247.67 45.54 247.65 45.54C247.54 45.56 247.4 45.54 247.29 45.53C246.77 44.96 247.11 44.03 246.44 43.53C245.57 42.87 244.45 43.01 243.48 42.64C243.39 42.7 243.27 42.77 243.19 42.83C241.24 42.38 236.43 45.23 236.71 47.12C236.8 47.18 236.93 47.26 237.02 47.33C236.97 47.43 236.9 47.56 236.86 47.66C236.93 47.75 237.02 47.86 237.09 47.95C237.52 47.84 237.73 47.79 238.75 47.01C238.82 47.09 238.91 47.18 238.98 47.26C238.86 47.5 238.7 47.82 238.61 48.08C240.21 49.82 241.15 45.79 242.99 45.66C242.457 46.6533 242.187 47.2533 242.18 47.46C242.34 47.62 242.51 47.88 242.55 48.09C241.61 49.09 239.54 47.93 239.07 49.66C239.15 49.72 239.25 49.81 239.33 49.88C239.53 49.81 239.81 49.79 240.02 49.82C239.83 50.73 238.68 50.91 238.48 51.81C238.66 51.9 238.93 51.97 239.13 52H239.2L239.23 52.01H239.26H239.28H239.3H239.32H239.35C241.78 52.57 241.86 52.49 242.67 51.71C243.99 50.4367 244.777 49.77 245.03 49.71C245.1 49.79 245.18 49.9 245.25 49.99C238.83 56.43 237.46 52.46 237.46 52.41C237.45 51.34 236.79 50.48 236.55 49.48C233.2 48.8 232.94 50.03 232.32 53.01C232.77 53.12 232.83 53.14 233.27 53.61C233.01 54.37 232.9 54.69 231.71 54.32C230.45 53.93 225.57 54.77 225.16 58.7C225.46 59.03 225.87 59.49 227.5 57.32C227.51 58.1 226.39 59 227.28 59.65C227.57 59.59 228.06 59.49 228.79 58.68C228.87 58.7866 228.99 59.1333 229.15 59.72C229.863 59.8667 230.73 59.6433 231.75 59.05C231.75 59.4 231.59 59.73 231.64 60.09C232.11 60.31 233.12 60.75 233.17 60.76C234.023 60.6466 234.457 60.5833 234.47 60.57C234.56 60.36 234.64 60.08 234.69 59.87C234.79 59.83 234.92 59.77 235.01 59.73C235.33 60.16 235.43 60.21 235.79 60.39C236.28 60 236.51 59.37 237.01 58.98C237.05 59.18 237.01 59.48 236.91 59.66C236.98 59.86 237.1 60.12 237.22 60.3C237.5 60.32 237.88 60.27 238.16 60.2L238.37 60.02C238.81 60.71 238.68 61.65 239.33 62.25C240.62 62.15 242.12 60.7 241.34 59.99C241.34 59.99 240.92 59.6 241.5 58.96C241.61 59 241.76 59.06 241.87 59.11C242.037 59.9367 242.623 60.5 243.63 60.8C243.66 60.9 243.7 61.04 243.72 61.14C243.06 62.0333 242.713 62.56 242.68 62.72C242.907 63.0067 243.333 63.0733 243.96 62.92C245.53 61.94 247.4 61.56 248.92 60.45C249.01 60.5 249.13 60.57 249.22 60.62C249.19 60.74 249.16 60.91 249.13 61.04V61.35C251.87 60.1 251.8 59.4 251.62 57.31C251.54 57.26 251.44 57.2 251.36 57.15C250.78 57.42 250.38 57.93 249.81 58.22C249.8 58.22 248.93 57.57 248.79 57.2C249.67 56.6 250.1 55.55 251.02 54.99C251.05 54.99 253.71 55.09 253.82 52.03C253.833 51.69 254.727 51.3933 256.5 51.14C257.25 51.74 258.84 51.03 259.72 50.55C259.81 50.36 259.93 50.11 259.98 49.92C260.01 49.8 260.02 49.63 260.05 49.5C260.23 48.77 261.39 48.05 260.61 47.32C261.27 46.7 262.33 47.27 262.94 46.51L263.05 46.06C263.24 45.97 263.51 45.89 263.71 45.86C263.41 45.38 263.02 44.97 262.78 44.46C262.44 44.36 262.127 44.1366 261.84 43.79C261.93 43.78 262.04 43.77 262.13 43.76C263.61 43.5933 264.45 43.09 264.65 42.25C264.437 42.0033 263.503 41.69 261.85 41.31C261.723 41.0433 261.763 40.73 261.97 40.37C262.83 40.63 263.58 41.21 264.5 41.28L265.32 40.91C265.32 40.91 266.32 40.97 267.16 40.76C270.23 41.99 273.4 42.95 276.56 43.98C276.35 44.08 276.17 44.2 276 44.32L275.75 44.62L275.57 45.01L274.99 45.44C274.05 45.8267 273.467 45.94 273.24 45.78C272.91 45.92 272.54 45.91 272.2 46.02L271.88 46.29C271.54 46.5233 271.197 46.6633 270.85 46.71C269.83 46.51 269.8 46.52 269.31 47.22L269.13 47.53C269.01 47.63 268.84 47.76 268.71 47.85C268.58 47.78 268.41 47.67 268.3 47.57C268.13 47.63 267.91 47.72 267.75 47.78L267.46 48.13L267.22 48.8L266.82 49.21L266.67 49.39C266.597 49.67 266.863 50.1833 267.47 50.93L267.45 51.21C268.68 52.11 271.01 53.2 271.02 53.2C271.19 53.22 271.19 53.22 271.2 53.22H271.27H271.3H271.33H271.36H271.39C271.58 53.22 271.82 53.08 271.99 52.98L272.22 53.57C272.31 53.68 272.44 53.83 272.55 53.93C272.463 54.2633 272.433 54.5033 272.46 54.65C272.833 54.7366 273.06 54.8033 273.14 54.85C273.68 54.68 273.99 54.09 274.6 54.05C274.72 54.23 274.79 54.44 274.91 54.63C275.42 54.58 275.94 54.71 276.43 54.47C276.717 54.6567 277.327 54.2867 278.26 53.36C278.85 53.48 279.51 54.13 279.93 55.03C279.81 55.13 279.65 55.25 279.52 55.35L279.44 55.39C279.02 55.8033 277.357 55.9233 274.45 55.75C274.063 55.8367 273.79 55.93 273.63 56.03C272.14 57.6 270.19 56.19 268.55 56.81L268.34 56.96C271.38 57.13 274.44 57.26 277.51 57.37C277.5 57.38 277.49 57.39 277.48 57.41C274.39 57.31 271.31 57.19 268.25 57.03C267.75 57.37 267.84 57.58 268.01 58.01C268.317 58.31 268.513 58.5933 268.6 58.86L268.76 59.07C268.87 59.07 269.02 59.07 269.13 59.07C269.343 59.1033 269.847 58.9066 270.64 58.48L270.85 58.67L270.52 58.97L270.43 59.48L270.65 59.89L270.82 60.18C271.88 60.32 272.6 60.35 272.8 60.35L272.95 60.5H273.07H273.11H273.15H273.19C273.97 60.5466 274.413 60.7367 274.52 61.07L274.27 61.43L273.58 61.55L273.27 61.38L273.1 61.41H272.84C272.72 61.5167 272.343 61.7066 271.71 61.98L271.44 62.31L271.26 62.66L271.49 62.79C271.563 63.37 271.743 63.8633 272.03 64.27C272.73 64.77 273.113 65.0867 273.18 65.22C273.72 65.5 276.23 65.7 276.67 65.34C276.15 64.37 276.3 64.09 276.47 63.79C276.7 63.95 276.77 64 277.14 64.03C277.313 64.5767 277.473 64.91 277.62 65.03C277.69 65.02 277.79 65 277.86 64.99C278.273 64.0433 278.793 63.7266 279.42 64.04L279.34 64.51C279.35 64.69 279.38 64.93 279.42 65.11L279.45 65.14C280.42 65.23 281.18 64.6 282.06 64.4C282.18 64.08 282.47 63.89 282.61 63.6C283.38 63.44 283.53 64.26 284.06 64.5C284.1 64.46 285.22 63.54 285.47 62.88C285.637 62.88 286.067 63.1567 286.76 63.71C287.76 63.91 288.323 64.0033 288.45 63.99C288.7 64.4 288.87 64.67 290.04 64.6C290.753 64.5533 291.583 64.89 292.53 65.61C292.757 65.7633 293.187 65.8 293.82 65.72C294.26 66.0667 294.727 66.62 295.22 67.38L295.81 67.57L296.41 67.66C296.56 67.66 296.75 67.67 296.9 67.68C296.92 67.8 296.95 67.96 296.98 68.09C297.02 68.26 297.08 68.5 297.14 68.67L297.22 68.78C297.4 68.88 297.58 69.12 297.69 69.29C297.79 69.65 297.78 69.68 297.55 70.37L297.66 71.02C297.993 71.8 298.21 72.29 298.31 72.49C299.99 73.4033 301.013 74.3767 301.38 75.41L301.71 75.65C302.583 76.39 303.117 76.9333 303.31 77.28C302.45 77.98 303.88 80.26 304.49 81.23C304.56 81.38 304.56 81.34 304.55 81.31C304.877 82.0633 305.083 82.75 305.17 83.37C305.44 83.97 306.27 84.06 306.43 84.75C306.66 85.7 306.22 86.59 306.14 87.51C306.24 87.46 306.38 87.39 306.48 87.35C306.92 87.67 306.96 87.7 307.93 87.66C308.11 87.88 308.24 88.2467 308.32 88.76C308.433 90.26 308.807 91.0866 309.44 91.24C309.59 91.52 309.63 91.58 309.44 92L309.23 91.85C309.15 91.87 309.05 91.88 308.98 91.9C308.67 92.49 308.32 93.59 308.25 93.81L308.01 94.31C307.73 94.72 307.39 95.09 307.08 95.48C307.1 95.55 307.14 95.64 307.17 95.71C308.18 95.87 308.31 94.77 308.99 94.44C309.03 94.57 309.09 94.74 309.14 94.87C309.04 95.09 308.89 95.37 308.77 95.58L308.35 95.96C307.923 96.4 307.56 96.6867 307.26 96.82L306.8 97.03C304.75 98.08 307.13 99.13 307.16 99.14C307.73 99.31 308.26 98.93 308.82 99.04C308.86 99.11 308.91 99.2 308.95 99.27C309.21 99.32 310.57 99.56 311.23 98.98C312.11 98.22 311.93 96.96 312.61 96.1L312.11 94.97C312.11 94.97 310.89 93.29 311.2 92.49C311.27 92.55 311.36 92.63 311.44 92.7C311.44 93.13 311.46 94.44 313.21 95.98C313.49 95.76 313.67 95.44 314.01 95.3C314.08 95.34 314.17 95.39 314.25 95.43C314.27 96.09 313.72 96.68 313.99 97.38C314.27 97.44 314.42 97.47 314.93 97.15C315.06 97.26 315.22 97.41 315.35 97.52L315.38 97.56C315.61 97.56 315.92 97.54 316.15 97.5C316.18 97.73 316.22 98.03 316.25 98.26L316.82 98.76C316.82 98.76 316.85 98.76 318.58 97.96C318.79 98.05 319.04 98.28 319.12 98.49C318.95 98.64 318.73 98.87 318.6 99.05C318.66 99.28 318.73 99.58 318.79 99.8C318.35 100.22 318.08 100.627 317.98 101.02C318.847 101.527 319.99 102.377 321.41 103.57C321.477 104.237 321.583 104.82 321.73 105.32L322.14 105.91L322.32 106.39L321.87 106.86L321.59 106.83L321.17 106.78L320.83 106.74L320.38 106.48C319.707 106.387 319.17 106.147 318.77 105.76L318.38 105.73C317.63 105.34 316.97 104.78 316.17 104.48C316.26 105.73 316.4 107.02 316.54 108.33C317.76 109.4 317.96 109.38 318.89 109.3C319.523 109.413 319.91 109.517 320.05 109.61C320.47 109.46 320.81 109.16 321.23 109.03L321.53 109.34H322.21C322.92 109.34 323.6 109 324.32 109.09C324.46 109.92 324.61 110.95 324.61 110.95C324.35 111.08 324.09 111.39 323.94 111.63L324.3 112.17L324.41 112.64L324.08 113.16C323.37 113.75 322.94 114.1 323.34 114.78C323.45 114.78 323.6 114.8 323.71 114.81C324.59 114.78 325.47 114.74 326.35 114.71C326.34 114.79 326.33 114.86 326.32 114.94C325.5 114.98 324.69 115.02 323.88 115.06C324.06 115.293 324.253 115.693 324.46 116.26L325.1 115.62C325.04 116.23 324.96 117.04 324.89 117.64C323.77 117.127 323.19 116.867 323.15 116.86L322.95 116.76L322.75 117.21C322.84 117.5 322.96 117.88 323.04 118.18C323.15 118.21 323.3 118.26 323.4 118.29H323.41L323.53 118.46C323.55 118.57 323.58 118.72 323.61 118.83C323.39 119.25 322.99 119.52 322.71 119.89C322.9 120.37 323.34 120.67 323.59 121.11C323.48 121.31 323.29 121.55 323.12 121.71C323.17 121.94 323.23 122.24 323.27 122.47C323.5 122.8 323.84 123.06 323.97 123.46C324.323 123.913 324.827 124.253 325.48 124.48C325.67 124.34 325.98 124.23 326.21 124.23C326.28 124.33 326.37 124.47 326.45 124.57L326.59 125.04L326.63 125.3L326.51 125.71L326.72 125.94L327.27 126.28V126.51L326.92 126.79L326.53 126.88C326.3 126.88 326.07 126.9 325.83 126.9L325.56 127.03C325.56 127.15 325.54 127.31 325.54 127.42C325.77 127.52 326.09 127.58 326.34 127.57C326.41 127.67 326.51 127.8 326.58 127.9C326.35 127.91 326.04 127.9 325.81 127.87C325.39 128.25 324.86 127.97 324.41 128.1C323.883 127.753 323.51 127.527 323.29 127.42C322.93 127.26 322.54 127.19 322.19 127.01C321.823 127.17 321.123 127.043 320.09 126.63H319.64L318.39 126.49L318.32 126.51C318.11 126.57 317.89 126.59 317.68 126.65C317.45 126.72 317.23 126.83 317.01 126.9H316.91V126.91C316.58 126.99 316.45 127.25 316.19 127.78C315.75 128.4 315.05 128.88 314.76 129.09C314.41 129.33 314.35 129.37 314.29 129.49L314.33 129.53C314.41 129.6 314.53 129.53 314.61 129.6C314.7 129.67 314.67 129.82 314.78 129.88C314.78 129.88 314.91 129.9 315.06 129.9C315.17 129.9 316.1 129.77 316.11 129.76L316.69 129.53C316.79 129.48 316.87 129.39 316.99 129.38C317.13 129.36 317.24 129.46 317.38 129.45H317.4H317.42H317.51H317.54H317.62C317.83 129.45 318.02 129.36 318.23 129.36C318.34 129.36 318.4 129.42 318.43 129.44C318.51 129.44 318.62 129.42 318.71 129.42L318.89 129.39C319.863 129.11 320.57 129.043 321.01 129.19C321.45 129.337 321.84 129.247 322.18 128.92C322.613 129.1 322.93 129.273 323.13 129.44L323.1 129.84C323.11 129.93 323.13 130.04 323.15 130.12C324.3 130.47 325.42 129.62 326.57 130.01C326.53 130.13 326.47 130.29 326.43 130.4C325.94 130.31 325.89 130.3 325.35 130.6H325.29H325.22H325.14L324.97 130.61H324.89C324.89 130.61 324.85 130.61 324.68 130.88C324.46 130.9 324.18 130.94 323.97 131C323.52 130.41 322.61 130.33 322.38 129.51C321.49 129.78 320.61 129.25 319.72 129.51C319.49 129.63 319.19 129.8 318.96 129.93L318.77 130.01C318.83 130.67 318.9 131.33 319.29 131.89C319.84 132.08 319.92 132.19 320.18 132.56C320.027 133.013 319.68 133.437 319.14 133.83C319.23 134.77 319.32 135.71 319.5 136.52C319.927 135.913 320.273 135.513 320.54 135.32C322.11 133.7 323.24 132.53 325.59 131.78C325.7 131.94 325.84 132.15 325.95 132.31C325.883 132.37 325.407 132.547 324.52 132.84C321.91 134.19 321.83 134.29 321.17 135.06L320.71 135.73C320.34 136.16 319.87 136.76 319.45 137.14C319.52 137.88 319.59 138.62 319.76 139.34C320.44 139.22 321.09 138.97 321.78 138.88C321.82 138.98 321.88 139.12 321.92 139.23C321.16 139.86 320.95 140.02 319.7 140H319.67C319.54 140.03 319.4 140.07 319.27 140.09L319.11 140.11C318.92 140.21 318.72 140.43 318.56 140.57L318.65 140.99L318.63 141.77L319.4 142.05C319.527 142.143 319.697 142.233 319.91 142.32C321.94 143.4 322.71 140.5 324.52 140.76L325.58 140.81L325.72 141.11C325.61 141.2 325.46 141.31 325.35 141.4C324.517 141.167 323.803 141.2 323.21 141.5L323.04 141.78C322.06 143.367 321.777 145.24 322.19 147.4C322.3 147.47 322.44 147.56 322.55 147.63C322.623 147.577 322.857 147.29 323.25 146.77C324.36 146.77 324.36 146.77 324.73 147.26C324.71 147.38 324.68 147.54 324.66 147.67L324.06 147.93L323.5 148.24L323.06 148.37C321.92 150.39 322.69 151.39 323.54 151.88C324.66 150.16 324.87 149.33 325.1 148.37C325.34 148.19 325.65 147.93 325.86 147.72L326.6 147.96C326.78 147 326.22 146.02 326.69 145.06C326.97 145.74 327.39 146.35 327.74 146.99C328.42 147.2 329.19 147.13 329.79 147.6C330.32 148.24 330.19 149.17 330.73 149.82C331 150.08 331.37 150.43 331.64 150.69C331.64 150.82 331.64 150.98 331.63 151.11C331.43 151.163 330.657 151.01 329.31 150.65C329.16 151.25 329.33 151.93 328.87 152.45C328.64 152.44 328.33 152.47 328.11 152.52L327.4 152.73L327.27 153.69C327.037 153.903 326.7 154.043 326.26 154.11L326.17 154.35C325.58 156.08 325.72 156.11 326.39 156.28C326.6 156.15 326.88 155.99 327.11 155.88C327.31 155.98 327.6 156.05 327.82 156.08C327.87 156.18 327.94 156.32 327.99 156.42L327.85 156.9L327.69 157.44L328.28 157.9C328.24 158.2 328.18 158.61 328.14 158.91C328.4 158.977 328.92 159.06 329.7 159.16C329.51 159.33 329.25 159.55 329.06 159.71C330.16 160.357 331.02 160.583 331.64 160.39C331.72 160.46 331.83 160.56 331.91 160.63C331.87 160.88 331.75 161.2 331.63 161.42C331.66 161.52 331.7 161.66 331.73 161.77L332.15 162.34L332.06 162.94L331.65 163.35C330.57 165.09 333.11 165.79 333.63 165.91C333.8 166.31 333.75 166.77 333.91 167.17L334.21 167.57L334.85 167.85C335.44 167.82 335.83 167.32 336.38 167.19C336.31 167.29 336.22 167.43 336.16 167.53C336.2 167.64 336.25 167.77 336.29 167.88C336.74 167.97 336.83 167.99 337.12 168.52C336.87 168.68 336.55 168.93 336.37 169.17C336.53 169.34 336.8 169.5 337.02 169.56C337.1 169.97 337.05 170.4 337.16 170.81C337.37 170.87 337.64 170.96 337.84 171.03L338.01 171.13C338.643 171.563 338.96 171.937 338.96 172.25C338.89 172.46 338.79 172.75 338.72 172.96C338.853 173.22 339.147 173.47 339.6 173.71L340.06 173.46L340.47 172.92C340.56 172.82 340.68 172.68 340.76 172.57C340.82 172.68 340.91 172.83 340.98 172.94C341.2 173.27 341.48 173.73 341.74 174.02L341.35 174.26L340.89 174.56C341.16 175.3 341.52 176.3 341.79 177.04C342.06 177.14 342.43 177.26 342.7 177.33C343.54 176.75 343.75 175.44 345.02 175.36C345.08 175.61 345.18 175.95 345.26 176.2C348.22 176.68 349.03 174.2 349.42 173.02C349.53 172.98 349.67 172.92 349.78 172.88C350.113 173.76 350.503 174.237 350.95 174.31C351.3 173.84 351.32 173.82 351.81 173.09C352.28 174.57 351.22 175.85 351.26 177.28C351.713 177.567 352.59 177.557 353.89 177.25C353.76 178.27 353.96 178.48 354.41 178.71C354.64 178.62 354.95 178.53 355.19 178.48C355.22 178.71 355.1 179.02 355.04 179.25C354.37 181.64 355.82 180.74 357.23 179.87C357.34 179.9 357.48 179.94 357.58 179.97C357.63 180.08 357.69 180.23 357.74 180.34C358.06 180.413 358.437 180.457 358.87 180.47C358.897 180.537 359.03 180.913 359.27 181.6C359.5 181.48 359.74 181.22 359.88 180.99C359.57 179.97 360.29 180.09 360.98 180.21C361.6 179.36 361.5 179.17 361.3 178.75C359.78 178.47 359.63 177.85 359.53 177.43C361.54 177.52 361.63 177.28 361.84 176.68H361.82C361.82 176.68 361.82 176.68 361.67 176.48C361.67 176.36 361.65 176.21 361.65 176.09C362.53 175.33 362.54 175.33 362.87 174.94C362.74 173.96 362.18 173.1 362.13 172.09C362.623 171.583 362.617 170.68 362.11 169.38C362.723 169.02 363.103 168.33 363.25 167.31V167.26L363.21 167.13L363.17 166.94C363.16 166.86 363.14 166.79 363.13 166.71L363.08 166.46C363.07 166.38 363.05 166.29 363.04 166.21C363.02 166.14 363.01 166.06 362.99 165.99C362.98 165.93 362.97 165.87 362.93 165.69C363.083 164.75 362.087 163.533 359.94 162.04C359.94 162.04 359.65 160.08 361.76 160.83C363.53 161.46 364.28 159.87 363.85 158.5C365.88 156.28 365.75 155.98 365.49 155.37C365.26 155.29 364.93 155.23 364.69 155.21C364.383 154.783 364.25 154.4 364.29 154.06C364.51 154.11 364.81 154.14 365.04 154.13C365.19 153.97 365.35 153.72 365.44 153.53C365.79 153.7 366.03 154.02 366.33 154.26C367.2 152.18 366.55 151.27 366.17 150.72C365.41 149.65 364.07 150.58 363.2 149.86C363.85 149.54 364.33 148.94 365.06 148.75C366.56 149.76 366.9 147.89 366.9 147.57C366.9 147.54 365.71 145 364.66 145.22C363.26 145.51 363.16 144.92 362.93 143.61C363.15 143.55 363.45 143.52 363.67 143.54C363.783 143.413 364.48 143.547 365.76 143.94C366.51 143.41 366.5 142.2 367.57 141.97C367.61 141.75 367.57 141.44 367.46 141.25C366.63 141.29 366.15 140.81 365.99 140.65C366.017 140.343 366.187 139.943 366.5 139.45C369.82 139.177 371.467 138.283 371.44 136.77C371.6 136.63 371.87 136.49 372.08 136.46C372.17 135.54 371.74 134.6 372.18 133.7C372.82 133.68 372.82 133.68 373.24 133.95C372.14 137.42 372.23 137.64 372.34 137.93C372.93 139.43 373.56 138.93 373.9 138.67C374.63 138.11 373.56 137.37 373.9 136.72C374.267 137.007 374.6 137.18 374.9 137.24C375.327 136.467 375.91 136.353 376.65 136.9C376.77 136.86 376.92 136.81 377.04 136.77C376.11 135.43 376.98 135.24 377.35 135.15C377.82 135.72 378.46 135.99 378.91 136.12C378.97 135.74 378.82 135.34 378.95 134.96C379.06 134.93 379.21 134.88 379.32 134.85C379.61 134.3 379.24 133.44 380.06 133.14C381.58 134.03 382.68 132.74 382.69 132.73C383.45 131.75 382.3 130.83 382.61 129.86C382.78 130.02 383.03 130.2 383.25 130.3C383.6 129.94 383.7 129.84 383.66 128.41C383.51 123.1 385.44 121.04 386.6 120.29C387.29 120.07 387.42 119.97 387.38 119.22C387.36 118.96 387.34 118.91 387.16 118.74C386.99 118.58 386.75 118.57 386.57 118.46C386.17 118.22 386.03 117.77 385.73 117.46C385.6 117.33 385.59 117.32 385.39 117.21C385.69 117.98 386 118.74 386.29 119.51C385.98 118.73 385.64 117.92 385.19 117.02C385.08 116.81 384.92 116.53 384.79 116.33C384.82 116.22 384.87 116.07 384.9 115.96L388.33 117.58C388.73 117.8 388.86 117.93 389.17 118.29C389.35 118.5 389.38 118.51 389.52 118.54C389.53 118.54 391.32 118.8 390.9 117.24L390.98 117.14C391.52 117.2 391.91 117.58 392.38 117.78C394.23 116.99 393.25 116.58 393.24 116.58C393.03 116.5 392.85 116.75 392.64 116.62C392.38 116.46 392.35 116.15 392.35 116.02C392.637 115.847 392.79 115.737 392.81 115.69C393.56 115.75 393.86 116.57 394.57 116.7C394.89 116.31 394.92 115.74 395.34 115.41C395.78 115.06 396.39 115.78 396.77 115.21L398 113.99L398.73 114.02C399.42 114.23 401.01 112.53 401.13 112.09C401.19 111.85 401.25 111.83 401.4 111.77C401.85 111.6 402.33 112.23 402.74 111.75C403.007 111.437 403.243 111.257 403.45 111.21V111.05C403.73 110.91 403.87 110.65 403.96 110.36C404.96 109.97 405.53 109.23 405.75 108.38C406.07 108.12 406.26 107.9 406.26 107.9C407.63 107.77 408.96 108.18 410.32 108.22C411.853 110.86 412.7 113.033 412.86 114.74L413.92 116.78L413.82 117.44C413.18 118.48 412.23 119.31 411.8 120.48C411.14 120.82 410.98 120.81 410.76 120.79C410.58 120.95 410.467 121.19 410.42 121.51C410.45 121.77 410.48 122 410.52 122.23C410.66 122.983 410.987 123.533 411.5 123.88L411.72 123.83C411.713 123.29 411.847 122.767 412.12 122.26C412.25 122.24 412.44 122.24 412.57 122.25C412.73 122.27 412.74 122.27 412.74 122.27H412.77H412.79H412.81H412.83H412.86C413.48 122.31 413.95 121.76 414.58 121.83C415.43 121.92 415.5 121.97 415.7 122.58C415.71 122.61 416.65 125.33 418.28 124.83C418.2 124.43 417.9 124.1 417.92 123.67C418.473 123.19 418.687 122.633 418.56 122C418.33 120.86 417.24 120.17 417.01 119.04C417.09 119.03 417.19 119.02 417.27 119C417.31 118.93 417.63 118.29 417.58 117.87C417.42 116.42 415.66 115.84 415.64 114.3C415.63 112.91 416.62 111.68 416.26 110.24C416.22 110.09 416.1 109.9 416.03 109.76C414.877 107.547 413.977 105.23 413.33 102.81C413.4 102.95 413.48 103.14 413.55 103.28C413.57 102.65 413.5 100.9 413.5 100.9C412.37 100.95 411.87 98.38 412.8 97.32C413.78 96.21 414.11 94.6 414.11 94.59L412.56 91.76C411.72 90.73 412.44 89.39 411.87 88.31C411.87 88.3 411.22 87.13 410.07 87.03C409.98 87.03 409.85 87.06 409.76 87.08C409.72 87.16 409.67 87.26 409.63 87.34C408.15 85.7867 407.673 84.7567 408.2 84.25C408.81 83.66 407.8 82.57 406.97 82.45C406.09 82.43 405.82 82.66 405.26 83.54C405.91 83.61 405.55 89.59 405.49 90.18C405.12 90.01 404.68 89.87 404.13 89.78C404.04 90.01 403.93 90.33 403.84 90.56C403.21 90.11 402.98 89.33 402.4 88.84C402.31 88.86 402.18 88.88 402.1 88.9C401.78 88.44 401.58 88.1366 401.5 87.99C400.22 87.72 399.72 85.55 398.09 86.31C397.89 86.2 397.63 86.06 397.43 85.95L396.09 85.35C395.18 85.11 394.36 84.57 393.38 84.55L392.82 84.11C392.48 83.23 392.14 82.32 389.85 81.25C389.903 81.1033 389.717 80.59 389.29 79.71C388.917 79.7833 388.26 79.6566 387.32 79.33H387.27H387.2H387.1L386.98 79.36L386.84 79.38L386.7 79.4L386.57 79.42L386.45 79.44C385.38 79.69 384.2 79.85 383.79 78.65C384.75 79.02 386.54 79.09 386.55 79.08C387.3 78.87 386.82 77.92 387.42 77.62C387.51 77.65 387.63 77.7 387.72 77.73C387.75 77.63 387.79 77.5 387.82 77.4C387.91 77.61 388.02 77.91 388.07 78.14C389.49 78.66 391.02 78.32 392.46 78.74C392.48 76.76 389.86 77.67 388.64 76.96V76.63C388.57 76.56 388.47 76.47 388.4 76.4C388.14 76.4266 387.893 76.6333 387.66 77.02C387.27 76.91 387.02 76.74 387.02 76.25C387.11 76.18 387.23 76.08 387.31 76.01L388.01 76.29C388.11 76.29 388.24 76.27 388.33 76.26C388.58 75.82 388.54 75.29 388.7 74.83C388.88 74.79 389.11 74.73 389.29 74.69C390.577 74.5967 391.767 74.8433 392.86 75.43C392.05 75.6 392.03 75.58 391.02 74.82C390.92 74.85 390.8 74.9 390.7 74.93C390.68 75.02 390.64 75.15 390.62 75.23C390.4 75.25 390.12 75.23 389.9 75.19C389.91 75.31 389.93 75.46 389.95 75.58C390.27 76.05 390.45 76.34 390.64 76.63C391.88 77.25 393.36 77.27 394.5 78.14C396.3 77.8 396.47 75.09 398.65 75.32C398.66 75.3 399.59 73.61 396.13 71.92C395.983 72.32 395.067 72.3233 393.38 71.93C393.24 72.08 393.05 72.28 392.9 72.42C392.59 72.4 391.6 72.25 391.94 70.99C392.39 70.99 392.55 70.96 392.97 70.84C393.923 71.3466 394.467 71.6233 394.6 71.67C394.67 71.46 394.76 71.19 394.82 70.98C395.553 70.9 396 70.52 396.16 69.84L396.35 69.78C396.77 69.66 397.23 69.71 397.61 69.46C397.4 68.45 398.5 66.84 397.11 66.42L396.84 66.5C396.78 66.58 396.7 66.69 396.64 66.77C396.16 66.79 395.84 66.44 395.43 66.28C395.31 66.44 395.14 66.65 395 66.8C393.97 66.7 394.39 65.45 393.74 65.01C392.94 64.47 391.9 64.84 391.1 64.32C391.01 64.26 390.91 64.16 390.83 64.1C390.79 64.07 389.86 63.31 389.83 62.62C390.79 62.29 392.09 64.22 392.52 63.01L390.99 59.39L390.64 59.01L388.61 57.32C391.49 57.1 397.84 57.05 403.03 60.01L403.17 60.1C403.26 60.15 403.37 60.23 403.46 60.28C404.01 60.65 406.09 62.41 406.1 62.42C406.81 63.1 407.83 63.2 408.61 63.76C409.297 64.2466 409.933 64.9633 410.52 65.91C410.95 66.6 411.76 66.71 412.37 67.13C415.13 69.04 418.38 70.2 420.79 72.64C421.18 73.23 422.12 73.63 422.75 73.94C422.943 74.5533 427.293 77.5967 435.8 83.07C435.79 83.38 435.78 83.79 435.77 84.1C434.68 84.46 434.02 84.67 431.53 83.92C431.27 84.12 430.93 84.39 430.68 84.59C431.407 85.8633 431.71 86.9133 431.59 87.74C429.22 87.51 428.76 84.58 426.54 84.14C427.08 84.57 427.78 85.17 428.29 85.64C428.17 87.62 428.12 88.65 428.14 88.73C426.333 88.03 425.317 87.6066 425.09 87.46C425.23 88 425.37 88.57 425.51 89.11H425.49C425.34 88.55 425.2 87.98 425.05 87.43C424.937 87.3033 424.447 86.7833 423.58 85.87L422.97 84.86L421.55 84.26H421.49L421.34 84.23L421.12 84.2C421.03 84.19 420.95 84.18 420.86 84.17C420.77 84.16 420.69 84.15 420.6 84.14C420.52 84.13 420.44 84.12 420.35 84.11C420.28 84.11 420.22 84.09 420.15 84.09L420.03 84.07C419.89 84.05 419.71 84.01 419.57 83.99C418.46 83.84 418.41 84.08 418.12 85.45C418.027 85.8767 417.103 86.33 415.35 86.81C414.82 87.37 414.08 87.71 413.58 88.31C414.273 89.37 414.61 90.0233 414.59 90.27C414.497 91.67 414.483 92.5033 414.55 92.77C414.59 92.93 419 99.9 419.04 99.96C420.21 101.66 420.4 101.92 420.49 102.21C420.73 102.96 420.29 103.71 420.45 104.46L423.45 112.98C423.45 112.98 427.01 117.14 428.66 118.1C428.68 118.1 430.36 119.17 430.48 119.33C431.48 120.57 431.94 122.14 432.94 123.38C432.87 122.98 432.79 122.6 432.72 122.2C432.84 122.34 432.96 122.47 433.09 122.59C433.19 123.02 433.29 123.43 433.39 123.87C457.02 149.45 458.1 148.66 462.63 145.31C462.93 145.46 463.32 145.66 463.62 145.81C463.89 145.62 464.24 145.37 464.51 145.18C467.68 148.84 472.25 151.13 474.62 155.57C475.66 157.53 477.14 159.1 478.71 160.6C479.25 162.98 479.24 163.09 479.08 164.27C478.19 164.54 477.03 165.04 476.23 165.52C476.423 166.46 476.04 167.82 475.08 169.6C472.2 176.24 475.83 181.28 478.57 186.54L478.32 187.38L477.96 188.12C478.53 188.16 479.05 188.32 479.53 188.53C480.34 190.33 480.95 192.18 481.06 194.15C481.98 194.08 483.19 193.81 484.05 193.49C484.54 195.45 482.52 197.59 484.47 199.45C489.2 203.98 497.27 204.73 498.76 187.48L514.99 209.41C514.1 210.45 512.76 211.2 512.64 212.74C513.1 213.01 513.65 213.47 513.99 213.87C513.85 214.537 513.487 215.493 512.9 216.74C514.17 218.13 516.56 218.4 516.9 220.73C516.34 220.57 515.58 220.4 515.01 220.33C514.72 220.82 514.38 221.51 514.18 222.04C513.65 222.01 512.94 221.81 512.46 221.56C512.84 222.52 513.14 223.5 513.42 224.48C512.34 224.38 511.11 223.79 510.63 221.71C508.857 220.797 507.977 218.19 507.99 213.89C508.71 213.27 509.56 212.31 510.12 211.54C507.673 208.293 506.56 206.42 506.78 205.92C505.773 203.54 505.18 202.033 505 201.4C504.56 201.31 503.96 201.18 503.51 201.09C500.263 208.877 499.71 214.907 501.85 219.18C502.31 219.23 502.93 219.3 503.38 219.35C503.66 219.75 504.03 220.28 504.3 220.68C504.09 221.07 503.82 221.6 503.62 222C504.627 223.527 505.64 224.707 506.66 225.54C507.81 227.61 509 229.75 506.42 232.18C495.99 228.79 498.02 245.27 492.29 250.65C488.45 256.53 486.827 260.13 487.42 261.45C486.17 263.23 484.34 264.4 482.81 265.88C482.9 266.81 482.72 268.1 482.36 268.95C478.88 269.22 475.43 267.63 471.94 268.79C475.68 272.89 475.59 273.84 475.43 275.42C466.26 275.01 464.08 274.92 461.66 278.7C462.52 280.893 463.317 282.243 464.05 282.75C464.14 282.81 476.85 290.26 480.15 291.49C480.917 293.517 481.333 294.963 481.4 295.83C481.08 300.28 484.26 304.79 481.2 309.2C481.13 309.31 457.17 313.93 452.53 312.11C446.99 315.39 446.1 317.28 445.72 318.08C448.11 321.18 448.13 321.86 448.18 323.5C449.667 344.007 450.39 354.47 450.35 354.89C453.86 354.99 457.03 352.65 460.64 353.51C463.45 354.17 463.32 358.01 466.16 358.64C466.67 358.76 467.38 358.76 467.9 358.81C470.05 356.42 473.13 354.99 474.82 352.11C476.553 352.423 478.94 352.613 481.98 352.68L482.89 351.93C482.89 351.93 487.62 346.16 490.89 341.91L490.99 341.94H491C491 341.94 491 341.83 491 341.77C491.53 341.07 492.03 340.43 492.45 339.85C492.5 339.93 492.59 340 492.87 340.09C493 339.97 493.04 339.96 493.63 339.96C493.75 340.9 496.11 339.12 496.78 338.34C496.65 338.13 496.57 338 497.01 336.74C497.17 336.293 497.22 335.427 497.16 334.14C496.8 333.82 496.76 333.18 496.76 333.18C496.96 333.11 497.02 333.09 497.16 332.58C497.56 331.08 499.34 331.62 499.69 331.75C499.62 332.07 499.53 332.49 499.46 332.81C499.46 333.21 499.49 334.26 500.17 333.65C500.49 333.36 500.39 332.79 500.86 332.6C500.96 332.68 501.123 333.003 501.35 333.57C501.69 333.64 502.02 333.72 502.36 333.79C502.73 332.17 503.71 333.67 503.75 333.73C503.98 334.08 504.09 334.48 504.26 334.85C503.88 335.163 504 336.343 504.62 338.39C504.38 338.6 504.06 338.87 503.82 339.07C503.82 339.43 503.82 340.17 504.16 340.3C504.25 340.26 504.99 339.79 505.01 339.63C505.14 338.85 504.75 338.1 504.87 337.32C504.98 336.58 505.37 335.91 505.44 335.15V335C505.46 334.86 505.3 333.34 505.29 333.33C505.24 333.11 505.15 332.75 504.46 331.85C503.86 331.07 502.71 331.14 502.12 330.35C501.62 329.69 502.33 328.5 501.27 328.12C501.26 328.12 499.28 327.9 498.95 328C498.68 328.55 499.22 329.29 498.56 329.75C498.06 330.1 497.33 329.43 497.24 329.19C497.167 328.997 497.23 328.613 497.43 328.04C497.07 327.82 497.08 326.92 496.54 327.16C496.067 327.367 495.723 327.373 495.51 327.18C495.16 326.86 495.57 326.41 495.32 326.08C494.89 325.52 494.29 325.15 493.75 324.71C494.68 323.46 495.89 322.5 497.17 321.63L497.89 322.63C497.97 322.73 498.273 322.953 498.8 323.3C499.22 322.94 499.5 322.9 499.63 322.88C499.72 322.86 499.98 322.82 500.2 322.36C500.24 322.27 500.29 322.11 500.18 321.98C500.1 321.89 499.93 321.69 499.89 321.07C499.69 320.93 499.42 320.63 499.2 320.34C499.52 320.14 499.84 319.93 500.16 319.72L500.85 321.59C501.297 322.383 501.5 323.117 501.46 323.79C501.48 323.717 501.51 323.523 501.55 323.21C501.57 323.06 501.59 322.9 501.62 322.75C501.64 322.63 501.65 322.52 501.67 322.4C501.68 322.32 501.69 322.24 501.7 322.15L501.72 321.98V321.88L501.74 321.83V321.81C502.49 321.33 502.61 321.4 502.67 321.44C502.69 321.52 502.7 322.81 502.61 323.52C502.5 324.36 502.03 325.15 502.23 326.04C502.53 325.84 503.73 324.96 503.74 324.95C504.18 324.62 504.77 324.62 505.19 324.24C505.37 324.08 505.54 323.07 505.54 323.06C505.59 322.45 504.98 322.32 504.71 321.94C504.25 321.28 504.22 320.92 504.19 320.6C504.13 319.9 504.103 319.54 504.11 319.52C504.17 319.17 504.62 318.99 504.53 318.56C504.46 318.28 504.37 318 504.3 317.71C504.23 317.44 504.09 317.2 504 316.94C503.96 316.82 503.89 316.64 503.75 316.47C503.87 316.3 503.98 316.11 504.1 315.93C504.26 316.21 504.53 316.59 505.23 317.59C505.68 318.23 505.64 318.34 505.58 318.52C505.42 318.99 505.65 319.4 505.66 319.4C505.82 319.42 505.94 319.43 506.44 318.88C506.52 318.893 506.603 318.93 506.69 318.99C507.137 319.297 507.443 319.62 507.61 319.96C507.823 320.4 508.04 320.6 508.26 320.56C508.26 320.14 508.38 319.72 508.33 319.3C508.25 318.69 508 318.13 507.87 317.53L507.9 317.58V317.39C507.81 316.66 507.85 315.86 507.99 315.24C508.063 314.927 508.287 314.4 508.66 313.66C509.147 312.687 509.423 312.083 509.49 311.85C509.03 311.56 509.05 309.58 509.36 309.45L509.45 309.43C509.39 309.377 509.273 309.33 509.1 309.29C506.53 308.73 507.53 310.97 507.55 311C507.63 311.12 507.73 311.27 507.81 311.39C508.09 311.81 508.25 312.063 508.29 312.15C508.42 312.47 508.37 312.83 508.52 313.14C508.47 313.22 508.38 313.3 508.3 313.34C507.79 313.54 507.24 313.21 506.74 313.46C506.4 313.63 506.25 314.07 505.85 314.16C505.67 314.2 505.43 314.19 505.24 313.91C505.13 313.73 505.02 313.65 504.87 313.63C505.08 311.69 504.72 309.34 504.85 307.45C504.95 307.19 504.99 306.97 504.92 306.8C505.15 305.32 505.83 304.25 507.61 304.13L507.57 304.24C507.36 304.66 507.02 305 506.84 305.44C506.84 305.45 506.36 306.61 506.54 306.66C506.65 306.69 506.75 306.62 506.85 306.64C506.96 306.66 507.06 306.74 507.17 306.72C507.52 306.16 507.17 305.44 507.58 304.9C507.64 304.82 507.68 304.81 507.81 304.83C508.09 304.87 508.29 304.73 508.4 304.61C508.59 304.41 508.74 304.26 508.85 304.14C509.87 304.17 510.76 304.19 511.55 304.2C511.78 304.64 512 304.87 512.18 304.89C512.21 304.89 514.74 304.66 515.22 303.98C517.81 303.48 518.69 301.98 521.02 297.95C521.34 297.48 522.17 297.28 522.7 297.09C523.56 295.07 530.76 294.85 530.82 294.86C535.16 302.55 543.95 305.16 549.65 311.3C550.07 311.15 550.63 310.95 551.04 310.81C551.73 311.42 552.49 312.43 552.9 313.25C556.18 314.12 557.27 315.46 557.6 318.78C556.22 320.33 555.77 322.34 555.94 324.45C555.86 324.46 555.79 324.48 555.7 324.5C554.19 325.3 553.87 327.26 552.28 327.97C551.63 328.26 550.55 328.15 549.9 328.08C548.59 327.94 548.37 327.99 547.54 328.17C547.82 328.09 548.1 328 548.38 327.92C547.28 327.24 546.37 327.81 545.92 329.34C545.69 329.39 545.47 329.43 545.27 329.47C545.08 329.02 544.82 328.42 544.63 327.96C544.16 327.81 543.54 327.6 543.08 327.44C537.627 330.72 534.65 332.247 534.15 332.02C529.67 334.353 527.06 335.87 526.32 336.57C525.77 336.54 525.03 336.5 524.47 336.47L523.84 335.8C515.2 337.64 508.94 340.64 504.53 343.56C504.56 343.44 504.58 343.31 504.66 343.21C504.8 343.02 505.13 343.07 505.18 342.77C505.23 342.46 505.07 342.07 504.82 341.5C504.51 341.67 504.31 342.06 504.28 342.53C504.26 342.88 504.35 343.4 504.41 343.64C498.23 347.76 495.76 351.71 495.59 351.99C492.73 354.02 487.48 352.82 487.44 352.79C487.01 352.97 486.43 353.21 486 353.39C483.29 354.84 482.73 354.69 481.07 354.24H481.05L480.98 354.26H480.96L480.94 354.27H480.92C480.92 354.27 480.9 354.27 480.27 354.38C477.43 353.013 475.613 352.257 474.82 352.11C472.38 356.27 471.54 361.16 468.89 365.22C457.1 371.96 460.4 387.13 451.86 395.68C448.99 400.36 442.8 400.79 439.67 405.15C439.4 405.97 439.14 407.09 438.98 407.94C433.72 416.63 429.92 422.9 427.17 427.46C426.98 427.35 426.78 427.24 426.62 427.14C426.45 427.33 426.21 427.58 426.04 427.77L425.79 428.12H425.78C423.76 429.53 421.21 429.4 419.06 430.43C418.91 430.17 418.72 429.83 418.57 429.57C418.337 429.677 416.95 430.063 414.41 430.73C413.257 429.397 412.667 428.703 412.64 428.65C411.82 429.577 410.867 430.363 409.78 431.01C409.53 430.11 409.46 429.18 409.28 428.28C407.78 429.613 406.793 430.567 406.32 431.14C406.98 432.15 406.92 433.4 407.38 434.48C407.11 434.95 406.87 435.66 406.82 436.21C407.71 436.91 408.95 436.47 409.86 437.12C409.82 437.38 409.76 437.73 409.72 438C409.23 438.27 408.48 438.48 407.93 438.52C408.17 438.63 408.49 438.77 408.73 438.87C408.663 439.197 409.14 441.4 410.16 445.48L408.98 446.66C406.5 447.77 405.14 450.54 402.31 451.11C400.76 450.01 400.6 449.9 394.85 454.84C394.53 454.78 390.6 455.84 390.25 457.11C389.883 457.223 389.07 457.573 387.81 458.16C387.15 458.42 387.15 458.41 387.15 458.41C387 458.61 386.8 458.87 386.65 459.07C384.903 458.783 383.863 458.497 383.53 458.21C383.29 458.25 382.97 458.3 382.73 458.34C381.72 456.86 381.97 454.86 380.7 453.49C382.053 443.27 382.66 435.383 382.52 429.83C384.44 427.93 383.44 419.74 381.09 418.15C379.96 419.76 374.9 429.6 374.85 429.69C371.75 435.923 369.507 438.623 368.12 437.79C364.09 439.23 363.79 440.76 362.81 445.82C362.51 447.36 360.733 450.42 357.48 455C358.41 460.09 352.93 467.6 345.45 468.79C344.84 470.19 343.12 470.19 342.29 471.31C342.383 471.47 340.617 475.357 336.99 482.97C336.6 482.53 336.27 481.8 336.12 481.23C335.04 481.61 334.52 482.75 333.47 483.16C333.26 483.04 332.97 482.88 332.75 482.76C331.28 484.52 329.68 489.61 329.67 489.65C328.517 490.243 325.803 493.01 321.53 497.95C321.31 497.84 321.01 497.7 320.79 497.59C320.51 496.75 320.28 495.88 319.98 495.04C319 497.75 319.76 500.6 319.3 503.35C318.6 507.6 316.8 511.62 316.53 515.96C316.47 520.7 317.39 525.34 317.94 530.02C317.79 530.11 317.78 530.11 317.78 530.11H317.76C315.48 532.44 312.6 534.11 310.57 536.71C310.52 536.36 310.46 535.88 310.41 535.53C307.79 535.497 305.887 535.02 304.7 534.1C310.72 534.247 314.327 532.45 315.52 528.71C305.57 525.87 304.87 529.47 304.3 532.36C303.42 531.85 302.42 531.27 301.68 528.66C306.327 522.86 307.287 519.363 304.56 518.17C298.5 502.04 290.29 501.86 287.59 501.8C287.5 501.79 278.24 501.16 277.18 502.19C276.9 502.01 276.52 501.78 276.23 501.6C271.25 503.23 268.82 497.5 264.41 497.49C262.22 490.76 254.46 487.12 249.65 488.87C249.697 488.203 250.23 487.177 251.25 485.79C249.71 483.61 249.65 483.52 247.52 483.86C246.94 483.41 246.11 482.9 245.45 482.59C244.86 482.92 243.94 483.16 243.27 483.12C243.18 482.77 243.06 482.31 242.97 481.96C242.3 481.99 241.34 481.7 240.84 481.26C240.85 480.92 240.87 480.47 240.89 480.12C241.59 479.79 242.51 479.33 243.2 478.96C233.51 476.97 223.56 480.38 213.9 477.62C212.953 476.107 212.437 475.107 212.35 474.62C208.15 473.5 205.973 471.993 205.82 470.1C205.19 469.84 204.36 469.46 203.75 469.15C201.78 471.02 201.74 471.8 201.67 473.11C200.09 473.74 198.34 473.87 196.83 474.72C196.31 476.63 197.31 478.12 198.2 479.64C198.11 479.55 198.02 479.49 197.88 479.41C197.22 479.03 196.97 478.24 196.3 477.88C196.1 477.77 195.86 477.77 195.68 477.62L195.56 477.51C195.43 477.83 195.31 478.05 195.05 478.37C194.99 478.45 194.94 478.5 194.89 478.57C195.78 476.9 196.53 474.51 194.35 472.05V471.99C194.57 471.7 194.86 471.31 195.08 471.01C196.48 471.183 197.607 470.87 198.46 470.07C198.8 470.09 199.25 470.12 199.59 470.14C199.59 468.94 199.59 467.99 197.5 467.68C192.85 467.62 183.16 472.46 182.47 473.27C178.63 472.66 178.25 476.6 176.66 479.05C176.74 478.56 176.71 478 176.69 477.58C176.69 477.45 176.68 477.29 176.67 477.16C174.117 475.42 172.353 473.997 171.38 472.89C169.46 470.7 168.48 467.88 166.57 465.69C166.72 464.08 166.32 462.45 166.71 460.85C167.05 459.46 165.67 457.67 167.39 456.64C168.377 452.613 168.223 449.63 166.93 447.69C163.91 442.95 159.12 441.04 159.08 441.03C158.52 440.89 154.17 441.34 154.14 441.36C151.87 441.99 150.15 439.94 147.97 440.09C147.86 440.1 147.71 440.12 147.6 440.13C146.48 440.24 145.37 439.89 144.25 440.14C143.34 440.35 142.92 441.43 141.89 441.43C141.76 441.43 141.59 441.38 141.46 441.35C139.87 439.05 143.73 438.03 143.83 435.92C143.89 434.593 143.5 432.617 142.66 429.99C143.773 429.683 144.35 429.4 144.39 429.14C144.59 427.83 143.27 427 143.28 425.74C143.73 425.31 143.91 425.2 144.27 425.01C144.483 425.25 144.773 426.363 145.14 428.35C145.91 427.19 145.89 427.08 145.81 426.45C145.81 426.41 145.81 420.55 146.56 418.81C146.99 417.79 150.89 414.48 150.93 414.44C150.05 411.71 148.24 411.24 147.47 411.04C147.117 411.1 146.677 411.253 146.15 411.5C145.07 412.007 143.653 411.897 141.9 411.17C140.4 410.55 139.09 411.52 137.68 411.68C136.52 411.81 135.47 411.28 134.36 411.11C132.98 410.9 133.2 413.29 131.81 412.84C131.33 414.86 132.15 416.96 131.42 418.96C131.27 419.37 130.81 419.45 130.57 419.76C129.68 420.88 129.39 422.43 128.04 423.21C128.027 423.337 127.143 423.383 125.39 423.35C125.29 423.15 125.11 422.91 124.95 422.76C123.22 422.97 121.7 423.98 119.94 424.04C119.94 424.17 119.94 424.3 119.94 424.43C119.9 424.43 119.86 424.43 119.83 424.43C119.83 424.3 119.83 424.16 119.82 424.03C119.62 424.01 119.35 423.98 119.15 423.95C119.06 423.94 119.05 423.94 119.05 423.93H119.02H118.99H118.98H118.96H118.95C117.04 423.71 115.18 424.65 113.26 424.16C113.06 423.7 111.33 421.33 110.61 421.23C107.69 420.82 104.71 417.11 101.75 410.2C99.1366 404.087 97.8866 397.94 97.9999 391.76C98.8332 391.24 98.9933 389.523 98.4799 386.61C99.1599 385.75 100.1 385.1 100.57 384.07C100.74 383.45 100.74 383.45 100.75 383.45V383.38L100.86 382.85H100.87H100.89L100.94 382.46L101.01 382.12L100.99 382.09C101.27 379.14 98.8999 376.73 99.2499 373.76C99.5299 371.42 101.72 370.27 102.62 368.32C105.38 368.04 112.19 365.01 112.24 364.98C112.4 364.27 112.5 363.55 112.64 362.84C115.41 363.26 118.33 360.81 120.99 363.29H121C121.36 363.65 123.433 364.147 127.22 364.78C129.48 365.15 130 367.77 132 368.48C132.84 368.78 133.46 368.03 134.23 368.01C134.12 368.12 133.97 368.27 133.86 368.39C133.91 368.52 133.97 368.7 134.02 368.83C135.81 369.26 136.45 368.44 136.67 367.92L137.1 367.76C137.85 368.21 137.78 369.15 138.27 369.75C138.6 369.75 139.21 369.75 139.96 368.92C139.71 368.04 138.94 367.39 138.83 366.44C138.83 366.35 138.83 366.27 138.84 366.19V365.96C138.86 365.89 138.86 365.82 138.86 365.74V365.56L138.88 365.41V365.29L138.89 365.22V365.19L137.85 364.47C137.84 364.32 137.83 364.12 137.82 363.96C136.92 363.34 135.83 363.36 134.84 363.06C135.127 362.687 135.547 362.383 136.1 362.15C137.187 362.643 138.953 362.76 141.4 362.5C142.62 363.49 142.81 363.65 144.44 364.42C144.93 363.93 145.14 363.24 145.6 362.73C145.73 362.74 145.89 362.76 146.02 362.77C147.29 364.86 148.13 364.28 148.53 364C149.14 363.58 149.97 363 156.53 365.17L156.93 366.38C158.943 368.22 161.7 368.69 165.2 367.79C166.52 368.57 170.88 371.54 171.64 376.8C170.86 378.23 169.36 381.8 172.4 384.13C172.43 384.15 175.57 387.12 174.33 390.23C174.85 390.85 175.54 391.68 176.06 392.31C176.67 392.43 177.29 391.79 177.89 392.34C178 392.44 178.17 392.57 178.26 392.69C178.93 393.63 178.38 394.87 179.03 395.82C179.56 396.6 180.66 396.34 181.23 397.05C181.65 396.67 182.21 396.17 182.64 395.8C183.08 394.25 184.59 393.16 184.57 391.41C184.46 391.34 184.32 391.24 184.22 391.16C183.79 388.76 183.54 386.32 183.2 383.91C182.82 381.28 179.61 379.3 181.41 376.16C183.09 373.22 179.13 371.92 178.73 369.5C178.27 366.753 178.253 364.32 178.68 362.2C178.68 362.2 180.05 357.94 187.14 353.86C188.39 353.14 189.94 352.25 192.86 348.6C195.787 348.4 197.57 347.977 198.21 347.33C201.91 343.59 202.62 344.53 202.92 344.93C204.04 344.77 205.21 343.8 205.22 343.79C205.13 343.68 205.03 343.54 204.94 343.43C203.71 343.33 202.5 343.23 201.28 343.13C201.28 343.13 201.28 343.12 201.28 343.11C202.49 343.21 203.68 343.31 204.89 343.4C204.29 343.04 203.52 342.51 202.98 342.07C203.04 341.79 203.14 341.42 203.21 341.14C204.99 340.29 207.46 340.88 208.57 338.61C208.47 338.33 208.33 337.95 208.23 337.67C205.7 336.83 206.84 335.57 207.74 334.89C207.733 334.63 207.78 333.503 207.88 331.51C206.75 330.69 205.45 330.15 204.34 329.3C204.87 329.01 205.57 328.59 206.07 328.25C205.41 326.91 204.723 325.007 204.01 322.54C205.283 322.8 206.607 321.073 207.98 317.36C208.52 319.91 207.66 322.64 209.03 325.07C208.75 325.57 208.33 326.22 207.99 326.69C208.33 327.18 209.02 327.71 209.6 327.89C210.63 327.14 211.79 321.67 211.7 317.97C214.83 320.88 218.4 316 218.42 315.94C218.84 314.55 219.12 313.12 219.54 311.73C219.14 311.3 218.53 310.79 218.02 310.49C218.12 308.72 218.17 308.69 219.33 307.82C219.44 308.43 219.59 309.24 219.7 309.85L221.48 308.7C223.727 307.373 225.487 307.053 226.76 307.74C228.94 306.42 232.05 307.38 233.77 304.9C234.39 304.8 235.4 304.367 236.8 303.6C236.38 301.25 235.43 298.65 235.42 298.62C239.94 291.14 240.64 289.99 252.96 286.94C253.41 286.59 253.92 286.02 254.21 285.53C254.75 285.74 255.59 285.78 256.14 285.59C256.15 285.44 256.15 285.44 256.15 285.45C256.28 284.85 256.37 284.04 256.36 283.43C257.913 283.55 259.147 283.08 260.06 282.02C261.61 283.07 265.96 282.23 266.79 280.33C267.07 280.37 267.45 280.43 267.74 280.48C267.77 281.06 267.7 281.83 267.58 282.4C268.89 282.47 270.2 281.8 271.52 282.37C271.61 282.64 271.72 283.01 271.81 283.28C271.63 283.52 271.39 283.85 271.2 284.09C269.12 283.34 267.18 285.02 265.11 284.42C265.01 284.48 263.003 286.28 259.09 289.82C259.123 290.14 259.06 291.107 258.9 292.72C264.87 294.85 267.02 287.9 271.83 287.28C276.93 286.62 281.05 282.95 286.25 282.59C285.73 282.21 285.12 281.58 284.74 281.07C284.8 280.73 284.88 280.28 284.93 279.94C283.57 279.3 282.51 278.79 280.2 280.82C279.97 280.57 279.67 280.24 279.45 280C278.04 279.94 276.72 280.5 275.33 280.63C274.72 279.83 273.34 279.35 272.38 279.02C271 278.21 267.41 273.72 265.38 270.28C266.1 269.47 266.9 268.72 267.54 267.84C267.43 267.25 267.11 266.5 266.77 266.01C266.45 266.057 265.44 266.327 263.74 266.82C263.55 266.28 263.13 265.62 262.72 265.23C267.913 262.623 270.54 261.03 270.6 260.45C264.89 256.42 258.99 252.26 237.64 270.05C241.25 261.38 251.06 260.23 256.86 254.21C258.69 252.15 258.97 251.83 263.04 250.51C279.23 250.32 279.43 250.47 280.73 251.46C282.04 251.48 283.35 251.49 284.67 251.51C288.83 250.303 291.213 249.557 291.82 249.27L309.79 239.55L310.49 237.97L309.09 236.29L308.53 234.94C309.53 233.13 309.03 230.99 309.77 229.12C308.25 226.51 303.26 225.02 302.58 227.58C302.5 227.87 302.46 228.29 302.42 228.59C301.77 227.34 302 225.9 301.53 224.61C299.39 224.02 299.19 224.13 294.16 226.94C290.6 230.37 289.64 229.55 288.52 228.6C288.51 228.31 288.5 227.93 288.49 227.64C293 226.78 296.94 224.42 301.2 222.9L302.62 222.11C301.073 221.477 300.283 220.547 300.25 219.32C299.45 218.98 298.7 218.67 296.68 219.78C296.36 219.67 295.94 219.52 295.62 219.4C295.49 218.75 295.17 217.91 294.85 217.33C294.56 217.3 294.17 217.27 293.88 217.24C292.767 218.28 291.977 218.873 291.51 219.02C291.66 218.46 291.68 217.67 291.59 217.1C289.02 216.23 289.3 212.18 286.01 212.1C284.6 210.4 282.22 206.69 282.22 206.68C282.87 206.55 283.72 206.3 284.32 206.02C284.43 205.71 284.58 205.28 284.69 204.97C284.37 204.46 284.07 203.69 283.93 203.1C283.42 202.13 282.19 201.72 281.95 200.54C281.79 199.69 282.77 199.63 283.15 199.14C282.29 197.53 280.47 197.07 279.25 195.88C279.28 194.64 278.5 193.76 278.41 193.66C278.16 193.66 277.84 193.7 277.6 193.74C276.23 192.75 277.23 191.34 276.98 190.15C276.667 189.95 275.913 188.87 274.72 186.91C274.8 187.01 274.9 187.15 274.98 187.25C275.11 187.07 275.25 186.72 275.14 186.53L272.57 183.13C272.36 182.53 272.35 182.49 272.25 180.65C271.11 181.3 271.02 182.96 269.62 183.36C269.59 183.53 269.54 183.76 269.51 183.93C269.383 184.297 268.863 184.61 267.95 184.87C267.63 185.96 268.57 186.74 268.62 187.74C268.53 187.82 268.42 187.91 268.33 187.99C268.11 187.94 267.82 187.84 267.61 187.76C267.04 188.43 266.93 189.31 266.53 190.06C266.61 190.14 266.72 190.25 266.8 190.34C267.04 190.32 267.35 190.3 267.59 190.29C266.97 191.61 265.92 192.69 265.54 194.14C265.38 194.11 265.17 194.07 265.02 194.05C264.64 193.49 264.42 192.84 264.12 192.23C264.1 192.23 261.96 192.16 261.39 194.84C259.563 195.507 258.547 195.897 258.34 196.01C258.13 195.59 258.18 195.12 258.09 194.68C257.88 194.58 257.59 194.45 257.37 194.37C256.13 195.59 255.3 196.193 254.88 196.18C254.653 195.927 254.97 194.99 255.83 193.37C255.47 192.31 255.2 190.29 255.21 190.28C254.13 190.16 250.96 191 250.57 192.38C250.46 192.38 250.3 192.38 250.19 192.38C249.23 191.41 249.04 191.03 248.95 189.98C249.04 189.91 249.15 189.82 249.23 189.75C251.54 190.81 251.84 190.16 251.58 188.5C251.53 188.6 251.46 188.73 251.41 188.83L250.26 183.76C250.473 181.393 250.53 180.183 250.43 180.13C250.05 179.94 250.39 179.48 251.01 178.65C252.05 177.24 252.26 176.83 252.57 176.01C251.52 174.94 250.26 175.79 249.1 175.64C248.97 175.44 248.9 175.1 248.95 174.86C248.06 174.73 247.16 174.96 246.27 174.78C244.783 173.307 244.04 172.063 244.04 171.05C244.04 170.71 243.84 169.57 241.26 169.05C240.733 167.123 240.34 165.853 240.08 165.24C240.08 165.24 235.33 163.98 233.1 166.26C232.99 166.24 232.85 166.22 232.74 166.2C231.99 165.04 231.74 164.64 230.86 164.91C230.77 164.85 230.64 164.77 230.55 164.71C230.317 164.81 229.953 165.053 229.46 165.44C229.35 165.4 229.21 165.35 229.1 165.31C229.013 164.95 228.967 164.463 228.96 163.85C228.86 163.78 228.73 163.69 228.63 163.63C228.63 163.41 228.58 163.11 228.5 162.9C227.6 163.04 226.83 163.71 225.85 163.5C225.07 163.33 225.2 162.35 224.57 162.05C222.97 162.45 220.34 163.58 220.11 164.06C219.13 166.05 220.64 169.97 220.66 170C220.06 171.77 218.88 173.31 218.62 175.21C218.44 176.52 219.61 177.52 219.46 178.83C219.27 180.38 220.01 181.94 219.48 183.49C219.39 183.74 218.92 183.77 218.65 183.79C218.36 183.81 217.98 183.88 217.7 183.99C216.53 186.67 213.59 187.94 212.37 190.59C214.32 191.45 215.96 192.82 217.88 193.73C218.33 195.96 219.8 197.91 219.66 200.29C220.81 213.05 207.67 215.32 206.17 215.54C205.96 215.34 205.68 215.07 205.48 214.87C203.8 215.78 202.86 216.29 204.77 230.94C207.22 232.42 206.73 232.97 203.55 236.54C203.79 237.18 204.16 238.01 204.51 238.59C204.22 239.18 203.77 239.95 203.36 240.46C202.6 239.92 201.78 239.283 200.9 238.55C199.15 240.02 198.83 240.29 199.83 241.97C198.277 240.31 196.5 239.863 194.5 240.63C195.52 239.143 196.15 237.947 196.39 237.04C194.46 234.98 193.11 233.31 193.1 233.3C192.53 233.29 191.76 233.41 191.23 233.62C191.63 233.12 192.19 232.48 192.64 232.03C192.06 230.31 190.68 229.09 189.85 227.54C190.41 226.27 190.74 224.9 191.4 223.67C190.75 222 190.77 221.91 191.28 219.69C189.7 217.13 194.03 215.48 192.34 212.9C190.65 210.32 187.82 212.39 185.77 211.28C185.7 210.99 185.6 210.6 185.52 210.31C183.79 210.06 182 210.73 180.31 209.94C180.19 209.32 180.03 208.49 179.89 207.87C177.34 207.23 175.81 204.45 172.92 204.49C172.68 203.89 172.5 203 172.55 202.36C169.757 199.767 168.193 198.383 167.86 198.21C166.72 196.97 166.68 196.94 165.63 196.18C165.34 196.25 164.96 196.34 164.67 196.42C164.25 196 163.82 195.29 163.68 194.72C161.9 193.92 160.54 193.71 159.17 193.51C156.903 194.243 155.2 194.537 154.06 194.39C154.11 194.09 154.19 193.69 154.24 193.4C154.26 192.75 153.61 192.65 152.95 192.54C153.61 192.65 154.26 192.75 154.93 192.85C155.59 192.33 155.73 192.23 155.82 192.07C155.97 191.79 155.87 191.32 155.77 190.86C155.55 189.83 155.41 189.21 155.58 188.01C155.67 187.36 155.68 187.3 155.67 187.02C155.65 186.54 155.43 186.08 155.48 185.59C155.62 184.26 155.8 184.2 155.89 184.17L155.94 184.14C155.96 184.05 155.94 184.02 155.81 183.79C154 181.14 152.92 181.53 151.68 181.99C151.41 181.44 150.97 180.51 150.73 177.62C150.93 177.47 151.2 177.26 151.4 177.11C151.84 176.52 151.86 176.47 151.88 176.41L151.94 176.25L152 176.08L152.06 175.9L152.13 175.7C152.16 175.63 152.18 175.56 152.21 175.48C152.24 175.4 152.27 175.32 152.3 175.24C152.33 175.15 152.37 175.06 152.4 174.98C157.287 166.847 160.283 162.527 161.39 162.02C163.4 161.09 163.48 161.05 163.69 159.34C163.77 159.29 163.85 159.23 163.93 159.17C164.14 159.1 164.35 159.03 164.53 158.96C164.67 158.63 164.8 158.3 164.94 157.96C165.07 157.79 165.19 157.62 165.31 157.44C165.12 157.93 164.93 158.41 164.74 158.9C165.213 158.773 165.83 158.54 166.59 158.2C167.22 157.32 167.13 157.18 166.81 156.7C166.957 156.187 167.99 155.82 169.91 155.6C169.93 154.713 169.95 154.173 169.97 153.98C170.88 153.95 171.52 154.77 172.43 154.73C172.877 154.71 173.537 154.397 174.41 153.79L175.32 153.81C175.89 153.24 175.9 153.23 176.12 152.76C176.04 152.65 175.94 152.51 175.86 152.41C175.01 151.29 175.3 149.09 173.31 149.05C173.24 148.96 173.16 148.83 173.09 148.74C173.18 148.51 173.28 148.21 173.34 147.97C173.25 147.9 173.14 147.82 173.06 147.76C172.49 147.86 171.96 148.08 171.41 148.22C171.41 147.09 170.49 146.37 170.19 145.37C170.6 145.69 170.92 145.95 172.59 146.75C172.43 146.91 172.26 147.17 172.21 147.38C174.76 146.85 175.6 150.11 177.97 149.98C178.27 149.6 178.32 149.58 179.39 149.38C180.563 147.273 181.497 146.763 182.19 147.85C182.45 147.88 182.71 147.92 182.97 147.96C184.737 147.727 186.1 147.343 187.06 146.81L188.33 146.45C188.99 145.15 190.44 144.53 191.09 143.22L192.6 142.17L193.07 141.29L193.67 139.38C193.42 139.35 193.16 139.32 192.91 139.28C192.55 138.95 192.08 138.81 191.68 138.55C194.71 139.05 201.05 133.82 199.56 132.04C199.31 131.74 198.93 131.63 198.64 131.38C198.827 130.833 199.283 130.47 200.01 130.29C200.503 130.723 201.143 130.803 201.93 130.53C203.097 132.803 204.233 133.517 205.34 132.67C205.34 132.67 207.77 133.85 208 132.99C208.08 132.67 208 132.42 207.45 130.79C207.357 130.557 207.067 129.88 206.58 128.76C205.987 128.7 205.623 128.66 205.49 128.64C205.84 128.23 206.41 128.33 206.83 128.06L206.89 128.1C207.06 129.63 208.73 131.58 208.74 131.59C208.91 132.7 208.94 132.93 209.97 134.03C209.99 133.77 209.97 133.39 209.85 133.16C209.89 133.06 210.973 132.473 213.1 131.4C213.14 131.16 213.15 130.81 213.06 130.57C213.807 130.477 214.56 129.957 215.32 129.01C216.09 128.89 217.36 128.71 218.9 125.59C218.95 125.48 218.99 125.33 219.03 125.22C217.23 121.973 216.5 119.577 216.84 118.03C217.3 118.03 217.75 118.03 218.2 118.05C218.31 118.22 218.55 118.41 218.75 118.45C219.7 117.59 221.1 117.32 221.8 116.13C221.333 115.617 220.943 115.433 220.63 115.58C220.16 115.14 220.23 114.95 220.37 114.56C220.84 114.34 221.37 114.27 221.79 113.95C221.84 113.55 221.9 113.01 221.95 112.6C221.11 111.9 219.06 112.06 219.4 110.55C219.33 110.47 219.25 110.38 219.18 110.3C218.95 110.3 218.64 110.32 218.42 110.33C218.5 109.977 218.747 109.727 219.16 109.58C219.27 109.32 219.4 108.97 219.47 108.7C218.69 108.45 217.94 109.11 217.15 108.78C216.67 106.94 211.8 107.31 211.76 107.32C211.69 107.11 211.49 106.85 211.29 106.75C210.79 107.11 210.78 107.12 210.44 107.56C210.52 107.64 210.61 107.75 210.69 107.83C210.6 108.34 210.47 109.01 210.38 109.52C210.3 109.75 210.14 110.03 210.01 110.22C210.03 110.35 210.06 110.51 210.09 110.64C210.26 110.73 210.55 110.78 210.74 110.76C210.83 110.84 210.94 110.94 211.02 111.01C211.08 112.49 211.307 113.263 211.7 113.33C211.67 113.39 211.03 114.63 208.65 114.8C208.59 114.72 208.51 114.62 208.44 114.53C208.34 114.53 208.2 114.53 208.1 114.53C207.76 115.19 205.54 119.65 205.54 119.65C204.9 120.04 204.21 120.36 203.6 120.8C203.18 121.073 202.377 122.197 201.19 124.17C200.86 124.2 200.42 124.23 200.09 124.26C198.93 124.787 198.07 125.54 197.51 126.52C198.08 123.31 195.55 119.63 199.01 116.87C199.12 116.94 199.26 117.04 199.37 117.11C199.38 117.24 199.39 117.41 199.4 117.53C200.43 116.91 200.37 116.04 200.3 114.94C200.45 114.57 200.61 114.19 200.77 113.82L200.72 112.74L200.74 111.67L199.98 111.77L199.41 110.91L198.76 110.43C198.07 108.33 195.36 111.46 195.33 111.49C195.15 111.71 195.08 112.1 194.97 112.36C193.86 112.56 192.93 113.91 192.09 115.1C192.09 115.07 192.71 112.02 194.3 111.32C194.34 111.19 194.41 111.02 194.46 110.89C194.193 110.603 193.81 110.29 193.31 109.95C193.59 109.25 194.193 108.987 195.12 109.16C195.27 108.66 195.44 108.17 195.59 107.66C195.243 107.26 195.043 106.953 194.99 106.74C193.95 106.38 194.12 105.29 193.66 104.58C193.33 104.7 193.08 104.8 192.96 105.46C191.68 106.34 190.12 105.08 190.18 104.63C190.19 104.51 190.3 104.38 190.35 104.28C190.25 104.31 190.11 104.35 190.01 104.38C193.53 102.41 193.64 102.4 194.07 102.38C194.12 102.47 194.18 102.59 194.23 102.67C194.33 102.67 194.47 102.69 194.57 102.69C195.18 101.91 195.71 101.23 194.95 100C193.97 99.8 193.79 97.69 193.81 95.95C193.83 94.73 194.98 93.95 195.04 92.74C194.91 91.75 194.86 91.41 194.83 89.91C193.91 89.4633 193.293 88.9066 192.98 88.24C194.813 87.7333 196.12 87.1066 196.9 86.36L198.35 85.39L198.44 84.58C198.8 83.58 198.89 83.35 200.39 83.3C201.403 83.18 201.993 83.19 202.16 83.33C202.38 83.52 203.07 84.11 204.48 83.27C204.847 83.05 205.477 82.2433 206.37 80.85C206.563 80.55 206.863 80.3466 207.27 80.24C207.43 80.2 207.64 80.11 207.64 80.11L209.44 78.8L211.44 76.74C211.63 76.49 211.83 75.77 211.82 75.77C211.75 75.54 210.83 74.81 210.82 74.81L208.55 74.49C208.55 74.49 208.24 74.46 207.91 74.5H207.84C207.88 74.34 207.9 74.16 207.78 73.99C207.68 73.85 207.5 73.91 207.39 73.81C207.21 73.64 207.3 73.27 206.96 73.22C206.78 73.2 206.67 73.2 206.46 73.21H206.36C202.393 73.47 200.103 74.17 199.49 75.31C199.29 75.14 199.03 74.92 198.84 74.75C194.84 79.17 195.07 86.37 189.12 89.5C188.99 90.05 188.78 90.79 188.57 91.32C187.6 91.15 185.32 90.76 182.83 95.56C183.02 96.06 183.28 96.73 183.48 97.23C181.07 98.84 179.1 101.98 181.84 103.45L182.59 103.98C182.93 104.66 183.82 105.28 184.47 105.68C183.73 107.52 181.46 109.98 181.44 110C181.6 110.22 181.82 110.52 181.98 110.74C182.62 110.513 183.38 109.937 184.26 109.01C184.06 112.8 181.1 113.75 176.99 115.06C173.18 116.28 173.86 120.49 171.78 122.87C172.26 121.23 172.513 120.33 172.54 120.17C172.06 119.96 171.48 119.56 171.11 119.19C171.16 117.71 171.72 117.48 172.65 117.09C173.15 116.67 173.17 116.63 173.19 116.59L173.26 116.45L173.34 116.3L173.5 115.99L173.58 115.84L173.65 115.71L173.71 115.59C173.98 115.13 174.26 114.47 174.38 113.96C174.14 113.84 173.82 113.67 173.58 113.55C173.53 113.36 173.45 113.1 173.39 112.91C173.14 113 172.81 113.12 172.56 113.2C172.36 113.04 172.09 112.83 171.89 112.67C171.99 112.15 172.03 111.44 171.97 110.91C171.737 110.83 170.647 111.12 168.7 111.78C168.32 111.48 167.68 111.23 167.2 111.2C167.45 112.33 167.59 112.94 164.51 115.8C164.35 115.59 164.13 115.32 163.97 115.12C164.12 114.88 164.33 114.55 164.48 114.31C161.75 114.3 159.02 114.22 156.29 114.23C155.68 113.04 153.56 112.98 153.85 111.15C153.69 110.95 153.48 110.68 153.32 110.48C152.74 110.467 151.87 110.32 150.71 110.04C150.077 107.307 150.11 105.027 150.81 103.2C148.14 100.9 139.64 104.53 139.37 105.95C139.32 106.21 139.46 106.57 139.49 106.84C140.757 106.993 141.6 106.97 142.02 106.77H142.07L142.11 106.79H142.14L142.16 106.8H142.17C144.07 105.74 146.38 106.59 148.28 105.52C148.22 105.8 148.13 106.17 148.06 106.44C145.22 107.84 141.83 107.67 139.16 109.56C139.03 111.61 137.7 115.89 137.68 115.92C137.47 115.77 137.18 115.56 136.96 115.41C136.62 115.683 136.13 116.447 135.49 117.7C135.45 117.39 135.39 116.97 135.35 116.66C134.97 116.38 134.62 115.78 134.55 115.32C136.31 114 137.307 112.867 137.54 111.92C137.08 111.69 136.35 111.57 135.85 111.67C135.87 110.05 135.92 109.99 136.73 108.95C135.49 108.04 135.49 107.79 135.52 106.75C135.29 106.6 134.98 106.41 134.75 106.26C134.15 106.453 133.28 106.523 132.14 106.47C131.28 107.3 130.47 108.08 127.34 106.44C126.07 106.91 125.74 106.74 125.12 105.85C124.84 105.81 124.48 105.75 124.2 105.71C124.06 105.21 123.95 104.51 123.92 103.99C123.66 103.99 123.31 103.99 123.04 103.98H123.03C122.83 103.8 122.57 103.56 122.38 103.37C123.69 101.85 126.3 103.49 127.36 101.34C128.28 99.48 128.08 95.82 126.26 95.48C125.11 95.26 123.91 95.69 122.77 95.25C121.423 92.1633 120.353 90.48 119.56 90.2C119.67 89.62 119.89 88.86 120.12 88.32C117.827 85.82 116.597 84.55 116.43 84.51C114.45 84.02 113.59 86.66 111.64 86.25C112.63 84.6 115.69 81.55 115.73 81.52C115.54 81.35 115.3 81.12 115.11 80.94C112.69 81.81 111.2 84.02 108.95 85.15C110.26 81.75 114.72 79.58 112.92 74.97C110.173 77.8233 107.987 79.42 106.36 79.76C105.53 78.83 105.28 78.55 102.25 79.94C101.57 80.59 100.89 81.24 100.21 81.89C100.19 81.88 100.17 81.87 100.15 81.85C100.77 81.25 101.39 80.64 102.02 80.05L101.44 80.32C101.04 80.49 100.49 80.69 100.07 80.8C100.15 80.63 100.25 80.4 100.32 80.24C100.3 80.18 100.27 80.1 100.24 80.03C101.22 79.8 102.19 79.51 103.1 79.02C104.06 78.12 105.01 77.23 105.97 76.34C104.8 76.42 103.75 77.43 102.49 76.85C100.83 77.49 98.9899 77.57 97.4099 78.48C97.3199 78.33 97.1999 78.14 97.1199 77.99C96.7599 78.11 96.2799 78.26 95.9099 78.37C97.0166 77.5433 97.5666 76.7933 97.5599 76.12C96.7399 76.24 96.0999 76.8 95.3299 77.05C94.4232 76.53 92.7566 77.6633 90.3299 80.45C90.4099 80.13 90.5099 79.71 90.5899 79.38C90.5999 79.2 90.6199 78.97 90.6299 78.79C90.5899 78.39 90.6099 78.37 90.6299 78.36L90.6099 78.34C89.4966 77.6866 89.6199 75.9233 90.9799 73.05L92.1399 72.09L91.7699 71.83H91.7599C91.5999 71.85 91.3799 71.89 91.2099 71.92C90.8166 71.34 90.4066 70.9866 89.9799 70.86C89.6899 70.7 89.6799 70.7 89.6699 70.71L89.6499 70.69L89.6299 70.67C90.2899 68.92 91.2499 67.29 91.6799 65.45C91.2732 65.11 90.6999 64.9967 89.9599 65.11C89.7399 64.86 89.4999 64.47 89.3799 64.15C89.9099 63.56 90.2399 62.84 90.8099 62.28C90.1499 61.66 89.9999 61.63 89.2599 61.59C89.7533 59.13 89.8799 57.59 89.6399 56.97C89.7599 56.83 89.9199 56.65 90.0399 56.51C89.6499 56.6 89.1199 56.68 88.7199 56.73C89.6266 55.5566 90.0899 54.8533 90.1099 54.62C91.2166 53.7666 91.9932 53.01 92.4399 52.35C92.2699 52.28 92.0299 52.19 91.8499 52.11C91.8199 51.95 91.7799 51.73 91.7499 51.56C91.5899 51.62 91.3699 51.7 91.1999 51.76C91.3399 51.5733 91.9033 51.0033 92.8899 50.05C92.6366 49.9967 92.0666 50.1433 91.1799 50.49C92.1399 48.95 94.1099 48.45 94.9899 46.83C93.6499 47.27 92.4899 48.15 91.0599 48.33C90.8899 48.05 90.7899 47.59 90.8199 47.27C89.3799 47.47 88.2399 48.55 86.7799 48.65C86.8699 48.48 86.9999 48.24 87.0899 48.06C82.7999 47.47 80.7399 51.38 77.4699 52.84C77.4599 52.63 77.4399 52.36 77.4299 52.16L76.9899 52.28C77.0399 52.14 77.0899 51.99 77.1399 51.85C76.5333 52.0433 71.9899 56.2533 63.5099 64.48C63.5099 64.64 63.5199 64.87 63.5299 65.04C63.6799 64.95 63.8899 64.82 64.0399 64.73C63.1399 66.26 61.6399 67.24 60.5099 68.54L60.5999 68.64C60.6999 68.78 60.8299 68.96 60.9299 69.1C60.8199 69.24 60.6799 69.43 60.5699 69.56L59.6899 70.29C59.7699 70.14 59.8799 69.93 59.9599 69.78C59.2199 70.02 58.6699 70.7 57.8099 70.64C57.7499 70.46 57.6799 70.22 57.6199 70.04C57.7799 69.74 57.8799 69.27 57.8399 68.93C58.8599 67.71 60.3399 66.98 61.3099 65.71C61.2699 65.54 61.1999 65.32 61.1599 65.15C59.9332 65.8366 59.1166 66.3733 58.7099 66.76C58.7699 66.6 58.8599 66.39 58.9299 66.24V66.08H58.9199C53.4099 68.36 48.2299 76.02 48.5199 76.8C48.3299 77.57 47.8699 78.23 47.5699 78.95C48.3099 78.73 48.9799 78.3 49.7699 78.22C49.2299 79.84 41.6899 85.93 41.6199 85.96C41.6399 85.78 41.6799 85.54 41.6999 85.36C41.5933 85.3533 40.9632 85.67 39.8099 86.31C39.8699 85.9033 40.1599 85.3867 40.6799 84.76C40.8099 84.46 40.8099 84.44 40.8099 84.43V84.4L40.8199 84.38V84.36L40.8299 84.34V84.32V84.3V84.28C40.8299 84.28 32.6799 90.98 30.2899 94.05C30.6499 93.8766 31.1466 93.5266 31.7799 93C31.6099 93.19 31.3799 93.45 31.2099 93.64C31.1799 93.66 28.0299 96.54 28.1899 97.92C27.5632 98.6667 27.1166 99.1733 26.8499 99.44C27.0299 99.09 27.2999 98.65 27.5199 98.33C27.3899 98.45 27.2199 98.6 27.0899 98.72C27.2966 98.32 27.6266 97.8466 28.0799 97.3C26.8299 97.84 22.6799 103.82 22.6599 104.47C24.2199 103.9 24.9699 102.39 26.1899 101.43C26.1699 101.46 19.2899 109.95 16.9999 112.56C17.1699 112.63 17.3999 112.72 17.5699 112.79C17.7299 112.7 17.9499 112.59 18.1099 112.51C18.0099 112.85 17.8499 113.29 17.7099 113.61L17.8699 113.82C17.3366 114.593 16.5966 115.737 15.6499 117.25C15.7399 117.24 15.8499 117.22 15.9399 117.2L17.2999 115.59L17.6999 115.29C18.1599 114.82 18.5499 114.29 18.9899 113.8C18.4399 115.29 17.0899 116.23 16.3299 117.58C16.4999 117.53 16.7299 117.46 16.9099 117.42L17.2499 117.15L17.5799 117.11C17.8666 116.943 18.3666 116.543 19.0799 115.91C17.2099 119.25 13.6599 121.1 11.6399 124.3C11.3099 124.36 10.8799 124.55 10.6299 124.78C10.4099 125.51 10.4099 126.15 10.4699 126.78C10.3899 126.16 10.3199 125.54 10.2999 124.92C9.7199 125.46 9.39992 126.23 8.69992 126.66C8.52992 126.77 8.50992 126.77 8.41992 126.76C8.43992 126.64 8.51992 126.56 8.56992 126.45C8.13992 126.4 8.07992 126.85 7.81992 127.02C7.64992 127.13 7.4399 127.13 7.2699 127.24L7.21991 127.27C7.21991 127.27 7.15992 127.33 7.03992 127.45C6.52992 127.97 6.29991 128.18 6.09991 128.16C5.63991 128.7 5.37991 129.39 4.74991 129.78C4.76991 129.62 4.85992 129.49 4.91992 129.34H4.8699C4.7899 129.13 5.1299 128.83 4.8699 128.73C4.8699 128.73 4.8799 128.677 4.8999 128.57C4.6399 128.56 3.31991 130 2.93991 130.52C2.66991 130.9 2.53991 131 2.46991 131.06L2.44992 130.95L2.28992 131.1L2.21991 131.01L2.25992 130.91C1.93992 131.14 0.969902 132.81 0.899902 133.25C1.1999 133.09 1.2099 132.65 1.5499 132.52L0.989899 133.43L1.46991 132.91V132.96C1.46991 132.96 1.4899 132.96 2.9899 131.3C3.1099 131.4 3.06991 131.47 2.96991 131.61C2.96991 131.61 2.47992 132.34 2.41992 132.48C2.54992 132.54 2.6099 132.48 2.7399 132.33C2.6999 132.47 2.6499 132.67 2.6199 132.81C2.2999 133.35 2.22992 133.47 2.16992 133.61C2.41992 133.53 3.02991 132.7 3.34991 132.26L3.55991 132.31C3.68991 132.14 3.8299 131.97 3.9599 131.8C4.0199 132.46 3.39991 132.7 3.12991 133.17L3.1499 133.23L3.27991 133.25C3.39991 133.12 3.54992 132.93 3.66992 132.8L4.05991 132.42L4.6499 132.11L4.75992 132.05C4.75992 132.15 4.81992 132.24 4.78992 132.34L4.8299 132.36L4.9299 132.31V132.36C4.9699 132.34 5.21659 132.073 5.66992 131.56L5.69992 131.61H5.74991C6.08991 131.16 6.22992 130.6 6.63992 130.2C6.63992 130.2 7.61991 129.45 8.02991 129.33L8.12991 129.31C8.12991 129.35 8.10323 129.42 8.0499 129.52C8.2399 129.45 8.32992 129.26 8.50992 129.17L8.5499 129.21C9.0799 129.09 9.13991 129.07 10.5299 127.57L10.6099 127.49C10.8199 127.21 11.0999 126.83 11.2999 126.54C11.4699 126.54 11.6999 126.55 11.8799 126.56C12.2199 126.23 12.7899 125.92 13.2299 125.73L13.6199 125.42L14.0899 125.3L14.3699 125.12C15.6299 125.02 15.8599 123.39 17.0999 123.27C20.2399 121.04 21.8799 117.31 25.1499 115.22C25.3099 115.04 25.4599 114.86 25.6099 114.68C27.2799 112.78 29.6899 111.96 31.6699 110.52C31.7399 110.68 31.8299 110.9 31.8999 111.07C32.8699 110.96 33.0099 110.88 33.6199 110.55C33.0699 111.83 31.7099 112.52 31.2099 113.84C31.0999 113.54 30.7999 113.17 30.5199 113C30.5599 112.66 30.7399 112.22 30.9399 111.94C28.9399 112.04 21.9299 120.09 21.2099 121.13C21.1599 121.24 21.1599 121.24 21.1599 121.24V121.25V121.27V121.29L21.1699 121.31V121.33L21.1899 121.36C21.5499 121.63 22.3699 122.28 25.7499 120.22C29.9799 121.55 29.7599 115.18 33.1399 114.41C32.8199 114.72 32.3999 115.12 32.0799 115.43C31.8499 115.73 31.5599 116.14 31.3499 116.45C31.5199 116.4 31.7599 116.32 31.9299 116.26C32.2099 116.46 32.6199 116.68 32.9399 116.8C32.8299 117.53 32.7999 117.75 32.0999 119.11C31.7932 119.203 31.3432 119.567 30.7499 120.2C30.8899 120.31 31.0699 120.47 31.1999 120.58C31.0499 120.93 30.8899 121.4 30.7999 121.76L30.9199 121.84C31.7299 121.82 32.3999 121.35 33.1599 121.16C32.3466 121.733 31.4999 123.057 30.6199 125.13C30.9099 125.35 31.3399 125.58 31.6799 125.7C31.6299 125.87 31.5499 126.11 31.4999 126.28C31.6499 126.45 31.8499 126.68 31.9999 126.85L32.3299 126.79L32.6299 126.77L32.9399 126.92C33.0699 127.23 33.1399 127.67 33.1199 128C33.3099 128.03 33.5699 128.07 33.7599 128.1C33.0999 130.273 32.9399 131.557 33.2799 131.95C33.9999 131.56 34.0599 131.53 34.9799 131.4C35.0399 131.75 34.9299 132.25 34.7599 132.55C29.2599 133.45 33.8499 140.49 31.4799 143.91C32.8599 144.57 33.3099 143.91 33.5499 143.54L33.7999 143.19C34.3599 142.9 34.6499 142.32 35.1299 141.93C34.6832 144.45 34.4899 145.747 34.5499 145.82C35.5299 144.93 35.9599 143.67 36.7699 142.66C34.9032 150.413 33.7832 154.517 33.4099 154.97C34.3499 155.62 35.3499 156.25 36.3799 156.88C35.3399 156.26 34.3299 155.63 33.3499 155C33.2099 155.08 32.9199 155.25 32.8499 155.65C32.7399 156.28 32.9699 156.9 32.9299 157.53L32.2499 160.2C32.2199 160.27 32.1799 160.37 32.1599 160.45C32.1599 160.45 31.9799 161.2 31.9899 161.76V161.88C31.9899 162.26 31.6999 162.56 31.6899 162.94C31.6799 163.29 32.1499 163.48 31.9899 163.88C31.9099 164.07 31.7199 164.09 31.5299 164.1C30.8999 164.14 30.2999 165.2 30.1899 165.42C30.1899 165.42 30.6999 166.05 31.3399 165.75C31.6899 165.58 32.0799 165.9 32.0899 166.03L31.5199 168.24C31.3099 168.63 30.8199 168.64 30.5399 168.94C30.4799 168.99 30.3999 169.07 30.3699 169.14C30.0699 169.79 30.6299 170.48 30.2799 171.13C30.0299 171.6 29.8299 171.62 29.6099 171.66C29.5099 171.68 29.2199 171.72 28.7499 172.85C28.5899 173.24 28.5499 173.62 28.5299 173.78C28.6399 173.88 28.7899 173.85 28.9099 173.93L28.8899 174L28.8699 174.04L28.7999 174.17C28.6899 174.41 28.5399 174.73 28.4299 174.97C27.9699 175.64 27.7399 176.07 27.4999 176.5C27.4599 176.76 27.4099 177.11 27.3699 177.37H27.4399L28.1399 177.22H28.1599L28.1899 177.25L28.2299 177.27L28.2799 177.3L28.3299 177.33L28.3799 177.36L28.4199 177.38L28.4499 177.4C28.4999 177.67 28.5699 178.03 28.6199 178.3C28.2499 178.65 27.5799 178.96 27.0599 179.02C26.8866 179.367 26.8032 180.847 26.8099 183.46V183.49C27.2999 183.21 27.8999 182.76 28.3199 182.38C28.4599 182.62 28.6499 182.94 28.7799 183.18C26.3399 186.23 26.8199 192.13 26.8299 192.18C27.0399 192.83 27.0299 192.84 27.0199 192.86L26.9999 192.9V192.93L26.9799 192.95V192.97L27.6799 193.01H27.6899L27.7499 193C27.9799 193.17 28.2799 193.39 28.5099 193.56C28.2999 193.73 28.0199 193.96 27.8099 194.13C27.6799 194.1 27.4999 194.05 27.3699 194.02L27.3399 194C25.9399 194.94 24.4999 195.92 24.7899 197.16C25.0499 197.13 25.3999 197.07 25.6599 197.03C24.1066 199.27 23.5932 200.853 24.1199 201.78H24.1299L24.3499 201.7C24.4399 201.99 24.4499 202.49 24.7099 202.65V202.68C24.9599 202.57 25.2799 202.43 25.5299 202.32C25.7099 202.52 25.9599 202.79 26.1399 203C26.0099 203.51 25.6799 204.16 25.3299 204.55C26.7399 206.55 26.8199 206.67 28.3999 206.66H28.4299C28.2799 207.23 28.0199 207.97 27.7599 208.5C27.9399 208.69 28.1799 208.96 28.3599 209.15C27.9199 210.47 27.7933 211.38 27.9799 211.88C28.3099 212.1 28.4699 212.18 28.6399 212.26L29.1299 212.52C28.8099 214.48 31.2899 216.47 29.2899 218.37C29.1699 218.75 29.1999 218.76 29.2199 218.77C29.1999 219.98 30.1899 221.02 29.8099 222.28C29.5599 222.39 29.2199 222.53 28.9699 222.64C28.9399 222.93 28.9099 223.32 28.8799 223.61C26.3899 224.4 25.8699 223.14 24.9199 220.86C24.6599 220.81 24.2999 220.75 24.0399 220.7C19.8799 226.27 21.1899 233.42 18.6399 239.46C10.1299 258.68 6.41992 271.06 9.72992 285.38C10.8399 285.8 12.0599 285.82 13.1499 286.27C8.0299 287.11 10.8999 291.97 10.9499 292.01C10.8399 296.54 12.3499 300.9 12.4399 305.41C12.9399 308.99 16.7099 310.25 18.0199 313.26C20.7399 313.83 22.7499 320.58 22.3399 323.18C22.3399 323.29 25.6799 340.62 27.8299 344.08L28.5599 344.95L29.4799 346.48C30.6733 349.307 31.2666 351.427 31.2599 352.84C30.8899 352.99 30.3599 353.12 29.9599 353.16C29.8799 352.96 29.7699 352.69 29.6899 352.49C28.8699 352.297 28.1699 352.237 27.5899 352.31C27.5199 352.52 27.4299 352.81 27.3599 353.02C28.6999 354.06 29.4099 356.31 29.7499 357.4C30.7999 357.83 30.8599 357.92 31.3799 358.8C32.9899 361.49 36.1699 362.8 37.4999 365.74C38.5599 368.08 36.5299 370.53 37.7599 372.86L42.9399 379.51C44.7999 380.8 45.2399 386.03 47.7799 384.15C47.8199 383.85 47.8799 383.45 47.9199 383.15C46.1499 378.49 41.4099 375.03 42.2899 369.29C41.5366 368.39 41.0266 367.843 40.7599 367.65C41.1099 367.4 41.6399 367.16 42.0599 367.06L34.4699 344.86C33.6299 343.18 31.3399 342.95 30.6899 341.08C29.5499 337.77 30.4699 334.24 29.6499 330.9C32.1099 332.347 33.5366 333.047 33.9299 333C34.4299 333.66 34.5399 333.81 35.2399 335.63C35.4399 335.63 35.7099 335.62 35.9099 335.61C36.0699 337.357 36.0432 338.643 35.8299 339.47C38.8799 345.31 37.9499 352.92 43.8799 357.47C44.2499 358.44 43.6999 359.5 44.1799 360.46L52.3599 374.27C54.0099 374.75 64.9999 392.87 63.3899 395.23C66.2199 400.52 63.4799 402.43 63.4499 402.45C64.2599 405.85 65.2699 410.08 73.4999 416.24C73.8599 416.45 73.8599 416.45 73.8599 416.45H73.8699H73.8799H73.8999C77.8066 418.75 82.2332 421.917 87.1799 425.95C87.9799 426.42 88.3599 426.5 88.7399 426.57L89.7699 427.29C96.9699 431.95 106.85 438.34 111.45 433.62C113.77 433.69 116.86 436.18 118.88 437.96C119.09 438.69 119.65 439.03 120.26 439.04C120.26 439.09 120.26 439.15 120.26 439.2C121.273 440.1 121.923 440.507 122.21 440.42C124.743 443.86 126.203 445.677 126.59 445.87C128.17 446.63 129.04 448.78 131.28 448.25C132.29 448.01 133.66 448.74 134.13 449.11C136.943 450.797 141.093 452.28 146.58 453.56C146.81 453.65 146.82 453.65 146.82 453.66C147.05 453.73 147.35 453.82 147.58 453.9C148.29 456.42 150.8 457.7 151.81 460.01C152.83 462.33 157.34 462.1 156.6 465.43C155.7 467.56 156.28 471.25 161.57 472.74C161.723 472.3 161.523 471.45 160.97 470.19C162.14 470.73 162.01 472.52 163.46 472.8C163.59 473 163.78 473.26 163.93 473.45C164.283 473.457 165.197 473.753 166.67 474.34C166.94 475.14 167.92 475.7 167.51 476.74C168.07 477.58 168.98 478.13 169.44 479.04C169.82 479.03 170.2 479.07 170.58 479.07C170.61 478.95 170.65 478.8 170.69 478.69C172.06 478.45 173.07 479.5 174.24 479.96C171.99 482.18 172.06 486.65 167.63 486.75C167.59 487.13 167.54 487.63 167.5 488.01C167.17 488.25 166.74 488.58 166.42 488.82C169.04 491.11 169.95 494.09 169.13 497.65C169.517 498.223 170.207 500.883 171.2 505.63C169.18 507.85 167.14 509.343 165.08 510.11C164.87 511.42 164.42 512.67 164.15 513.97C164.29 514.28 164.48 514.7 164.62 515.01C163.333 515.117 161.453 515.477 158.98 516.09C158.93 516.76 159.18 517.69 159.55 518.25L159.92 519.11C159.693 519.263 159.057 521.443 158.01 525.65C157.94 526.59 157.94 526.59 157.94 526.59H157.93C158.22 526.85 158.6 527.21 158.89 527.47C158.89 527.82 158.89 528.29 158.89 528.63C159.89 529.3 160.66 530.24 161.64 530.93C162.13 530.42 162.61 529.56 162.84 528.88C163.77 531.12 163.94 531.52 162.08 532.87C159.373 534.157 159.117 537.46 161.31 542.78C161.13 543.07 160.9 543.45 160.72 543.74C188.01 575.97 189.14 576.7 191.85 578.46C193.17 580.99 204.44 586.23 204.55 586.27C208.803 587.783 213.073 590.213 217.36 593.56C219.13 594.94 223.31 617.32 223.25 617.47C223.563 618.05 223.953 620.703 224.42 625.43L224.32 625.54C225.42 630.41 229.42 634.52 228.12 640.02C228.35 640.3 228.67 640.66 228.9 640.94C228.52 642.75 228.97 644.7 227.94 646.4C228.78 647.72 233.16 654.35 237.38 655.01C239.233 657.783 240.5 659.323 241.18 659.63C241.24 659.97 241.32 660.42 241.38 660.75C241.71 660.87 242.14 661.03 242.46 661.15C242.43 661.49 242.39 661.94 242.36 662.29C241.18 662.15 240.05 661.73 238.86 661.64C238.98 661.95 239.15 662.37 239.27 662.67C241.63 662.45 243.56 663.84 245.7 664.4C245.35 664.41 244.88 664.43 244.54 664.44C244.59 664.65 244.66 664.92 244.72 665.12C245.307 665.273 246.757 665.867 249.07 666.9L248.99 667.16H248.97C251.44 667.91 261.32 669.79 261.37 669.79C261.18 669.66 260.93 669.5 260.74 669.38L260.97 669.35C261.79 669.35 261.8 669.35 261.8 669.35H261.83C262.5 669.59 263.41 669.88 264.1 670.07C263.76 670.06 263.3 670.04 262.96 670.03C265.36 670.44 272.2 670.77 272.22 670.76C269.26 670.47 266.38 669.61 263.39 669.53C263.05 669.47 262.59 669.39 262.24 669.34C262.6 669.34 263.09 669.34 263.45 669.35C261.523 668.69 260.457 668.313 260.25 668.22C260.55 668.06 260.96 667.84 261.26 667.68C261.13 667.36 260.96 666.93 260.84 666.61C261.5 666.48 262.38 666.26 263.03 666.05C262.5 665.65 261.87 665 261.48 664.45C258.43 664.2 258.24 664.1 257.23 663C257.44 662.71 257.71 662.33 257.91 662.04C258.58 661.94 259.47 661.79 260.14 661.68C260.3 661.38 260.52 660.97 260.68 660.66C260.51 660.55 260.28 660.39 260.11 660.28L260.31 659.96C260.53 659.7 260.83 659.36 261.05 659.11C260.77 658.88 260.4 658.58 260.12 658.35C260.83 658.33 261.8 658.53 262.42 658.87C262.64 658.61 262.93 658.26 263.15 658.01C260.077 656.563 258.54 655.83 258.54 655.81C260.78 654.63 263 656.39 265.23 655.83C265.01 655.57 264.71 655.22 264.49 654.96C264.71 654.66 265 654.26 265.22 653.96C265.14 653.6 265.03 653.12 264.95 652.76C269.66 649.58 280.83 654.95 280.5 647.16C278.95 646.51 279.02 644.77 278.16 643.65C275.13 643.37 274.77 642.97 273.89 642C274.21 640.013 274.463 638.89 274.65 638.63C274.57 638.22 274.41 637.67 274.46 637.26C274.74 637.95 275.39 639.57 274.69 642C281.33 646.19 292.93 644.75 295.68 637.54C303.64 634.29 313.55 624.65 309.83 619.8C310.15 619.69 310.57 619.54 310.89 619.43C310.78 619.09 310.62 618.64 310.51 618.31C311.47 617.79 312.56 617.8 313.57 617.48C316.197 615.56 319.983 614.24 324.93 613.52C324.98 613.19 325.04 612.75 325.09 612.41C326.517 612.17 327.573 611.67 328.26 610.91C337.92 610.49 338.48 609.75 339.18 608.81L349.98 599.1C350.46 597.45 350.74 595.74 351.34 594.11C356.3 591.89 357.44 578.74 356.42 576.96C357.08 576.65 358.02 576.33 358.74 576.18C358.4 576.03 357.95 575.83 357.61 575.68C374.33 567.64 377.67 558.32 379.88 552.15C380.01 551.47 379.89 550.53 379.87 549.83C379.78 549.69 379.77 549.69 379.76 549.69C379.19 548.43 378.7 547.14 378.09 545.9C378.98 545.44 379.91 545.02 380.65 544.39C380.37 542.75 380.47 542.48 383.91 540.99C384.15 541.12 384.46 541.3 384.7 541.44C385.17 541.17 385.76 540.76 386.18 540.41C386.44 540.54 386.79 540.71 387.05 540.83C387.71 541.12 388.02 541.17 388.32 541.21C390.18 540.82 390.96 538.62 392.95 538.44C395.28 538.23 396.94 540.33 399.24 540.22C399.49 540.31 399.5 540.31 399.51 540.31H399.6L399.73 540.35L399.89 540.37L400.06 540.4L400.23 540.43L400.38 540.45L400.5 540.47C400.72 540.6 401.02 540.77 401.25 540.9C401.43 541.64 401.81 542.59 402.11 543.29L402.87 543.58C403.603 544.193 405.1 544.723 407.36 545.17C407.61 545.21 407.95 545.27 408.21 545.31C408.38 545.83 408.6 546.52 408.76 547.03C410 549.75 409.02 553.42 412.32 555.25L413.22 555.61C415.18 555.84 417.01 556.67 418.96 556.94L419.47 558.05L419.28 558.95L419.79 560.17L420.39 560.83L420.22 561.8L420.14 562.7L420.44 563.37C420.64 563.58 420.92 563.86 421.12 564.06C422.1 564.033 423.003 564.24 423.83 564.68C423.95 564.68 435.43 562.5 433.38 557.92C435.58 554.647 441.21 548.253 450.27 538.74C456.21 532.5 464.3 528.69 469.51 521.63C468.317 522.503 466.397 523.787 463.75 525.48C463.883 524.813 465.177 523.557 467.63 521.71C466.66 521.92 465.65 522.13 463.85 523.96C463.89 523.43 464.06 522.64 464.47 522.3C469.16 518.31 473.08 514.98 476.08 507.85C478.47 507.66 481.06 507.79 484.07 508.33C487.59 505.86 491.68 504.4 495.24 502C495.25 502 497.69 500.45 501.06 498.64C509.8 493.96 510.24 494.22 515.63 497.41C515.61 498.41 515.49 499.75 515.34 500.74C515.67 501.09 516.1 501.54 516.43 501.89C516.797 501.857 520.317 500.683 526.99 498.37C526.89 498.86 526.75 499.5 526.65 499.99C527 500.3 527.47 500.73 527.82 501.04C528.31 500.97 528.96 500.88 529.44 500.81C529.87 503.46 530.15 505.22 527.68 508.51C522.62 516.963 521.53 526.03 524.41 535.71C524.47 536.54 524.19 537.67 523.89 538.45L523.87 538.5L523.84 538.57L523.8 538.65L523.76 538.74L523.71 538.84L523.66 538.95L523.6 539.07C523.6 539.07 523.56 539.15 523.12 540.09C521.287 550.05 513.26 562.94 499.04 578.76C498.46 579.58 497.88 580.39 497.15 581.38C494.38 584.94 493.69 589.51 491.37 593.29C487.41 601.86 479.54 607.33 474.24 614.84C474.19 614.91 469.03 621.6 462.32 625.15C459.887 627.17 458.51 628.357 458.19 628.71C459.05 628.4 460.16 627.89 460.96 627.46C463.26 626.34 465.48 625.06 467.84 624.08H467.85C467.85 624.08 467.85 624.08 467.99 624C468.85 623.68 469.97 623.17 470.78 622.73C471.81 622.33 472.7 621.65 473.66 621.11C473.77 621.06 473.87 621 474.02 620.93C480.81 617.04 504.69 602.58 531.3 577.54L531.68 577.24H531.77L532.69 576.45C537.2 572.41 544.76 565.65 557.32 551.46C557.39 551.38 557.39 551.38 557.39 551.38C560.8 547.5 563.76 543.96 566.16 540.87L566.2 540.78L566.3 540.61C567.333 539.343 569.137 536.993 571.71 533.56C573.2 531.64 575.7 528.42 580.22 521.83C579.09 522.97 570.82 533.59 570.74 533.69L569.41 535.48C569.617 535.34 569.91 535.047 570.29 534.6C569.82 535.35 568.86 536.44 567.74 537.71L566.02 539.83C565.49 540.66 562 544.8 557.73 549.66C566.55 539.16 575.17 527.53 583.06 514.74C587.62 507.97 587.88 507.52 610.84 466.57C618.02 453.08 626.28 431.44 630.93 413.93C631.35 412.33 631.36 412.28 631.85 409.89C631.27 411.743 630.547 413.773 629.68 415.98C629.28 416.88 628.72 418.08 628.27 418.96L628.08 419.39L627.83 419.83C627.28 420.95 626.52 422.43 625.91 423.52C625.6 424.17 624.7 424.72 624.06 425.04C624.11 424.57 624.18 423.94 624.23 423.47V423.16C624.35 420.11 625.06 417.13 625.12 414.08C624.89 412.9 624.49 411.34 624.01 410.24C622.68 406.02 623.9 401.73 623.65 397.47C621.42 391.23 625.02 384.3 622.55 378.09C622.72 377.52 622.78 377.46 622.96 377.25C622.87 376.93 622.51 376.73 622.55 376.36C622.55 376.31 622.62 375.78 623.4 372.72C622.72 373.34 621.78 373.65 621.31 374.52C621.31 374.52 621.19 374.75 621.01 375.12C619.24 366.11 621.72 356.26 615.62 348.12C615.42 346.62 615.18 344.61 615.09 343.1C615.09 343.12 616.44 347.73 618.3 352.05L617.47 346.09C619.98 351.58 623.92 365.14 623.96 365.3L624.42 369.54C624.34 371.23 624.44 372.38 624.58 373.93C624.58 373.93 624.58 373.93 624.62 374.44C624.36 375.58 623.99 376.287 623.51 376.56C625.26 379.06 621.81 382.27 624.61 384.62C625.39 384.03 625.67 383.68 625.95 382.79C626.56 386.06 627.35 389.31 626.8 392.69C626.8 393.07 626.8 393.59 626.84 393.97C626.76 394.46 626.68 395.11 626.63 395.6L626.34 396.96L626.17 399.44C626.03 400.753 625.707 403.88 625.2 408.82C627.63 408.34 632.88 393.84 632.92 393.7L633.28 392.38C633.93 390.55 634.78 388.8 635.43 386.97C635.96 385.45 636.03 385.17 636.5 383.07C636.9 380.46 637 379.84 637.8 377.15L637.88 376.89L638 376.68C638.68 373.76 639.463 370.213 640.35 366.04C641.72 354.7 642.41 348.85 642.75 345.33C642.85 343.81 642.95 342.28 643.04 340.79C643.04 340.35 643.04 339.93 643.03 339.5L643.05 338.69V337.92C643.023 336.287 642.987 335.163 642.94 334.55C642.92 334.75 642.88 335.01 642.85 335.21C642.79 335.023 642.76 334.93 642.76 334.93V334.95V334.96C642.62 334.293 642.473 330.727 642.32 324.26C642.1 327.533 641.977 329.313 641.95 329.6L641.85 331.57C641.25 338.18 641.12 338.54 639.87 341.89C638.32 340.41 638.37 338.84 638.72 337.25C638.56 336.4 638.26 334.72 637.9 332.63C638.17 329.53 638.57 326.45 639.32 323.41C639.42 323.79 639.51 324.18 639.58 324.57C639.65 327.1 639.51 329.65 639.96 332.17C640.14 332.07 640.39 331.94 640.57 331.85C641.15 329.79 641.01 327.69 641.04 325.59C641.12 325.68 641.21 325.76 641.32 325.84C641.47 325.27 641.63 324.34 641.77 323.39L641.83 323.42C642.05 322.34 642.19 321.64 642.31 320.94C642.39 321.59 642.52 322.83 642.79 325.23C642.86 325.02 642.94 324.74 643.01 324.53C643.28 324.55 643.28 324.53 643.29 324.5L643.31 324.39L643.33 324.27L643.35 324.15V324.03L643.38 323.93V323.85L643.4 323.8C643.44 323.61 643.51 323.35 643.56 323.16C643.56 323.37 643.56 323.64 643.57 323.84C643.57 323.69 643.59 323.49 643.59 323.35C643.59 323.27 643.59 323.19 643.59 323.1C643.59 322.78 643.59 322.46 643.6 322.16V322.49V321.98L643.49 322.35ZM236.15 29.35L236.06 29.26C236.24 28.82 236.33 28.6 236.29 28.49C236.55 28.42 236.8 28.34 237.06 28.27C237.2 28.31 237.35 28.36 237.47 28.45C237.29 29.12 236.27 29.33 236.16 29.35H236.15ZM246.56 23.25C246.6 23.01 246.64 22.75 246.68 22.46C247.89 22.1 248.54 21.93 249.18 22.14C247.72 22.58 246.95 22.97 246.56 23.25ZM261.8 40.3C261.8 40.3 260.28 40.87 260.06 41.06L260.01 41.08H260C259.99 40.74 261.06 40.2 261.07 40.2C261.52 40.01 261.58 40.07 261.83 40.3H261.8ZM406.74 93.19C406.87 93.54 406.93 93.72 406.94 94.04C406.69 93.9 406.44 93.76 406.15 93.6C406.29 93.47 406.55 93.35 406.74 93.35V93.19ZM405.73 95.66C405.83 95.66 405.95 95.67 406.05 95.68C406.21 95.92 406.43 96.23 406.59 96.47L406.62 96.52C406.53 96.78 406.43 97.03 406.32 97.29C406.13 96.75 405.47 96.35 405.73 95.66ZM390.16 96.63C390.61 95.97 391.15 95.88 392.59 95.63C394.17 95.36 396.01 93.67 395.82 93.13C395.76 92.97 393.4 91.4 391.26 91.83L390.6 91.87C390.4 91.78 390.15 91.65 389.96 91.56C389.96 91.45 389.98 91.31 389.99 91.21C391.62 91.11 397.86 92.01 400.42 94.89C400.7 95.32 400.85 95.58 401.01 95.85C401.89 97.02 402.54 97.59 403.01 96.86C405.3 97.82 405.53 97.91 406.15 97.7C405.87 98.39 405.66 99.09 405.87 99.9C406.11 100.01 406.27 100.21 406.38 100.49C406.23 100.55 406.08 100.62 405.94 100.64C404.49 100.9 403.35 99.83 402 99.68C401.43 99.62 398.9 99.41 398.89 99.42C394.49 102.69 393.87 102.69 393.79 102.66C393.58 102.86 393.19 103.24 392.02 102.77L391.95 102.71H391.98C392.69 102.47 394.36 101.99 394.37 101.99C394.583 101.063 395.18 100.607 396.16 100.62C396.42 100.31 396.53 100.18 396.19 98.89C396.39 98.8 396.66 98.68 396.85 98.6C398.11 97.44 398.11 97.35 398.11 96.21C396.617 95.2833 394.737 95.3633 392.47 96.45L391.5 99.45C391.52 99.56 391.55 99.71 391.58 99.82C391.78 99.93 392.05 100.06 392.25 100.15C391.34 100.58 390.39 100.16 389.47 100.24L390.15 96.64L390.16 96.63ZM501.96 320.64L501.91 320.67C501.66 320.57 501.58 320.54 501.54 320.8C501.54 320.8 501.14 320.1 500.89 319.24C501.19 319.02 501.49 318.78 501.78 318.53C501.93 318.9 502.11 319.66 502.11 319.66C502.15 320 501.95 320.3 501.97 320.64H501.96ZM170.8 143.45C170.02 145.33 169.26 147.23 168.49 149.12C168.49 149.12 168.48 149.12 168.47 149.12C169.25 147.22 170.02 145.33 170.8 143.45ZM92.9899 83.58C92.9499 81.86 93.4399 81.5 94.3499 81.43C95.5099 81.09 96.6999 80.9 97.8899 80.71C96.6199 81.48 95.4699 82.56 93.8799 82.61C93.5899 82.87 93.2199 83.25 92.9899 83.58ZM300.26 634.58C300.14 634.75 299.35 635.16 299.26 635.03C299.24 635 299.24 635 299.27 634.85C299.15 634.9 298.2 635.93 298.14 636.21C298.11 636.34 297.06 636.93 296.68 637.11C296.6 636.54 296.54 636.12 296.84 635.8L296.92 635.72C296.97 635.68 297 635.67 297.08 635.64C297.57 635.45 298.02 635.23 298.1 635.19C298.7 634.84 298.83 634.1 299.36 633.69C299.48 633.6 299.63 633.57 299.76 633.48C299.86 633.42 299.93 633.35 300.19 633.13C300.36 632.98 300.61 632.76 300.7 632.8L300.73 632.98C300.73 632.98 300.34 634.48 300.27 634.58H300.26ZM368.53 544.52C368.32 544.39 368.12 544.26 367.92 544.12C368.24 543.39 368.54 542.86 368.73 542.69C368.62 543.21 368.53 543.92 368.52 544.45V544.52H368.53ZM555.46 304.62C555.18 303.73 554.91 302.52 554.75 301.6C553.26 301.94 551.72 301.95 550.25 302.34C541.59 292.733 537.163 286.503 536.97 283.65C538.25 282.78 538.88 281.3 540.05 280.32C540.44 280.54 540.96 280.84 541.35 281.06C541.68 283.63 542.3 283.77 543.97 284.14C544.27 283.82 544.68 283.39 544.99 283.06C545.4 283.21 545.96 283.41 546.38 283.57C546.45 284.01 546.54 284.58 546.61 285.02C549.67 286.11 550.14 289.8 552.86 291.24C553.27 291.09 553.83 290.89 554.24 290.74C556.6 292.62 559.58 293.51 561.89 295.47C562.743 295.663 564.147 296.9 566.1 299.18C566.69 300.2 566.9 301.29 567 302.4C566.13 303.58 563.37 306.17 562.01 307.42C559.13 305.51 555.53 304.63 555.48 304.62H555.46ZM559.69 310.03C559.49 310.34 559.29 310.7 559.09 311.09C559.14 310.84 559.2 310.57 559.26 310.27C559.39 310.19 559.54 310.11 559.68 310.02L559.69 310.03ZM547.04 328.72C547.04 328.72 547.18 328.63 547.78 329C547.76 329.35 547.76 329.41 547.41 330.62C547.16 330.22 546.85 329.72 546.62 329.33L546.48 329.36C546.63 329.12 546.81 328.89 547.04 328.71V328.72ZM585.95 339.26C584.6 340.86 583.59 345.6 581.71 354.45C580.78 355.53 579.41 356.96 578.13 357.57C577.797 357.237 574.36 356.583 567.82 355.61H567.81L567.79 355.62C567.79 355.62 567.6 355.64 567.22 355.68C567.153 355.013 566.653 353.55 565.72 351.29C564.24 350.71 562.61 350.53 561.23 349.69C555.123 350.037 551.007 349.343 548.88 347.61C548.53 347.92 548.06 348.33 547.71 348.64C544.01 346.09 548.96 342.4 549.16 339.22C549.16 339.15 549.15 339.08 549.14 339.01L549.12 338.82L549.1 338.65L549.08 338.49L549.06 338.35V338.22L549.04 338.11V338.01C546.71 334.23 546.51 333.89 547.24 331.44C547.86 331.61 548.14 331.71 549.05 332.23C554.97 335.54 555.77 335.02 556.41 334.61C556.74 334.39 556.85 333.57 556.82 333.44C556.65 332.45 555.89 331.69 555.71 330.69C555.47 329.42 555.89 328.22 556.13 327C557.09 330.58 559.42 334.03 561.6 335.6C561.89 335.55 562.27 335.49 562.57 335.44C562.69 335.2 562.85 334.88 562.97 334.64C563.45 335.85 563.78 337.12 564.36 338.29C563.353 339.763 562.853 340.52 562.86 340.56C563.5 342.85 565.93 343.97 566.61 346.25C566.69 346.52 566.86 346.86 566.97 347.12C567.22 347.22 567.54 347.36 567.78 347.46C568.75 344.88 567.42 341.51 570.44 339.63C570.89 339.96 571.36 340.6 571.56 341.13C573.84 335.73 580.23 331.51 580.29 331.48C581.597 332 582.493 332.227 582.98 332.16C583.39 330.88 583.36 329.49 583.95 328.26C586.15 328.88 586.35 334.1 585.96 339.29L585.95 339.26ZM615.05 302.39C615.05 305.26 615.07 307.87 615.07 307.9C614.8 306.06 614.92 304.23 615.05 302.39ZM615.39 318.65C615.15 318.82 614.91 318.99 614.66 319.15C615.43 324.29 615.3 329.48 615.38 334.66C615.05 334.89 614.68 335.15 614.39 335.35C613.85 334.917 611.433 336.853 607.14 341.16C603.24 340.86 599.02 344.5 595.44 340.29C593.42 341.54 593.02 341.56 591.1 341.65C590.02 340.46 589.14 339.6 588.39 339.11C589.04 335.75 589.87 333.1 590.86 332.62C591.53 329.65 593.66 320.69 595.8 316.88C596.32 317.17 596.86 317.47 597.4 317.75C598.11 319.82 598.92 321.86 599.51 323.97C600.62 324.01 600.79 324.02 602.3 323.89C602.5 320.81 602.64 318.63 602.8 316.97C603.26 315.64 603.7 314.31 605.22 313.68C606.253 315.133 607.367 316.063 608.56 316.47C610.373 313.277 612.32 310.443 614.4 307.97C614.56 310.55 614.617 312.45 614.57 313.67C614.57 313.67 614.57 313.74 614.95 312.46C615.04 311.62 615.1 311.04 615.14 310.58C615.03 313.34 614.47 316.08 614.62 318.85C614.94 318.64 615.26 318.43 615.57 318.22C615.51 318.36 615.45 318.51 615.4 318.65H615.39Z" fill="white"/>
</svg>
